<svg width="375" height="330" viewBox="0 0 375 330" fill="none" xmlns="http://www.w3.org/2000/svg">
<g filter="url(#filter0_di_302_2)">
<path d="M133.328 144.724L133.286 144.637C133.093 144.109 132.901 143.605 132.696 143.08V143.077C132.482 142.639 132.243 142.215 131.977 141.806C131.871 141.632 131.745 141.455 131.616 141.281C131.55 141.194 131.531 141.126 131.444 140.995L131.083 140.623C130.172 139.591 129.216 138.541 128.259 137.49C127.303 136.44 126.394 135.43 125.438 134.529H125.441C125.006 134.097 124.545 133.691 124.063 133.31C123.85 133.136 123.639 133.006 123.446 132.872C123.425 132.85 123.404 132.85 123.381 132.829H123.383C122.588 133.55 121.729 134.189 120.815 134.736C119.492 135.498 118.099 136.124 116.658 136.6C115.478 136.992 114.324 137.39 113.199 137.763C110.781 138.62 108.478 139.431 106.239 140.106C103.992 140.655 101.845 141.161 99.8534 141.63C99.3845 141.738 98.9182 141.804 98.452 141.869C98.3044 141.913 98.1569 141.937 98.0068 141.978C97.6459 142.046 97.3086 142.065 96.9451 142.13C92.9357 142.789 89.137 143.181 85.4885 143.447C86.9506 146.174 86.811 149.519 85.1303 152.104C93.078 152.548 100.802 154.978 107.641 159.185C111.656 161.79 115.241 165.036 118.263 168.808C121.382 172.688 121.426 177.75 128.426 176.041H128.428C128.465 176.044 128.502 176.036 128.534 176.019C128.702 174.572 128.852 173.126 128.958 171.657C128.963 171.567 128.976 171.477 129 171.393C128.831 170.277 128.726 169.137 128.66 167.975C128.555 167.929 128.447 167.888 128.365 167.842C128.144 167.695 127.938 167.526 127.751 167.338L127.24 166.788C127.093 166.636 126.605 166.198 126.263 165.803L125.138 164.584L125.141 164.587C124.471 163.73 123.847 162.84 123.273 161.912C121.729 159.136 120.365 156.254 119.19 153.291C118.924 153.745 118.552 154.121 118.107 154.387C118.015 154.447 117.917 154.491 117.812 154.518L117.643 154.561L117.303 154.648C117.274 154.67 117.251 154.703 117.24 154.738L117.048 154.869H116.476C116.271 154.847 116.071 154.787 115.886 154.695C114.843 154.325 113.926 153.647 113.254 152.743C112.735 152.145 112.259 151.508 111.832 150.836C110.328 148.468 109.624 147.197 109.767 146.933C109.998 146.604 111.397 147.655 113.225 149.584C113.692 150.044 114.203 150.547 114.774 151.032C117.169 153.092 116.724 149.453 117.193 147.853L118.146 144.566L120.014 147.592C122.327 151.317 123.897 155.941 126.316 159.996C126.803 160.807 127.332 161.52 127.865 162.255L128.75 163.218V163.221C128.895 163.425 129.055 163.618 129.237 163.79L129.258 163.659H129.153L129.408 163.33L129.788 162.72L129.893 162.282C130.251 160.881 130.33 159.419 130.127 157.985C129.956 156.619 129.68 155.272 129.3 153.952C127.825 148.977 126.284 145.976 126.774 145.69C127.135 145.451 129.448 147.927 131.674 153.054H131.676C132.277 154.485 132.738 155.977 133.054 157.503C133.383 159.106 133.436 160.758 133.204 162.38C133.565 161.613 133.945 160.802 134.284 159.923C135.056 157.563 135.338 155.06 135.114 152.58C135.056 151.582 134.906 150.591 134.669 149.62C134.585 149.116 134.477 148.613 134.374 148.096C134.271 147.579 134.013 146.912 133.842 146.321L133.568 145.407L133.441 144.947L133.328 144.724ZM356.296 217.247C360.052 244.338 360.9 276.512 352.903 303.076C353.653 306.832 351.62 310.587 348.127 311.888C341.614 313.956 334.568 313.221 328.587 309.849C326.093 311.988 323.137 313.477 319.971 314.19C312.331 316.098 303.783 313.97 295.932 310.617C258.293 306.959 220.528 309.346 182.803 309.215C178.667 309.673 174.489 309.591 170.371 308.973C159.454 309.213 148.58 309.888 137.694 310.682C136.219 311.12 134.744 311.515 133.219 311.866C122.998 313.844 112.571 314.449 102.199 313.665C99.839 313.488 97.7737 313.267 96.0245 313.055C93.6299 313.123 91.2511 313.189 88.8537 313.21C74.4885 313.276 60.2338 312.881 45.8902 312.092C33.4982 311.411 20.3421 312.835 8.20578 309.923C5.70318 310.973 3.62463 306.769 6.14045 304.839C15.9218 297.366 24.4913 288.446 33.5296 280.072C41.4011 272.773 50.0178 268.213 55.2153 258.285C50.0309 257.817 45.1837 255.433 41.567 251.569C37.9502 247.705 35.803 242.621 35.5238 237.255C30.3684 235.763 26.5935 229.847 29.3516 224.63C27.6208 221.362 27.6023 217.413 29.3094 214.131C25.3631 212.746 22.9001 208.694 23.4085 204.421C23.556 203.033 23.8774 201.67 24.3621 200.366C22.4154 200.312 20.5213 199.694 18.8958 198.584C17.2704 197.471 15.9796 195.914 15.1656 194.083C14.1224 191.538 13.9407 188.703 14.6572 186.038C15.8638 183.753 16.7252 181.284 17.202 178.723C17.202 178.593 17.2467 178.484 17.2467 178.372V178.375C16.1956 176.459 15.4106 174.399 14.9101 172.26C13.4665 166.034 11.3696 159.219 13.2136 152.862C16.6304 141.201 26.8991 156.607 31.7176 164.444C32.7344 162.714 33.8172 161.005 34.7313 159.187H34.7287C36.528 155.045 38.5774 151.022 40.8588 147.145C40.5848 146.99 40.2871 146.84 40.0316 146.685H40.0342C38.4694 145.705 36.9968 144.576 35.6401 143.308C34.8972 142.63 34.1965 141.903 33.5405 141.136L33.0137 140.456L32.7371 140.105L32.3972 139.536L32.0785 138.945L31.931 138.64L31.8651 138.485C31.844 138.398 31.8229 138.398 31.8229 138.42L31.6728 137.81C31.6517 137.767 31.5253 137.067 31.5253 137.067C31.4752 136.823 31.4383 136.572 31.4172 136.322C31.3962 135.908 31.3962 135.467 31.3962 135.029C31.3962 134.591 31.4383 134.15 31.4805 133.736C31.5253 133.323 31.628 133.078 31.6939 132.727H31.6965C31.9863 131.448 32.4499 130.215 33.0743 129.069C33.6933 127.918 34.4494 126.851 35.3214 125.891C36.383 124.721 37.6975 123.828 39.157 123.286C40.0685 123.042 40.8746 122.802 41.8308 122.606C42.4209 122.538 43.011 122.519 43.5721 122.473C44.1859 121.03 45.1764 119.795 46.433 118.9C48.3323 117.528 50.4636 116.532 52.7159 115.963C53.3323 115.786 53.9672 115.659 54.6679 115.525L55.1948 115.457L55.8112 115.414L56.7227 115.327H56.7254C58.2533 115.291 59.7839 115.422 61.2854 115.724C62.9846 116.045 64.639 116.584 66.209 117.324C67.1258 116.108 68.3218 115.15 69.689 114.537C71.4593 113.667 73.327 113.019 75.2475 112.608C76.7833 112.115 78.3666 111.794 79.9682 111.645C81.0879 111.813 82.1864 112.121 83.2349 112.559C84.4756 112.984 85.6505 113.601 86.7122 114.388C87.4471 113.454 88.3665 112.69 89.4097 112.151C91.1247 111.25 92.9872 110.684 94.9023 110.488C96.0667 110.347 97.2417 110.338 98.406 110.466L99.4229 110.619L99.9945 110.771L100.271 110.839L100.353 110.861C100.374 110.883 100.798 111.06 100.798 111.06L100.903 111.103C101.37 111.324 101.839 111.541 102.326 111.783L102.329 111.781C103.485 112.434 104.555 113.237 105.514 114.17C105.832 114.083 106.193 114.018 106.594 113.95C110.687 113.389 114.844 114.268 118.395 116.448C118.967 116.821 119.52 117.281 120.113 117.719L120.537 118.048L121.004 118.508L121.683 119.188C124.044 121.531 123.617 124.691 126.375 126.198C126.628 126.35 126.902 126.459 127.115 126.612L127.113 126.614C127.539 126.865 127.942 127.153 128.324 127.469C129.025 128.008 129.692 128.596 130.319 129.222C131.499 130.384 132.505 131.567 133.482 132.708C133.756 133.034 134.033 133.363 134.31 133.714C139.784 124.949 144.431 115.634 153.533 110.218C164.386 103.733 176.459 100.84 187.932 95.9746C188.511 89.7726 190.34 83.7613 193.298 78.3322C192.979 71.1203 189.141 63.397 192.853 56.4798V56.4771C195.279 52.2617 198.264 48.4194 201.722 45.0608C201.57 44.7016 201.499 44.3124 201.509 43.9205C202.041 25.8371 203.993 13.5423 222.705 8.39048C239.128 3.89754 256.802 2.8471 272.204 11.6561H272.207C286.851 19.8691 297.404 34.1536 301.209 50.9119C303.055 59.5033 304.412 68.971 301.633 77.5407C298.64 86.6844 293.466 94.6801 289.478 103.38V103.383C289.375 103.584 289.254 103.775 289.115 103.952C292.128 108.327 295.829 112.151 300.065 115.264C304.86 118.418 310.123 120.26 315.131 122.936C324.826 128.117 328.032 140.864 333.079 150.114H333.076C333.785 150.707 334.438 151.369 335.031 152.087C340.637 158.817 342.033 168.921 345.342 176.876V176.873C350.729 189.764 354.412 203.344 356.295 217.247L356.296 217.247ZM350.184 292.118C354.407 271.697 353.793 249.289 352.178 229.026C350.439 207.386 343.735 189.115 336.883 168.906C335.747 164.737 334.085 160.739 331.938 157.019C326.972 149.478 321.499 155.22 316.238 158.818C307.386 164.865 294.892 170.937 289.565 180.866H289.567C284.87 190.578 282.61 201.355 282.989 212.208C284.997 208.183 287.281 204.313 289.823 200.626C294.702 193.591 298.161 189.71 298.5 189.93C298.988 190.26 296.188 194.774 291.944 202.051C289.441 206.256 287.21 210.626 285.263 215.135C284.388 217.174 283.664 219.274 283.095 221.427C283.2 224.581 283.308 227.716 283.414 230.805C283.456 230.873 283.479 230.96 283.519 231.025H283.522C283.682 231.322 283.89 231.589 284.138 231.814C284.325 232.073 284.554 232.296 284.815 232.473C285.063 232.718 285.35 232.919 285.663 233.064L286.214 233.368L286.491 233.521L286.554 233.564H286.62V233.611V233.608C287.918 233.861 289.254 233.831 290.542 233.521C292.07 233.3 293.598 232.8 295.126 232.489H295.129C296.654 232.038 298.216 231.733 299.797 231.575H299.923C307.795 231.575 314.433 231.662 319.059 232.078C321.58 231.978 324.093 232.424 326.436 233.396C324.051 234.163 321.554 234.489 319.059 234.359C314.338 234.514 307.795 235.017 300.049 235.434L299.923 235.456C297.523 235.586 294.47 236.596 291.245 237.143C293.661 238.827 296.103 240.517 298.48 242.292C309.546 250.559 319.623 260.155 328.501 270.877C334.186 277.713 341.678 284.552 347.279 291.908C347.236 291.646 347.173 291.382 347.152 291.118C346.773 289.594 346.22 287.875 345.73 286.122C344.489 282.527 342.853 279.09 340.848 275.884C338.728 272.333 336.478 269.027 334.61 265.826H334.613C332.882 262.985 331.446 259.967 330.327 256.815C329.916 255.588 329.576 254.336 329.307 253.065C329.131 252.096 329.001 251.117 328.925 250.132C328.925 248.575 329.03 247.674 329.265 247.633C329.497 247.59 329.881 248.444 330.303 249.914C330.535 250.657 330.893 251.514 331.217 252.502C331.662 253.465 332.044 254.635 332.692 255.808L332.695 255.806C334.078 258.644 335.656 261.379 337.416 263.983C339.389 266.985 341.702 270.25 343.907 273.932C346.096 277.432 347.787 281.242 348.922 285.242C349.326 287.071 349.773 288.704 350.026 290.372C350.079 290.976 350.124 291.545 350.184 292.116L350.184 292.118ZM340.574 307.681C346.261 308.713 347.697 305.54 344.881 298.168C342.183 295.228 339.491 292.317 336.883 289.288C336.435 294.986 334.829 300.522 332.163 305.531C334.807 306.794 337.663 307.523 340.574 307.681L340.574 307.681ZM329.902 298.693C331.227 293.822 332.02 288.811 332.263 283.758C327.468 277.948 322.755 272.075 317.663 266.594C302.05 249.738 282.743 238.934 264.515 225.608C248.175 213.653 233.894 198.957 217.387 187.239C212.455 183.636 207.286 180.392 201.92 177.529C193.177 181.274 182.91 180.201 173.659 181.451L173.656 181.453C166.984 182.076 160.503 184.09 154.607 187.375C148.944 190.88 145.248 198.794 154.755 198.483C155.224 197.86 155.782 197.313 156.409 196.864C156.765 196.587 157.142 196.336 157.534 196.119C157.842 195.917 158.161 195.735 158.49 195.572L159.336 195.112L159.76 194.872L159.826 194.85L159.931 194.763C161.82 193.403 163.601 191.914 165.34 190.665C166.254 190.031 167.11 189.503 167.845 189.065V189.059C168.467 188.749 169.123 188.515 169.797 188.36C170.943 188.077 171.662 188.099 171.918 188.469C172.173 188.842 171.873 189.565 171.175 190.529C170.835 191.01 170.305 191.538 169.839 192.151C169.373 192.763 168.928 193.468 168.364 194.167C166.915 196.127 165.303 197.953 163.546 199.624L163.335 199.822L163.29 199.866L163.269 199.89L163.037 200.064L162.932 200.132L162.529 200.415L161.644 201.025L160.838 201.569C160.619 201.711 160.411 201.871 160.221 202.054C160.018 202.209 159.847 202.402 159.713 202.622V202.666C159.723 202.731 159.723 202.799 159.713 202.865L159.881 203.368C159.926 203.499 159.987 203.806 160.031 203.806C160.076 203.806 160.074 203.719 160.053 203.676C160.071 203.744 160.132 203.79 160.2 203.784C160.482 203.923 160.78 204.019 161.085 204.068C161.567 204.095 162.049 204.087 162.529 204.046C164.57 203.801 166.586 203.368 168.554 202.756C172.202 201.681 174.623 201.001 175.11 201.811C175.579 202.557 173.93 204.707 170.442 207.028C169.399 207.711 168.306 208.313 167.176 208.827C167.11 208.892 167.028 208.958 166.962 209.023V209.02C166.812 209.156 166.691 209.32 166.604 209.505C166.588 209.524 166.58 209.546 166.583 209.57L166.752 209.616H166.773C166.839 209.722 166.857 209.856 167.005 210.12V210.117C167.06 210.256 167.131 210.389 167.215 210.512L167.342 210.732V210.754L168.227 211.94C168.546 212.49 168.738 212.49 168.949 212.705C169.162 212.923 169.267 213.121 169.586 213.274C169.86 213.473 170.113 213.671 170.371 213.867C170.627 214.066 170.922 214.128 171.198 214.281C171.71 214.654 172.281 214.61 172.813 214.871C173.364 214.939 173.893 214.98 174.425 215.092C174.913 215.029 175.408 215.007 175.901 215.029C176.391 215.029 176.786 214.898 177.176 214.898H177.173C177.758 214.784 178.361 214.934 178.83 215.312C179.104 215.663 179.022 216.254 178.535 217.065C178.258 217.571 177.892 218.017 177.452 218.382C176.947 218.776 176.414 219.136 175.861 219.454C181.825 226.688 192.009 223.487 200.687 223.052C203.018 221.999 205.518 221.403 208.063 221.294C209.697 221.226 211.333 221.389 212.921 221.781C214.236 222.107 215.49 222.657 216.633 223.4C218.606 224.736 219.265 226.143 218.946 226.467C218.606 226.864 217.418 226.293 215.574 225.765V225.768C213.174 225.117 210.692 224.853 208.214 224.976C207.278 225.022 206.388 225.109 205.516 225.196C217.437 234.691 228.648 245.563 239.752 256.018C251.017 266.604 259.249 280.633 271.662 289.926H271.659C281.032 297.487 291.609 303.302 302.916 307.109C309.238 308.938 318.084 311.164 324.028 306.845H324.025C324.973 306.178 325.838 305.392 326.594 304.499C326.678 303.688 326.846 302.526 326.933 301.059H326.931C327.002 299.527 326.897 297.992 326.612 296.487C326.227 294.664 325.606 292.901 324.765 291.249C323.106 288.185 320.93 285.452 318.34 283.183C316.407 281.406 314.858 280.29 315.137 279.806C315.35 279.392 317.086 279.566 319.784 281.025C323.237 282.984 326.072 285.929 327.95 289.507C328.972 291.529 329.628 293.731 329.881 295.998C329.96 296.893 329.968 297.794 329.902 298.692L329.902 298.693ZM321.435 148.707C322.726 147.907 324.18 147.434 325.679 147.325C323.73 143.006 321.57 138.793 319.207 134.7C315.621 128.869 312.078 127.949 306.372 125.078C301.767 122.811 297.471 119.921 293.601 116.487C296.335 133.231 287.657 152.126 286.301 169.112C286.246 170.179 285.59 171.115 284.625 171.502C283.261 176.109 281.259 180.487 278.682 184.502C276.454 188.137 274.354 191.229 272.7 193.858C269.37 199.096 267.863 202.517 267.389 202.362C267.025 202.253 267.834 198.372 270.719 192.677C272.118 189.828 274.03 186.538 276.03 182.878C277.853 179.601 279.386 176.161 280.611 172.599C278.743 172.49 276.833 172.379 274.902 172.36C273.482 172.313 272.081 172.36 270.724 172.403C270.044 172.447 269.365 172.512 268.709 172.555C268.119 172.643 267.56 172.711 266.989 172.795C266.417 172.928 265.566 173.233 265.187 173.345C264.673 173.565 264.178 173.837 263.711 174.153C262.818 174.743 262.075 175.549 261.549 176.501C261.23 177.07 260.89 177.595 260.571 178.145C260.231 178.711 259.865 179.258 259.47 179.786C258.711 180.766 257.903 181.702 257.049 182.595C255.503 184.369 253.954 185.86 252.573 187.218C246.994 192.479 243.769 196.139 243.345 195.788C243.005 195.483 245.487 191.295 250.75 185.398C252.022 183.931 253.445 182.331 254.823 180.576C255.481 179.702 256.351 178.747 256.888 177.903C257.22 177.413 257.523 176.904 257.799 176.379C258.095 175.898 258.371 175.304 258.735 174.692C259.475 173.301 260.523 172.112 261.793 171.222C262.141 170.945 262.518 170.708 262.918 170.52C258.105 169.832 253.497 168.057 249.425 165.325C242.997 167.154 239.099 172.559 234.211 177.184C230.95 180.534 226.922 182.978 222.499 184.284C224.728 185.969 226.925 187.68 229.098 189.436C240.874 198.969 251.906 209.685 264.127 218.627C268.668 221.937 273.336 225.072 277.994 228.207C277.295 210.055 275.746 186.956 288.349 173.344C297.461 163.501 310.188 155.633 321.434 148.708L321.435 148.707ZM286.554 97.1128C293.619 82.3197 300.716 70.1085 296.1 52.3546C292.41 38.2172 284.475 24.9233 271.743 17.6599H271.746C258.785 10.3038 243.579 8.38794 229.288 12.3124C221.396 14.3507 210.324 16.4761 208.306 26.2074C207.484 30.6732 207.031 35.2042 206.947 39.7514C208.58 38.0859 210.15 36.3769 211.615 34.5699C211.997 33.7889 212.71 33.2364 213.543 33.0786C214.375 32.9208 215.234 33.1711 215.861 33.7589C216.093 33.9794 216.349 34.1753 216.601 34.3685C215.88 32.6133 215.561 30.7083 215.669 28.8033C215.827 26.7977 216.509 24.871 217.642 23.2354C218.527 22.204 219.117 21.7441 219.294 21.8992C219.47 22.0543 219.294 22.7946 218.872 23.913C218.377 25.4968 218.153 27.1596 218.216 28.8251C218.401 31.1954 219.281 33.4487 220.737 35.2883C221.393 36.1482 222.173 36.8939 223.05 37.5035C224.336 37.7974 225.643 37.9879 226.954 38.075C226.954 38.0505 226.933 38.0287 226.933 38.0069C226.52 36.5211 226.312 34.9835 226.32 33.435C226.264 30.8906 226.77 28.3652 227.795 26.0518C228.438 24.4734 229.452 23.0855 230.745 22.0187C231.659 21.3166 232.252 21.2077 232.4 21.3383C232.571 21.537 232.168 22.0813 231.638 22.9602H231.641C230.914 24.1876 230.363 25.5156 230.005 26.9035C229.465 28.9799 229.283 31.1407 229.476 33.2824C229.589 34.9615 229.997 36.6024 230.685 38.1264C232.234 38.0828 233.825 37.974 235.405 37.8433C235.116 37.5059 234.852 37.1467 234.62 36.7657C234.352 36.2813 234.125 35.7696 233.941 35.2417L233.727 34.3681L233.643 33.7586C233.553 32.7271 233.685 31.6849 234.028 30.7106C234.281 29.9242 234.599 29.1594 234.984 28.4302C235.629 27.1947 236.38 26.0191 237.226 24.9196C238.432 23.284 239.934 21.9071 241.651 20.8648C242.987 20.1191 243.793 20.228 243.859 20.4484C243.925 20.6688 243.269 21.107 242.479 22.0268H242.476C241.264 23.3711 240.197 24.8461 239.296 26.4326C238.669 27.4994 238.116 28.6124 237.642 29.7635C237.376 30.3677 237.168 31.0017 237.026 31.6494C236.87 32.1747 236.82 32.7244 236.878 33.2713C237.397 35.3368 239.015 36.918 241.04 37.3397C241.804 37.2962 242.568 37.2309 243.311 37.2091C242.934 34.798 243.108 32.327 243.82 29.9972C244.331 28.5114 245.15 27.1588 246.219 26.0349C247.126 25.0933 248.179 24.315 249.336 23.7326C253.517 21.8249 256.211 22.2849 256.251 22.6359C256.38 23.1857 253.749 23.7109 250.524 25.8798H250.527C248.738 27.0772 247.429 28.9004 246.839 31.015C246.396 33.0369 246.404 35.1351 246.86 37.1544C247.305 37.1544 247.745 37.1979 248.195 37.2197V37.2169C248.403 35.5488 249.08 33.9786 250.145 32.7022C251.667 30.7864 253.527 29.178 255.621 27.967C257.005 27.1179 258.543 26.5737 260.139 26.3668C261.349 26.2798 261.91 26.6063 261.91 26.8267C261.91 27.0472 261.296 27.2404 260.466 27.6813C259.22 28.3262 258.045 29.1127 256.968 30.0271C255.34 31.3442 253.909 32.9036 252.721 34.6507C252.113 35.4507 251.725 36.4032 251.596 37.4128C251.607 37.5026 251.628 37.5897 251.662 37.6741L252.213 37.8047L253.295 36.7107C255.909 34.5717 258.943 33.0532 262.187 32.2613C264.697 31.5701 267.266 31.1292 269.858 30.9469C274.268 30.6421 276.986 31.2735 276.965 31.7579C276.944 32.3022 274.31 32.5906 270.219 33.5322C267.827 34.0711 265.464 34.7378 263.137 35.5297C260.545 36.3516 258.109 37.6197 255.922 39.2743C257.247 40.0145 258.435 40.9943 259.426 42.1671L259.573 42.0147C260.769 40.7765 262.252 39.8703 263.88 39.3859C266.412 38.6239 269.089 38.5259 271.668 39.1001C273.375 39.4376 275.003 40.1288 276.446 41.1303C277.508 41.9195 277.742 42.5101 277.656 42.7087C277.337 43.1468 275.174 41.8541 271.354 41.6773V41.68C269.181 41.5521 267.005 41.8623 264.947 42.5944C263.886 42.989 262.927 43.6366 262.145 44.4802L261.997 44.6326L261.955 44.7007L261.723 45.0925C261.676 45.2068 261.618 45.3184 261.552 45.4218C261.657 45.6423 261.765 45.8382 261.871 46.0559C262.624 47.7921 263.082 49.6481 263.227 51.5422C264.191 51.0088 265.219 50.6115 266.286 50.3611C268.646 49.8577 270.04 50.2523 270.063 50.5598C270.063 50.9516 268.767 51.3027 266.9 52.247C265.567 52.9192 264.357 53.8308 263.335 54.9412C263.204 58.5714 262.577 62.1635 261.467 65.6086C260.287 69.2906 258.454 72.4909 256.992 76.0425C252.152 87.6246 259.942 91.0564 265.817 96.5998C267.64 95.7861 269.415 94.8582 271.128 93.8186C268.825 93.7533 266.57 93.1464 264.529 92.0442L263.678 91.5163H263.68C263.499 91.4211 263.327 91.304 263.172 91.1652L262.877 90.8795C262.437 90.5203 262.031 90.1148 261.668 89.6766C261.265 89.1269 260.862 88.5799 260.503 88.0329C260.271 87.505 260.034 86.977 259.782 86.4763H259.779C259.086 84.7237 258.657 82.8732 258.507 80.99C258.23 77.8577 258.612 75.9691 259.078 75.9283C259.544 75.8848 260.116 77.7054 260.967 80.4675V80.4648C261.433 82.0296 262.037 83.5481 262.772 84.9986C262.985 85.3959 263.196 85.766 263.409 86.1606C263.657 86.4464 263.886 86.7511 264.086 87.075C264.439 87.4505 264.813 87.8016 265.211 88.1281L265.488 88.3676C265.561 88.4003 265.63 88.4357 265.698 88.4765L266.288 88.8275C267.924 89.6929 269.7 90.2345 271.528 90.4277C273.225 90.7135 274.818 90.825 276.217 90.9557C276.62 90.757 277.047 90.5393 277.469 90.3651C278.42 89.9188 279.415 89.5814 280.437 89.3555C279.452 88.2261 278.391 87.173 277.258 86.2015C274.871 84.2775 272.719 82.0623 270.848 79.6022C269.56 77.8115 268.838 75.6507 268.783 73.4219C268.867 71.9524 269.144 71.2095 269.334 71.1877C269.587 71.1877 269.758 72.0205 270.077 73.3567H270.079C270.609 75.1146 271.515 76.7257 272.735 78.07C274.76 80.1301 276.955 82.0078 279.292 83.6788C280.759 84.8109 282.129 86.0709 283.385 87.4479C283.443 87.5322 283.507 87.6139 283.575 87.6901C283.383 80.8894 281.807 74.2061 278.952 68.0747C276.618 62.7463 275.069 59.4151 275.535 59.1323C275.938 58.8874 278.209 61.7176 281.199 66.8883C281.878 68.2054 282.674 69.6504 283.427 71.2506C284.199 72.9923 284.874 74.7775 285.443 76.6008C286.478 79.7385 287.05 83.0178 287.139 86.3326C287.205 86.0686 287.268 85.8264 287.332 85.5651C288.812 80.0816 289.455 74.3968 289.239 68.7092C289.052 65.6994 288.377 62.744 287.245 59.9654L286.378 58.1666C285.472 56.6589 284.402 55.2629 283.193 54.0029C281.994 52.8435 280.696 51.804 279.313 50.8924C278.275 50.1903 277.743 49.6732 277.837 49.4664C277.932 49.2595 278.665 49.2922 279.874 49.5752H279.871C281.654 50.0433 283.333 50.8625 284.813 51.9863C285.867 52.7674 286.826 53.6736 287.679 54.6832C288.159 55.2356 288.612 55.8126 289.036 56.414C289.421 57.0726 289.824 57.7502 290.216 58.4523C291.707 61.5846 292.592 64.9863 292.827 68.4697C293.114 74.6172 292.055 80.7513 289.729 86.4172C288.991 88.3004 288.043 90.0883 286.905 91.7456C286.823 92.4886 286.736 93.2696 286.652 93.9799L286.631 94.1567C286.712 95.1419 286.686 96.1324 286.554 97.1121L286.554 97.1128ZM281.272 166.649C283.666 147.226 295.847 123.338 283.88 106.174C283.561 106.92 283.29 107.622 282.995 108.259C281.754 111.593 279.525 114.436 276.633 116.39C274.644 117.484 272.513 118.282 270.308 118.755C270.331 118.984 270.326 119.212 270.289 119.436C268.519 131.339 261.272 137.497 252.339 144.311C240.139 153.648 226.18 164.3 220.218 179.251C230.192 177.253 235.432 166.319 244.257 161.573C246.955 158.922 249.815 156.029 252.7 152.894L252.698 152.897C258.038 146.907 262.919 140.499 267.3 133.73C270.566 128.38 272.582 125.008 273.05 125.269C273.451 125.49 272.263 129.232 269.528 134.957C265.666 142.359 260.906 149.223 255.366 155.378C253.988 156.848 252.632 158.249 251.27 159.585C252.123 159.846 252.816 160.491 253.158 161.34C260.714 166.503 272.445 166.087 281.273 166.647L281.272 166.649ZM281.122 96.2085C281.23 95.6941 281.301 95.1744 281.335 94.6491C279.114 95.3812 277.017 96.4616 275.118 97.8603C274.233 98.3638 273.348 98.87 272.462 99.3516V99.3489C272.797 99.6918 273.071 100.092 273.271 100.533C273.677 102.046 273.548 103.66 272.905 105.083L272.823 105.322L272.8 105.39V105.388L272.718 105.583L272.652 105.692L272.439 106.109C272.212 106.506 271.949 106.882 271.654 107.227C271.072 107.842 270.4 108.357 269.66 108.751C268.261 109.432 267.518 109.783 267.299 110.351C267.088 110.833 266.973 111.35 266.959 111.875C268.068 111.717 269.114 111.255 269.994 110.542C271.216 109.633 272.283 108.523 273.155 107.252C274.725 105.061 274.786 103.439 275.276 103.349C275.445 103.306 275.763 103.766 275.848 104.664L275.85 104.666C275.924 105.943 275.682 107.216 275.147 108.37C274.48 109.948 273.521 111.377 272.325 112.577C272.918 112.343 273.474 112.025 273.982 111.636C276.388 109.693 278.126 107.004 278.948 103.964C279.849 101.43 280.574 98.8343 281.122 96.1948L281.122 96.2085ZM279.32 303.927C276.659 302.833 274.059 301.589 271.533 300.199C267.523 297.964 263.321 295.398 258.78 292.748L258.782 292.745C250.787 288.429 243.48 282.869 237.12 276.262C235.231 274.117 233.698 271.668 232.579 269.01C231.92 267.126 231.815 266.03 232.028 265.94C232.241 265.853 232.834 266.797 233.854 268.438C235.35 270.612 237.057 272.624 238.943 274.447C245.598 280.276 252.847 285.338 260.564 289.545C264.66 291.913 268.529 294.367 272.044 296.555C263.187 289.515 255.089 281.503 247.897 272.667C233.811 256.412 218.168 241.671 201.209 228.671C195.258 239.935 190.935 252.036 188.372 264.593C186.185 277.326 185.379 290.195 183.216 302.948C183.427 302.817 183.617 302.708 183.83 302.575C185.442 301.609 187.118 300.76 188.846 300.033C189.837 299.63 190.851 299.293 191.883 299.026C192.953 298.735 194.036 298.501 195.129 298.324C197.439 298.079 199.763 297.957 202.086 297.951C204.214 298.011 206.319 297.497 208.198 296.463C208.862 295.995 209.425 295.388 209.849 294.686C209.33 294.315 208.838 293.907 208.374 293.466C207.265 292.519 206.483 291.227 206.148 289.782C205.951 288.802 206.164 287.781 206.738 286.976C207.199 286.315 207.824 285.789 208.543 285.452C209.099 285.193 209.683 285.003 210.281 284.883L210.642 284.796L210.985 284.728H211.217L212.102 284.706C214.085 284.913 216.006 285.534 217.747 286.535C219.294 287.346 220.632 288.157 221.838 288.881C223.68 290.021 225.619 290.982 227.634 291.752C228.969 292.212 229.944 292.321 229.902 292.585C229.86 292.783 229.117 293.153 227.376 293.045C225.092 292.762 222.868 292.087 220.8 291.05C219.483 290.484 218.087 289.803 216.599 289.167C215.326 288.639 212.502 286.728 211.145 287.237V287.234C210.521 287.724 209.957 288.29 209.47 288.924C209.449 289.033 209.428 288.946 209.491 289.145C209.747 289.793 210.163 290.359 210.7 290.786C211.425 291.425 212.218 291.978 213.061 292.432L214.483 293.219L213.869 294.743C213.129 296.689 211.844 298.359 210.176 299.543C207.75 300.958 204.994 301.655 202.21 301.557C199.747 301.603 197.518 301.492 195.524 301.688C192.827 302.014 190.182 302.7 187.655 303.729C218.216 303.693 248.809 302.227 279.319 303.914L279.32 303.927ZM269.857 103.781C270.223 103.101 270.434 102.342 270.471 101.563C270.408 101.498 270.516 101.411 270.281 101.302C270.021 101.15 269.731 101.06 269.433 101.041H269.22C268.134 101.566 267.023 102.034 265.89 102.442C265.379 102.644 264.818 102.657 264.299 102.486C259.839 106.568 255.047 110.25 249.976 113.488C250.566 118.131 250.83 122.812 250.761 127.493C253.559 124.222 256.573 121.152 259.778 118.311C261.327 117.04 262.834 116.482 263.319 114.389V114.386C263.364 112.43 263.635 110.487 264.125 108.595C264.602 107.686 265.318 106.935 266.19 106.427C266.954 105.988 267.592 105.724 268.079 105.485C268.48 105.308 268.851 105.071 269.183 104.78C269.288 104.606 269.331 104.715 269.523 104.388L269.755 103.996C269.792 103.953 269.857 103.781 269.857 103.781L269.857 103.781ZM264.807 119.826C259.167 123.266 254.944 129.797 250.232 134.225V134.222C250.034 134.399 249.813 134.538 249.573 134.641C247.834 139.518 242.197 142.838 238.309 145.557V145.554C234.178 148.708 229.663 151.28 224.879 153.206C226.509 154.257 228.145 155.31 229.821 156.319C232.113 154.017 234.51 151.848 236.973 149.766C247.344 140.974 261.604 134.07 264.807 119.824L264.807 119.826ZM257.85 55.8199V55.8171C257.379 53.8605 257.142 51.8521 257.147 49.8356C253.817 39.293 239.939 43.699 230.564 43.8731C224.863 44.3711 219.168 42.8471 214.418 39.5543C208.773 45.7563 198.844 52.4838 196.976 60.5059C195.62 66.2725 198.378 72.5618 198.609 78.4152C198.615 78.5893 198.607 78.7662 198.588 78.9404C198.594 79.4357 198.475 79.9283 198.251 80.3664C195.501 85.2186 193.791 90.6234 193.235 96.2156C193.588 96.3952 193.878 96.6864 194.06 97.0483C194.421 97.7287 194.824 98.3627 195.24 98.9777C195.303 98.8689 195.367 98.7573 195.43 98.673C196.868 96.8796 198.415 95.1815 200.056 93.5867C200.627 92.9771 201.286 91.9865 201.858 91.2409C202.429 90.4953 203.006 89.7169 203.452 89.0067C204.326 87.7984 204.998 86.4513 205.446 85.0171C205.58 84.4321 205.678 83.8388 205.741 83.2428C205.786 82.6931 205.72 82.1869 205.72 81.7188C205.728 81.2834 205.678 80.848 205.572 80.4262C205.506 80.0289 205.446 79.705 205.422 79.4166C205.359 78.8913 205.38 78.5838 205.506 78.5376C205.699 78.494 206.418 79.3513 207.076 81.3868L207.079 81.3895C207.242 81.9909 207.369 82.6005 207.461 83.2183C207.49 83.9639 207.474 84.7123 207.416 85.4552C207.116 87.2105 206.497 88.8896 205.593 90.4081C205.169 91.2871 204.616 92.0518 204.118 92.9063C203.544 93.7798 203.141 94.5282 202.348 95.5569C200.872 97.3857 199.292 98.8878 198.125 100.64L198.127 100.643C197.89 101.008 197.693 101.397 197.537 101.805C202.78 107.109 210.354 108.426 218.438 108.293C218.409 108.002 218.343 107.713 218.246 107.438C217.906 106.606 217.44 105.835 216.865 105.158C216.325 104.507 215.706 103.933 215.021 103.452C214.547 103.095 213.989 102.886 213.407 102.842L212.05 103.019L211.858 101.835C211.568 99.9737 211.605 98.0742 211.963 96.2237C212.213 94.8984 212.532 93.5867 212.919 92.2995C213.533 90.2422 213.918 89.1237 214.171 89.1237C214.423 89.1237 214.51 90.4163 214.321 92.5853C213.984 95.0971 213.933 97.6443 214.171 100.167C214.961 100.268 215.722 100.521 216.42 100.915C217.408 101.487 218.309 102.205 219.094 103.049C219.945 103.961 220.643 105.011 221.159 106.159C221.425 106.799 221.602 107.468 221.692 108.157C230.496 107.675 239.576 105.92 246.623 106.097C247.05 106.116 247.464 106.268 247.803 106.535C248.76 106.728 249.466 107.566 249.524 108.571V108.66C253.565 105.882 257.432 102.848 261.104 99.5711C255.08 93.9379 249.598 90.0163 250.048 80.5242C250.464 71.7803 257.532 64.9606 257.858 55.8196L257.85 55.8199ZM244.926 123.898C245.545 122.208 245.777 120.392 245.606 118.594C245.585 118.289 245.543 117.984 245.524 117.652H245.522C244.373 118.765 243.035 119.649 241.575 120.256C239.062 121.315 236.375 121.854 233.665 121.848C229.35 121.865 225.048 121.353 220.848 120.324C217.329 119.535 214.571 118.724 212.682 118.191C210.794 117.657 209.711 117.296 209.753 117.051C209.795 116.806 210.88 116.7 212.875 116.876C214.869 117.053 217.732 117.426 221.255 117.886H221.252C225.311 118.512 229.418 118.741 233.518 118.566C238.015 118.368 243.041 116.738 245.101 112.253L245.502 111.338C245.48 111.034 245.459 110.748 245.438 110.459C237.738 110.438 228.529 112.081 219.68 112.367L219.683 112.37C219.409 112.509 219.127 112.628 218.834 112.721C218.141 112.917 217.43 113.028 216.711 113.05C215.399 113.083 214.085 112.996 212.788 112.784C211.037 112.517 209.306 112.122 207.609 111.602C202.104 110.724 197.061 107.896 193.352 103.602C193.394 112.106 192.907 121.182 195.747 129.159C199.927 140.909 206.61 146.431 217.409 149.884H217.411C219.295 149.958 221.173 149.661 222.949 149.005C228.492 146.858 233.702 143.889 238.418 140.194C242.04 137.658 244.585 133.782 245.525 129.368L245.42 129.477L244.569 130.198L244.572 130.201C243.961 130.71 243.307 131.167 242.62 131.559C241.324 132.365 239.935 133.004 238.489 133.467H238.468C236.216 135.486 233.739 137.225 231.092 138.648C226.65 140.866 221.824 142.148 216.898 142.42C213.228 142.442 210.997 141.982 210.957 141.506C210.912 140.956 213.186 140.474 216.705 139.797C221.113 138.806 225.399 137.307 229.479 135.326C229.671 135.217 229.842 135.105 230.03 134.996C227.801 135.149 225.701 135.127 223.812 135.105C219.698 134.953 216.41 134.623 214.139 134.384C211.866 134.142 210.651 133.94 210.651 133.676C210.651 133.412 211.926 133.151 214.192 132.974C216.457 132.797 219.798 132.713 223.825 132.514C228.335 132.422 232.811 131.69 237.129 130.343C238.446 129.311 239.676 128.329 240.714 127.45V127.453C242.003 126.127 243.415 124.938 244.927 123.901L244.926 123.898ZM226.022 160.35C223.688 158.927 221.378 157.465 219.086 155.966C218.828 155.969 218.572 155.939 218.322 155.879C212.914 154.526 207.759 152.262 203.064 149.173C202.456 156.263 201.091 163.259 198.994 170.038C204.447 172.522 209.705 175.448 214.713 178.787C217.321 171.959 221.16 165.703 226.023 160.35H226.022ZM198.077 146.104H198.079C198.116 145.745 198.216 145.396 198.374 145.072C196.206 142.729 194.447 140.016 193.174 137.052C188.891 127.212 188.38 117.437 188.159 107.112C184.452 110.168 181.054 113.602 178.019 117.369C173.986 123.179 169.383 129.866 167.961 137.074C174.581 138.718 180.543 142.639 187.481 142.816V142.813C188.569 142.802 189.539 143.521 189.876 144.588C190.237 144.95 190.482 145.418 190.579 145.927C191.873 152.371 194.204 158.641 194.929 165.172C196.509 158.921 197.563 152.542 198.079 146.104L198.077 146.104ZM193.775 174.273C193.598 174.167 193.435 174.042 193.285 173.9C191.114 173.154 188.896 172.575 186.644 172.169C179.9 170.985 173.13 170.218 166.467 168.729C169.47 170.553 172.039 173.054 173.975 176.044C180.451 175.451 187.365 175.538 193.775 174.273L193.775 174.273ZM195.25 228.85C185.384 229.639 175.777 230.679 169.876 220.215C167.181 219.689 164.76 218.174 163.066 215.948C162.771 215.509 162.476 215.09 162.181 214.674L162.136 214.59L161.925 214.304V214.282L161.881 214.214L161.775 213.975L161.562 213.539L161.565 213.536C161.404 213.215 161.262 212.886 161.138 212.549C161.032 212.176 160.906 211.868 160.822 211.452C160.756 211.101 160.716 210.772 160.671 210.42C159.66 210.396 158.661 210.181 157.721 209.786C157.118 209.561 156.559 209.226 156.067 208.799C155.793 208.6 155.535 208.371 155.303 208.121C155.045 207.811 154.81 207.481 154.602 207.136C154.389 206.806 154.199 206.455 154.012 206.085V206.083C153.922 205.889 153.851 205.685 153.801 205.473L153.632 204.923L153.527 204.64L153.506 204.572V204.55L153.377 203.982L153.356 203.938C144.065 203.28 138.461 194.206 146.738 186.565C146.483 186.151 146.248 185.71 146.017 185.294L146.014 185.296C143.164 185.462 140.305 185.114 137.571 184.265C139.459 192.902 139.523 201.516 141.156 210.393C143.003 220.476 145.698 230.338 147.797 240.38C152.339 262.208 153.016 284.477 166.725 302.911C168.018 303.132 169.312 303.327 170.584 303.502C172.984 303.434 175.381 303.371 177.797 303.371C180.368 288.969 180.642 274.111 183.95 259.865C186.601 249.124 190.384 238.717 195.236 228.83L195.25 228.85ZM189.76 167.035C188.851 160.628 187.46 154.304 185.603 148.119C178.324 147.264 172.237 142.883 164.95 141.982C163.633 141.827 162.126 140.863 162.276 139.263L162.279 139.266C163.614 130.955 166.989 123.14 172.078 116.559C174.117 113.214 176.541 110.139 179.294 107.396C180.99 105.905 182.771 104.571 184.428 103.08C175.898 106.082 166.989 108.515 159.286 113.095C148.749 119.365 144.188 128.503 137.774 138.256C138.198 139.002 138.454 139.726 138.791 140.472C139.044 141.214 139.257 141.938 139.471 142.662L139.576 143.035L139.621 143.275L139.726 143.756L139.916 144.698C140.042 145.335 140.192 145.917 140.279 146.584C140.364 147.25 140.448 147.985 140.511 148.666V148.668C140.664 149.964 140.693 151.27 140.596 152.568C140.553 153.205 140.553 153.787 140.469 154.397C140.385 155.006 140.237 155.559 140.108 156.128C139.982 156.696 139.855 157.246 139.747 157.774L139.702 157.97C139.684 158.027 139.671 158.087 139.663 158.147C139.642 158.182 139.629 158.218 139.621 158.256L139.494 158.585L139.239 159.219C138.849 160.182 138.354 161.094 137.764 161.938C137.658 162.112 137.532 162.267 137.424 162.419C138.867 162.18 140.329 161.981 141.794 161.829H141.792C142.2 161.671 142.64 161.633 143.067 161.72C143.604 161.666 144.141 161.823 144.571 162.158C147.476 162.64 150.493 163.168 153.462 163.824C155.396 158.642 162.97 162.3 166.739 163.102C174.34 164.732 182.148 165.26 189.761 167.035L189.76 167.035ZM167.884 176.856C162.689 170.915 154.033 169.236 146.345 167.976C147.663 173.237 148.045 178.979 150.929 183.387H150.932C156.135 180.127 161.888 177.912 167.887 176.856H167.884ZM146.478 304.681C150.487 304.419 154.497 304.156 158.506 303.938C151.294 295.368 147.589 284.63 141.32 275.333C134.768 265.623 126.62 257.204 120.253 247.423C120.016 247.456 119.774 247.456 119.534 247.423C119.913 248.234 120.319 249.154 120.743 250.251C122.487 255.4 123.731 260.717 124.455 266.119C125.34 272.28 126.152 277.845 126.747 281.875C127.445 285.865 127.851 288.385 127.361 288.581C126.915 288.755 125.664 286.477 124.308 282.51C122.756 277.342 121.618 272.048 120.912 266.685C119.979 260.505 119.11 254.98 118.346 251.081C118.262 250.683 118.198 250.313 118.114 249.941C117.882 250.292 117.69 250.621 117.434 250.972C117.622 253.154 117.516 255.356 117.121 257.511C116.499 260.875 115.166 264.056 113.217 266.827C110.793 269.989 108.093 272.917 105.153 275.573C100.161 280.665 94.6394 285.168 88.6912 289.008C86.8367 290.184 84.8372 291.096 82.7482 291.724C81.2439 292.141 80.4141 292.075 80.3325 291.858C80.2271 291.594 81.0121 291.177 82.2608 290.388V290.391C83.9969 289.302 85.6697 288.118 87.2766 286.839C92.6428 282.464 97.7823 277.802 102.682 272.876C105.477 270.367 108.109 267.667 110.559 264.796C112.403 262.448 113.8 259.759 114.677 256.872C115.061 255.557 115.357 254.352 115.562 253.279C101.94 268.753 65.4486 282.408 57.0665 267.436H57.0639C57.2509 271.594 57.733 275.733 58.5075 279.818C59.6324 285.102 61.1629 289.791 62.1772 293.256C63.2809 296.717 63.8105 298.973 63.3573 299.172C62.9042 299.371 61.5871 297.528 59.8747 294.295H59.8773C57.6908 289.952 56.0575 285.331 55.0196 280.552C54.2793 276.813 54.0001 272.992 54.1924 269.18C49.5296 274.113 44.4454 278.603 39.0004 282.59C30.149 289.625 22.4305 298.086 13.8186 305.472C26.632 307.641 40.8078 306.351 53.5996 307.072C67.9831 307.861 82.3692 307.861 96.7763 307.641C112.095 307.401 127.33 306.087 142.561 304.968C142.688 304.922 142.793 304.86 142.922 304.816H142.92C140.596 298.317 137.846 291.988 134.687 285.875C132.227 280.879 130.891 277.831 131.25 277.613C131.61 277.393 133.541 280.071 136.534 284.781H136.537C140.583 290.994 143.921 297.672 146.481 304.677L146.478 304.681ZM144.059 269.831L144.062 269.829C146.522 273.598 148.775 277.506 150.809 281.536C147.816 271.299 146.243 260.535 144.146 249.427C142.447 240.394 140.05 231.517 138.077 222.553C133.606 225.939 128.045 227.414 122.548 226.674C121.989 231.352 121.955 236.081 122.44 240.767C128.572 251.31 137.229 259.724 144.062 269.829L144.059 269.831ZM143.97 179.836C143.156 175.637 142.091 171.495 140.787 167.432C138.519 167.715 136.246 168.134 134.002 168.594C134.023 169.274 134.068 169.954 134.149 170.654V170.651C134.231 170.92 134.265 171.203 134.255 171.484C134.429 173.664 135.285 175.726 136.694 177.356C138.712 179.139 141.325 180.029 143.97 179.836L143.97 179.836ZM136.889 216.716C136.57 215.094 136.299 213.472 136.038 211.839C134.594 202.851 134.383 193.857 132.326 185.018C129.739 197.228 125.411 209.096 123.309 221.247C127.466 221.424 132.75 221.247 135.337 217.764H135.34C135.724 217.252 136.262 216.885 136.868 216.721L136.889 216.716ZM127.679 181.787C121.251 182.838 119.447 180.209 115.479 174.246C107.632 162.36 93.9885 157.679 80.5796 157.328C80.4057 157.325 80.2345 157.303 80.0685 157.26C73.7698 162.958 83.5512 170.145 86.6886 175.887V175.89C89.1254 180.193 90.8878 184.868 91.9099 189.742C99.7389 183.319 109.18 177.515 116.523 188.011C119.726 192.613 118.027 200.415 116.968 205.414C115.951 210.19 113.912 216.081 115.611 220.909C116.183 222.553 116.862 224.175 117.521 225.786C119.386 210.936 125.008 196.754 127.679 181.787L127.679 181.787ZM118.111 124.756C118.135 124.133 117.963 123.518 117.626 123.001L117.036 122.236L116.889 122.059L116.846 121.991L116.591 121.751C116.23 121.4 115.911 121.03 115.532 120.72L115.529 120.723C113.303 118.948 110.724 117.708 107.977 117.084C108.954 118.524 109.765 120.075 110.392 121.708C111.454 124.535 111.625 126.462 110.817 127.058C110.008 127.651 108.269 126.62 106.214 124.647C105.258 123.703 104.115 122.587 102.863 121.338C102.568 121.052 102.247 120.769 101.949 120.459C101.633 120.198 101.335 119.931 100.996 119.67C100.748 119.422 100.469 119.21 100.166 119.036C100.042 118.948 99.9208 118.85 99.8075 118.75L99.6389 118.597C99.5546 118.529 99.4018 118.489 99.2991 118.42C98.8301 118.181 98.3849 117.961 97.9398 117.74L97.8765 117.697L97.3813 117.582C96.6252 117.424 95.8613 117.316 95.092 117.253C93.6959 117.122 92.2918 117.071 90.8903 117.101C90.424 117.101 90.0051 117.122 89.6389 117.144C89.7654 117.299 89.9129 117.473 90.0393 117.626H90.042C91.2959 119.264 92.2917 121.101 92.9924 123.063C94.1384 126.329 94.0514 128.549 93.1847 128.979C92.2706 129.418 90.7217 127.994 88.6642 125.804C87.6474 124.707 86.4777 123.436 85.2053 122.274C83.9593 121.022 82.5078 120.012 80.9192 119.291C79.3149 119.006 77.6737 119.03 76.0799 119.359C74.1911 119.444 72.4735 119.512 71.0325 119.555C70.6716 119.577 70.3107 119.577 69.9945 119.602L69.9919 119.599C71.6384 120.829 73.0346 122.377 74.1094 124.157C74.9761 125.589 75.4635 127.232 75.5188 128.92C75.4371 130.139 75.1183 130.781 74.6336 130.893C73.6168 131.113 72.513 129.249 70.2079 127.494C67.1705 125.199 63.6642 123.654 59.9578 122.981C56.8256 122.369 53.6064 122.421 50.4954 123.134C52.0207 123.564 53.5091 124.114 54.9501 124.778C59.8948 127.216 62.2052 129.774 61.7601 130.629C61.2728 131.57 58.1353 130.694 53.3801 129.75C52.574 129.597 51.7047 129.488 50.7932 129.358V129.36C51.3939 129.728 51.9207 130.209 52.3422 130.784C53.0693 131.742 53.425 132.944 53.3407 134.161C53.2116 134.882 52.9771 135.255 52.7506 135.277C52.524 135.298 52.2632 134.926 51.9655 134.313C51.5888 133.652 51.0988 133.064 50.5219 132.583C48.259 131.361 45.5983 131.184 43.2034 132.101C41.5358 132.52 39.979 133.312 38.6407 134.422C38.6407 134.466 38.5143 134.882 38.5143 134.882C38.5196 134.934 38.5117 134.985 38.4932 135.034C38.4642 135.083 38.43 135.127 38.3878 135.165C38.3878 135.364 38.43 135.625 38.4511 135.845C38.0506 135.625 39.3204 137.369 40.2978 138.433H40.2951C41.2119 139.495 42.1813 140.504 43.2034 141.457C43.3536 141.587 43.3536 141.718 43.5644 141.895L44.0543 142.156L44.2862 142.287L44.3072 142.134V142.137C44.3994 142.14 44.4916 142.132 44.5838 142.115C45.0712 141.985 45.6007 141.811 46.1091 141.634C46.9653 141.098 47.8952 140.7 48.8672 140.447C48.9779 140.423 49.0912 140.406 49.2071 140.406C49.5654 140.194 49.9737 140.08 50.3873 140.077C53.9516 139.903 57.5817 139.487 61.2066 139.163C62.3999 139.193 63.5907 138.986 64.7076 138.553C65.6191 138.025 66.1064 136.996 66.9547 136.273H66.9573C67.2919 136.039 67.5448 135.701 67.6791 135.307C67.7687 134.838 67.7081 134.354 67.5079 133.924C67.0363 132.819 66.4067 131.791 65.6401 130.876C64.3045 129.167 63.2798 128.204 63.4984 127.763C63.7171 127.325 65.2397 127.586 67.2761 129.056V129.058C68.5458 129.937 69.6075 131.107 70.3741 132.476C70.9721 133.486 71.2197 134.678 71.0722 135.851C71.0117 136.311 70.8773 136.757 70.6718 137.168C70.9879 137.32 71.3067 137.473 71.6465 137.606C74.1307 137.342 76.7387 137.1 79.4337 136.86H79.4311C80.4032 135.766 81.1909 134.517 81.7651 133.157C82.184 131.869 82.1682 130.473 81.723 129.194C81.4701 128.669 81.2567 128.163 81.0644 127.67C80.8115 127.21 80.5981 126.816 80.4058 126.487C80.0659 125.806 79.9395 125.39 80.087 125.267C80.2345 125.145 80.6191 125.311 81.2145 125.774L81.2172 125.776C81.5886 126.04 81.9442 126.332 82.2762 126.65C82.6371 127.088 83.0612 127.638 83.5064 128.272C83.9332 129.031 84.2493 129.853 84.4416 130.71C84.5364 131.214 84.5996 131.722 84.6312 132.234L84.4416 133.878C84.2124 134.779 83.8778 135.647 83.4431 136.463C86.902 136.112 90.4663 135.696 94.0648 135.124V135.127C94.9552 134.667 95.7824 134.093 96.5305 133.415C98.1875 132.063 98.9752 129.864 98.5642 127.719C98.1849 126.111 97.5395 124.584 96.657 123.202C96.0195 122.13 95.6797 121.493 95.8483 121.297C96.0169 121.101 96.6991 121.403 97.6949 122.26C99.2044 123.496 100.35 125.142 101.006 127.014C101.491 128.438 101.581 129.973 101.259 131.445C101.072 132.332 100.735 133.178 100.261 133.943C100.706 133.856 101.172 133.766 101.596 133.657C103.124 133.219 104.61 132.803 106.075 132.386C107.645 131.777 109.17 131.203 110.677 130.612H110.68C111.947 130.141 113.161 129.54 114.31 128.813C115.327 128.206 116.259 127.461 117.089 126.601C117.597 126.106 117.956 125.463 118.111 124.756L118.111 124.756ZM116.931 236.23C116.91 235.503 116.931 234.804 116.954 234.096C116.865 233.987 116.791 233.862 116.744 233.726C113.899 225.801 110.801 220.182 111.883 212.004C111.312 212.51 110.703 212.992 110.142 213.452L109.505 213.98V213.977C109.223 214.186 108.925 214.377 108.619 214.548C108.053 214.872 107.447 215.123 106.817 215.291C105.772 215.558 104.71 215.732 103.638 215.819C103.214 215.885 102.703 215.928 102.405 216.015L102.402 216.012C102.002 216.078 101.609 216.197 101.238 216.363C100.653 216.617 100.15 217.041 99.7943 217.583C99.2385 218.361 98.5667 219.041 97.8002 219.599C97.0546 220.048 96.2222 220.318 95.3608 220.388C94.9472 220.361 94.5362 220.312 94.1305 220.236C93.7591 220.097 93.4035 219.923 93.0689 219.708C92.5605 219.313 92.1442 218.805 91.8597 218.217C91.0141 216.181 91.3091 215.103 91.4804 215.063C91.757 214.954 92.052 216.135 93.0294 217.452H93.0267C93.5115 218.143 94.336 218.483 95.1474 218.326C95.6874 218.195 96.1906 217.942 96.6226 217.583C97.0573 217.101 97.4445 216.57 97.7712 216.004C98.3533 215.019 99.2016 214.235 100.211 213.746C101.159 213.283 102.168 212.967 103.203 212.804C104.128 212.662 105.039 212.461 105.938 212.194C106.317 212.058 106.678 211.881 107.02 211.666C107.186 211.574 107.342 211.462 107.487 211.337L108.124 210.793C108.98 210.107 109.781 209.353 110.521 208.534C110.885 208.142 111.243 207.745 111.625 207.35C111.902 206.934 112.215 206.493 112.51 206.079C112.703 205.62 112.724 205.334 112.895 204.939C112.958 204.411 113.064 203.93 113.127 203.339C113.169 202.681 113.19 202.221 113.274 201.388C113.359 200.751 113.422 200.139 113.551 199.458V199.461C114.112 197.238 114.149 194.908 113.656 192.666C113.172 190.867 111.923 189.392 110.261 188.655C109.844 188.478 109.42 188.323 108.986 188.195L108.33 188.04L107.99 187.974L107.84 187.928L107.798 187.906L107.776 187.841L107.779 187.844C106.978 187.754 106.169 187.865 105.419 188.17C103.941 188.788 102.608 189.73 101.515 190.932C99.7548 192.835 98.1373 194.87 96.6805 197.028C95.5978 198.552 94.9102 199.393 94.6863 199.262C94.4624 199.132 94.7495 198.1 95.4924 196.326H95.4898C96.5435 193.754 97.945 191.349 99.6468 189.18C100.4 188.301 101.283 187.547 102.26 186.946C98.5509 189.049 95.1102 191.618 92.0127 194.593C91.0775 195.382 89.1281 195.319 88.9147 193.738C87.8346 184.608 83.7962 176.123 77.4581 169.66C76.0355 168.321 73.3274 166.612 72.7663 164.479C71.6019 160.138 74.7 156.391 78.1351 153.89V153.893C78.1957 153.626 78.2879 153.367 78.4117 153.125C78.5013 152.66 78.7147 152.227 79.0282 151.876C80.8722 149.617 83.4196 146.485 79.4497 145.323C75.9697 144.428 72.382 144.071 68.8017 144.27C62.7954 144.403 56.8548 145.236 50.8723 145.544C50.6905 145.641 50.4982 145.715 50.298 145.759C44.5261 147.228 41.1519 158.668 38.5649 163.491V163.493C37.0949 165.641 35.7409 167.869 34.508 170.169C34.4659 170.4 34.3868 170.623 34.2762 170.825C33.9021 171.756 33.8284 172.787 34.0628 173.764C34.8057 176.238 35.8331 178.608 36.8209 180.997C37.772 182.279 38.3462 183.817 38.4753 185.425C38.5675 186.957 38.1407 188.478 37.2661 189.719C36.9078 190.598 36.46 191.437 35.9305 192.22C35.0111 193.584 33.9573 194.849 32.7877 195.989C32.5348 196.403 32.2608 196.822 31.9816 197.26C30.0084 200.308 25.9568 208.81 32.0474 209.118C32.7034 209.055 33.362 209.041 34.0179 209.074C34.5738 209.093 35.127 209.15 35.6723 209.248C36.2624 209.403 36.9025 209.599 37.5611 209.817C38.5174 210.146 39.5791 210.867 39.8741 210.935C39.9189 210.867 39.7898 210.957 39.9584 210.848C39.8925 210.979 40.8909 210.168 40.7856 210.239C41.6339 209.441 41.9553 208.211 41.6154 207.082C41.3257 205.972 40.7382 204.968 39.9189 204.189C39.4737 203.721 38.8916 203.422 38.2646 203.335C38.0723 203.226 37.7535 203.487 37.5612 203.531C37.4137 203.607 37.2372 203.599 37.0949 203.509C37.0027 203.376 36.9737 203.207 37.0106 203.049C37.0212 202.684 37.195 202.347 37.4795 202.135C38.5886 201.272 40.0981 201.204 41.2756 201.96C42.8799 202.818 44.1128 204.263 44.7345 206.015C45.1744 207.117 45.293 208.328 45.0743 209.501C44.832 210.794 44.2024 211.975 43.2698 212.876L43.0775 213.075L42.8641 213.27L42.7798 213.317L42.4637 213.556L42.1449 213.796C42.0185 213.883 41.7814 213.994 41.5943 214.1C40.7224 214.566 39.7055 214.653 38.7703 214.343C38.5807 214.258 38.3963 214.163 38.2197 214.054C37.5612 214.375 36.8683 214.609 36.1544 214.756C35.7145 214.871 35.2667 214.96 34.8188 215.02C34.3762 215.78 34.0074 216.58 33.715 217.41C34.0074 218.784 34.4025 220.131 34.8952 221.443C35.43 222.697 36.4205 223.688 37.6507 224.205C37.9062 224.3 38.1565 224.417 38.3936 224.556C38.6465 224.665 38.9047 224.73 39.1154 224.839C39.4948 225.059 39.7292 225.277 39.7503 225.541C39.7714 225.802 39.5369 226.047 39.1602 226.287C38.931 226.42 38.6886 226.532 38.4384 226.616C38.1223 226.681 37.7192 226.747 37.274 226.79H37.2714C36.4178 226.796 35.5749 226.616 34.7924 226.265C34.6528 226.406 34.5026 226.54 34.3446 226.657C32.5585 229.4 35.4036 232.159 38.1407 232.116H38.1433C38.8493 232.086 39.5342 232.366 40.0243 232.891C40.5142 233.417 40.7645 234.132 40.7092 234.859C40.7777 235.131 40.8145 235.411 40.8172 235.692C40.5669 240.876 42.7851 245.859 46.755 249.04C47.2687 249.043 47.7824 248.985 48.2829 248.866C50.5748 248.155 52.7191 247.01 54.6053 245.488C56.1754 244.305 57.216 243.475 57.6375 243.758C58.059 244.041 57.7218 245.467 56.4072 247.331L56.4099 247.328C55.069 249.192 53.2961 250.675 51.2545 251.647C52.677 252.218 54.1654 252.602 55.6802 252.787C56.3598 252.678 57.079 252.548 57.9089 252.414V252.417C62.5032 251.372 66.9315 249.66 71.0622 247.328C74.8978 245.026 78.2141 242.484 81.0149 240.446C82.1187 239.001 83.0802 237.621 83.9206 236.372C86.4469 232.581 87.7826 229.993 88.291 230.211C88.6756 230.341 88.2488 232.861 86.5734 236.633C87.6771 235.999 88.3753 235.719 88.5676 235.953C88.8626 236.35 87.3584 238.255 84.6634 240.993C84.3868 241.254 84.1128 241.542 83.8125 241.825V241.828C82.6192 243.719 81.2836 245.516 79.8241 247.197L81.1808 246.805C92.9139 243.102 104.076 236.965 116.531 236.524C116.647 236.407 116.781 236.309 116.924 236.23L116.931 236.23ZM94.1066 253.412C99.7124 251.33 110.869 248.898 113.393 242.28C103.696 243.466 94.9759 248.198 85.6402 251.135C81.5649 252.408 76.5595 252.934 71.8914 254.052L71.894 254.049C69.7549 255.345 67.4657 256.354 65.0793 257.051C64.5076 257.182 63.9544 257.291 63.4038 257.402C63.172 257.579 62.9165 257.707 62.6847 257.884C73.4722 263.365 83.2536 257.481 94.1073 253.413L94.1066 253.412ZM106.156 254.729C102.932 256.09 99.6649 257.168 96.9909 258.15C84.6833 262.752 73.3872 268.802 61.5145 263.432C66.5751 273.939 92.0996 265.555 106.164 254.738L106.156 254.729ZM30.7049 188.285H30.7075C31.3793 186.81 31.8508 185.248 32.1037 183.639C30.5784 179.78 27.649 174.895 28.816 170.685C28.8582 170.555 28.9214 170.4 28.9636 170.269C25.9498 165.776 23.1707 160.997 20.0333 156.635C16.6165 151.903 18.7371 164.944 19.0348 166.345H19.0375C19.7487 170.381 21.1054 174.264 23.0548 177.838C25.6918 180.475 27.9363 183.495 29.7171 186.805C30.0569 187.286 30.3967 187.768 30.7155 188.271L30.7049 188.285ZM27.0748 194.906C27.3066 194.514 27.52 194.117 27.7544 193.744H27.7571C27.4963 193.529 27.2723 193.267 27.0985 192.974C26.5268 192.032 25.9525 190.981 25.3598 189.926C23.9584 187.909 22.4541 185.963 21.0105 184.05C20.0569 185.844 19.5669 187.86 19.588 189.904C19.9778 194.233 23.4605 195.221 27.0852 194.892L27.0748 194.906Z" fill="#75CFB8"/>
<path d="M324.686 303.202C324.767 303.401 323.8 304.116 321.801 304.889C318.895 305.883 315.811 306.168 312.784 305.722C308.347 305.031 304.072 303.515 300.157 301.251C295.481 298.562 291.006 295.514 286.769 292.134C278.86 286.463 271.3 280.291 264.13 273.658C258.698 268.308 256.132 264.43 256.429 264.101C256.809 263.687 260.141 267.04 265.805 271.688C271.469 276.402 279.767 282.315 288.889 289.157V289.154C293.004 292.444 297.296 295.486 301.747 298.27C305.298 300.502 309.163 302.146 313.204 303.147C320.114 304.657 324.492 302.51 324.684 303.202L324.686 303.202Z" fill="#75CFB8"/>
<path d="M323.266 189.938C323.777 190.901 314.823 196.404 306.121 205.741C304.106 207.932 302.228 210.25 300.5 212.686C299.13 214.67 297.937 216.774 296.936 218.978C295.215 222.728 294.836 225.378 294.262 225.378C293.859 225.4 293.305 222.486 294.557 218.063C295.313 215.511 296.39 213.072 297.763 210.811C299.436 208.076 301.369 205.524 303.532 203.191C312.763 193.291 322.926 189.059 323.266 189.938L323.266 189.938Z" fill="#75CFB8"/>
<path d="M236.206 245.016C240.11 247.844 242.802 250.807 242.251 251.656C241.701 252.505 238.05 250.867 234.145 248.042C230.241 245.217 227.528 242.251 228.099 241.421C228.674 240.594 232.304 242.191 236.206 245.016Z" fill="#75CFB8"/>
<path d="M234.725 283.026C238.015 285.742 239.775 287.824 239.446 288.208C239.116 288.592 236.88 287.293 233.271 285.182C228.458 282.422 223.879 279.249 219.585 275.692C217.183 273.611 215.049 271.216 213.242 268.565C211.79 266.309 210.765 263.789 210.22 261.139C210.004 260.11 209.907 259.057 209.925 258.004C209.872 257.247 209.93 256.485 210.096 255.748C210.328 254.529 210.563 253.884 210.816 253.884C211.068 253.884 211.282 254.542 211.495 255.748C211.569 256.472 211.711 257.185 211.919 257.881C212.104 258.755 212.351 259.612 212.665 260.448C213.466 262.652 214.572 264.726 215.95 266.603C217.752 268.887 219.756 270.993 221.935 272.895C226.664 276.955 231.458 280.262 234.725 283.027L234.725 283.026Z" fill="#75CFB8"/>
<path d="M168.651 259.486L169.8 262.6L166.17 261.726C165.809 261.658 165.553 261.527 165.153 261.421L163.796 261.16L162.616 260.92L162.613 260.915C162.005 264.178 161.749 267.501 161.849 270.821C161.915 272.65 161.997 274.372 162.189 276.002C162.316 277.624 162.55 279.094 162.74 280.474C163.525 285.886 164.247 289.176 163.778 289.313C163.417 289.444 161.934 286.398 160.511 280.939C160.171 279.578 159.789 278.068 159.534 276.403L159.536 276.405C159.196 274.623 158.957 272.824 158.817 271.014C158.398 266.706 158.67 262.36 159.623 258.145L160.026 256.545L162.092 257.029C162.41 257.094 162.682 257.203 163.048 257.312L164.065 257.489C162.347 252.917 160.353 248.677 158.612 244.688H158.614C156.873 240.856 155.335 236.926 154.002 232.923C151.755 225.885 151.755 221.461 152.113 221.341C152.684 221.186 153.662 225.657 156.38 232.008C157.758 235.23 159.521 238.999 161.599 243.206C163.933 247.781 166.022 252.486 167.858 257.3C168.122 258.04 168.396 258.761 168.651 259.485L168.651 259.486Z" fill="#75CFB8"/>
<path d="M160.06 203.662V203.683C160.06 203.662 160.06 203.662 160.039 203.662H160.06Z" fill="#75CFB8"/>
<path d="M110.81 192.682C111.653 193.785 112.035 195.189 111.874 196.582C111.79 197.415 111.642 197.875 111.49 197.875C111.339 197.875 111.129 197.459 110.939 196.656C110.723 195.66 110.236 194.748 109.54 194.027C108.289 192.808 105.114 194.226 102.625 196.814C103.091 196.898 103.536 196.988 104.045 197.075H104.042C104.864 197.208 105.668 197.437 106.442 197.752C106.866 197.973 107.293 198.234 107.693 198.495V198.498C108.091 198.814 108.46 199.165 108.795 199.551C109.127 199.91 109.4 200.321 109.601 200.77L109.964 201.429C110.154 201.821 110.133 201.845 110.238 202.088C110.344 202.327 110.365 202.417 110.452 202.656C110.517 202.986 110.578 203.312 110.644 203.666C110.723 204.48 110.536 205.299 110.112 205.99C109.703 206.591 109.148 207.068 108.497 207.37C108.041 207.582 107.567 207.751 107.08 207.873C106.123 208.137 105.486 208.246 104.619 208.423L103.876 208.6L103.874 208.597C103.76 208.619 103.652 208.665 103.555 208.728C103.489 208.728 103.302 208.967 103.176 209.057L102.643 209.626L101.495 210.962H101.497C101.089 211.503 100.628 211.996 100.12 212.432C99.7746 212.736 99.39 212.987 98.9737 213.177C98.5048 213.365 98.0043 213.463 97.4985 213.463C97.0586 213.466 96.6212 213.389 96.205 213.242C96.0127 213.174 95.8204 213.155 95.6334 213.068L95.2487 212.891H95.2514C94.3715 212.456 93.6707 211.71 93.2756 210.791C92.8936 209.912 92.8409 208.918 93.1281 208.004L93.2335 207.677L93.381 207.392H93.3836C93.5101 207.119 93.676 206.869 93.8736 206.649C94.1792 206.33 94.5375 206.072 94.9326 205.878C95.3357 205.658 97.4589 205.157 97.5432 204.659C97.6275 204.267 97.2034 204.267 96.8636 204.156C95.1434 203.565 94.7983 202.665 95.7387 200.825L96.0785 200.145V200.147C96.4711 199.538 96.8952 198.953 97.3509 198.395C97.3509 198.349 98.5601 196.795 98.5601 196.795C100.17 194.713 102.246 193.072 104.609 192.013C105.654 191.553 106.779 191.322 107.917 191.336C109.016 191.368 110.059 191.853 110.81 192.683L110.81 192.682ZM104.277 206.249C105.826 205.857 107.865 204.888 106.782 202.896C106.782 202.874 106.569 202.523 106.569 202.523C106.442 202.303 106.376 201.973 106.165 201.843C105.212 200.264 102.33 200.463 99.5269 199.345C99.6955 199.41 96.8531 202.237 98.3177 202.719C98.8051 202.874 99.1871 202.567 99.5901 202.983H99.5875C99.9405 203.345 100.151 203.829 100.178 204.341C100.259 205.988 98.373 207.718 97.2271 208.352C96.3156 208.88 95.5938 209.669 96.529 210.611C97.3034 211.144 98.3176 211.128 99.0737 210.568C99.756 209.879 100.38 209.131 100.939 208.331C101.85 207.337 103.002 206.619 104.277 206.249L104.277 206.249Z" fill="#75CFB8"/>
<path d="M87.3868 206.749C87.811 206.947 87.7714 208.577 86.9653 211.089V211.086C85.7193 214.371 83.9306 217.403 81.6808 220.05C76.4622 226.122 71.0093 229.39 70.4138 228.666C69.7341 227.831 74.1072 223.297 78.9887 217.618C81.3491 214.725 83.338 212.006 84.6525 210.033C85.9881 207.932 86.9207 206.506 87.387 206.748L87.3868 206.749Z" fill="#75CFB8"/>
<path d="M64.2036 189.478C65.3838 191.758 65.8817 193.291 65.4786 193.598C65.0755 193.906 63.8453 192.852 62.1672 191.01C60.4496 189.214 58.35 186.561 55.7394 184.258H55.7368C53.4607 182.435 50.8896 181.039 48.1418 180.138C45.7419 179.635 44.214 179.131 44.2588 178.614C44.2798 178.133 45.8078 177.7 48.3104 177.542C51.8562 177.743 55.2492 179.09 58.0102 181.398C60.5207 183.69 62.6176 186.425 64.2035 189.478L64.2036 189.478Z" fill="#75CFB8"/>
</g>
<defs>
<filter id="filter0_di_302_2" x="0" y="0" width="374.059" height="329.909" filterUnits="userSpaceOnUse" color-interpolation-filters="sRGB">
<feFlood flood-opacity="0" result="BackgroundImageFix"/>
<feColorMatrix in="SourceAlpha" type="matrix" values="0 0 0 0 0 0 0 0 0 0 0 0 0 0 0 0 0 0 127 0" result="hardAlpha"/>
<feOffset dx="5" dy="5"/>
<feGaussianBlur stdDeviation="5"/>
<feComposite in2="hardAlpha" operator="out"/>
<feColorMatrix type="matrix" values="0 0 0 0 0 0 0 0 0 0 0 0 0 0 0 0 0 0 0.1 0"/>
<feBlend mode="normal" in2="BackgroundImageFix" result="effect1_dropShadow_302_2"/>
<feBlend mode="normal" in="SourceGraphic" in2="effect1_dropShadow_302_2" result="shape"/>
<feColorMatrix in="SourceAlpha" type="matrix" values="0 0 0 0 0 0 0 0 0 0 0 0 0 0 0 0 0 0 127 0" result="hardAlpha"/>
<feOffset dx="10" dy="10"/>
<feGaussianBlur stdDeviation="5"/>
<feComposite in2="hardAlpha" operator="arithmetic" k2="-1" k3="1"/>
<feColorMatrix type="matrix" values="0 0 0 0 0.830664 0 0 0 0 0.830664 0 0 0 0 0.830664 0 0 0 0.5 0"/>
<feBlend mode="normal" in2="shape" result="effect2_innerShadow_302_2"/>
</filter>
</defs>
</svg>
