<svg width="375" height="331" viewBox="0 0 375 331" fill="none" xmlns="http://www.w3.org/2000/svg">
<g filter="url(#filter0_d_118_152)">
<path d="M133.328 145.249L133.286 145.162C133.093 144.634 132.901 144.13 132.696 143.605V143.602C132.482 143.164 132.243 142.74 131.977 142.332C131.871 142.157 131.745 141.981 131.616 141.806C131.55 141.719 131.531 141.651 131.444 141.521L131.083 141.148C130.172 140.116 129.216 139.066 128.259 138.015C127.303 136.965 126.394 135.955 125.438 135.055H125.441C125.006 134.622 124.545 134.216 124.063 133.835C123.85 133.661 123.639 133.531 123.446 133.397C123.425 133.376 123.404 133.376 123.381 133.354H123.383C122.588 134.075 121.729 134.714 120.815 135.261C119.492 136.023 118.099 136.649 116.658 137.126C115.478 137.518 114.324 137.915 113.199 138.288C110.781 139.145 108.478 139.956 106.239 140.631C103.992 141.18 101.845 141.687 99.8534 142.155C99.3845 142.264 98.9182 142.329 98.452 142.394C98.3044 142.438 98.1569 142.462 98.0068 142.503C97.6459 142.571 97.3086 142.59 96.9451 142.655C92.9357 143.314 89.137 143.706 85.4885 143.973C86.9506 146.699 86.811 150.044 85.1303 152.629C93.078 153.073 100.802 155.503 107.641 159.71C111.656 162.315 115.241 165.561 118.263 169.333C121.382 173.213 121.426 178.275 128.426 176.566H128.428C128.465 176.569 128.502 176.561 128.534 176.544C128.702 175.097 128.852 173.652 128.958 172.182C128.963 172.092 128.976 172.002 129 171.918C128.831 170.802 128.726 169.662 128.66 168.5C128.555 168.454 128.447 168.413 128.365 168.367C128.144 168.22 127.938 168.051 127.751 167.863L127.24 167.314C127.093 167.161 126.605 166.723 126.263 166.328L125.138 165.109L125.141 165.112C124.471 164.255 123.847 163.365 123.273 162.437C121.729 159.661 120.365 156.779 119.19 153.816C118.924 154.27 118.552 154.646 118.107 154.912C118.015 154.972 117.917 155.016 117.812 155.043L117.643 155.087L117.303 155.174C117.274 155.195 117.251 155.228 117.24 155.263L117.048 155.394H116.476C116.271 155.372 116.071 155.312 115.886 155.22C114.843 154.85 113.926 154.172 113.254 153.269C112.735 152.67 112.259 152.033 111.832 151.361C110.328 148.993 109.624 147.722 109.767 147.459C109.998 147.129 111.397 148.18 113.225 150.109C113.692 150.569 114.203 151.072 114.774 151.557C117.169 153.617 116.724 149.979 117.193 148.378L118.146 145.091L120.014 148.117C122.327 151.843 123.897 156.466 126.316 160.521C126.803 161.332 127.332 162.045 127.865 162.78L128.75 163.743V163.746C128.895 163.95 129.055 164.143 129.237 164.315L129.258 164.184H129.153L129.408 163.855L129.788 163.245L129.893 162.807C130.251 161.406 130.33 159.944 130.127 158.51C129.956 157.144 129.68 155.797 129.3 154.477C127.825 149.502 126.284 146.501 126.774 146.215C127.135 145.976 129.448 148.452 131.674 153.579H131.676C132.277 155.01 132.738 156.502 133.054 158.028C133.383 159.631 133.436 161.283 133.204 162.905C133.565 162.138 133.945 161.327 134.284 160.448C135.056 158.088 135.338 155.585 135.114 153.106C135.056 152.107 134.906 151.116 134.669 150.145C134.585 149.641 134.477 149.138 134.374 148.621C134.271 148.104 134.013 147.437 133.842 146.846L133.568 145.932L133.441 145.472L133.328 145.249ZM356.296 217.772C360.052 244.863 360.9 277.038 352.903 303.601C353.653 307.357 351.62 311.112 348.127 312.413C341.614 314.481 334.568 313.746 328.587 310.375C326.093 312.514 323.137 314.002 319.971 314.715C312.331 316.623 303.783 314.495 295.932 311.142C258.293 307.485 220.528 309.871 182.803 309.741C178.667 310.198 174.489 310.116 170.371 309.498C159.454 309.738 148.58 310.413 137.694 311.207C136.219 311.646 134.744 312.04 133.219 312.391C122.998 314.37 112.571 314.974 102.199 314.19C99.839 314.013 97.7737 313.793 96.0245 313.58C93.6299 313.648 91.2511 313.714 88.8537 313.735C74.4885 313.801 60.2338 313.406 45.8902 312.617C33.4982 311.937 20.3421 313.36 8.20578 310.448C5.70318 311.498 3.62463 307.294 6.14045 305.365C15.9218 297.891 24.4913 288.971 33.5296 280.597C41.4011 273.298 50.0178 268.738 55.2153 258.81C50.0309 258.342 45.1837 255.958 41.567 252.094C37.9502 248.23 35.803 243.146 35.5238 237.78C30.3684 236.288 26.5935 230.372 29.3516 225.155C27.6208 221.887 27.6023 217.939 29.3094 214.657C25.3631 213.271 22.9001 209.219 23.4085 204.946C23.556 203.558 23.8774 202.195 24.3621 200.892C22.4154 200.837 20.5213 200.219 18.8958 199.109C17.2704 197.996 15.9796 196.439 15.1656 194.608C14.1224 192.064 13.9407 189.228 14.6572 186.564C15.8638 184.278 16.7252 181.809 17.202 179.249C17.202 179.118 17.2467 179.009 17.2467 178.898V178.9C16.1956 176.984 15.4106 174.924 14.9101 172.785C13.4665 166.559 11.3696 159.744 13.2136 153.387C16.6304 141.727 26.8991 157.132 31.7176 164.969C32.7344 163.239 33.8172 161.53 34.7313 159.712H34.7287C36.528 155.57 38.5774 151.548 40.8588 147.67C40.5848 147.515 40.2871 147.365 40.0316 147.21H40.0342C38.4694 146.23 36.9968 145.101 35.6401 143.833C34.8972 143.155 34.1965 142.429 33.5405 141.661L33.0137 140.981L32.7371 140.63L32.3972 140.061L32.0785 139.47L31.931 139.166L31.8651 139.01C31.844 138.923 31.8229 138.923 31.8229 138.945L31.6728 138.336C31.6517 138.292 31.5253 137.593 31.5253 137.593C31.4752 137.348 31.4383 137.097 31.4172 136.847C31.3962 136.433 31.3962 135.992 31.3962 135.554C31.3962 135.116 31.4383 134.675 31.4805 134.262C31.5253 133.848 31.628 133.603 31.6939 133.252H31.6965C31.9863 131.973 32.4499 130.74 33.0743 129.595C33.6933 128.443 34.4494 127.377 35.3214 126.416C36.383 125.246 37.6975 124.353 39.157 123.812C40.0685 123.567 40.8746 123.327 41.8308 123.131C42.4209 123.063 43.011 123.044 43.5721 122.998C44.1859 121.556 45.1764 120.32 46.433 119.425C48.3323 118.053 50.4636 117.057 52.7159 116.488C53.3323 116.312 53.9672 116.184 54.6679 116.05L55.1948 115.982L55.8112 115.939L56.7227 115.852H56.7254C58.2533 115.816 59.7839 115.947 61.2854 116.249C62.9846 116.57 64.639 117.109 66.209 117.849C67.1258 116.633 68.3218 115.675 69.689 115.063C71.4593 114.192 73.327 113.544 75.2475 113.133C76.7833 112.641 78.3666 112.319 79.9682 112.17C81.0879 112.338 82.1864 112.646 83.2349 113.084C84.4756 113.509 85.6505 114.126 86.7122 114.913C87.4471 113.979 88.3665 113.215 89.4097 112.676C91.1247 111.775 92.9872 111.209 94.9023 111.013C96.0667 110.872 97.2417 110.864 98.406 110.991L99.4229 111.144L99.9945 111.296L100.271 111.364L100.353 111.386C100.374 111.408 100.798 111.585 100.798 111.585L100.903 111.628C101.37 111.849 101.839 112.066 102.326 112.309L102.329 112.306C103.485 112.959 104.555 113.762 105.514 114.695C105.832 114.608 106.193 114.543 106.594 114.475C110.687 113.914 114.844 114.793 118.395 116.973C118.967 117.346 119.52 117.806 120.113 118.244L120.537 118.573L121.004 119.033L121.683 119.713C124.044 122.056 123.617 125.216 126.375 126.723C126.628 126.876 126.902 126.984 127.115 127.137L127.113 127.14C127.539 127.39 127.942 127.678 128.324 127.994C129.025 128.533 129.692 129.121 130.319 129.747C131.499 130.909 132.505 132.092 133.482 133.233C133.756 133.559 134.033 133.889 134.31 134.24C139.784 125.474 144.431 116.159 153.533 110.743C164.386 104.258 176.459 101.365 187.932 96.4997C188.511 90.2978 190.34 84.2864 193.298 78.8573C192.979 71.6454 189.141 63.9221 192.853 57.0049V57.0022C195.279 52.7868 198.264 48.9446 201.722 45.5859C201.57 45.2267 201.499 44.8376 201.509 44.4457C202.041 26.3623 203.993 14.0675 222.705 8.91563C239.128 4.42268 256.802 3.37224 272.204 12.1813H272.207C286.851 20.3943 297.404 34.6787 301.209 51.4371C303.055 60.0284 304.412 69.4961 301.633 78.0658C298.64 87.2096 293.466 95.2052 289.478 103.905V103.908C289.375 104.109 289.254 104.3 289.115 104.477C292.128 108.853 295.829 112.676 300.065 115.789C304.86 118.943 310.123 120.786 315.131 123.461C324.826 128.642 328.032 141.389 333.079 150.639H333.076C333.785 151.233 334.438 151.894 335.031 152.612C340.637 159.342 342.033 169.447 345.342 177.401V177.398C350.729 190.29 354.412 203.869 356.295 217.772L356.296 217.772ZM350.184 292.643C354.407 272.222 353.793 249.814 352.178 229.551C350.439 207.911 343.735 189.64 336.883 169.431C335.747 165.262 334.085 161.264 331.938 157.544C326.972 150.004 321.499 155.746 316.238 159.343C307.386 165.39 294.892 171.462 289.565 181.391H289.567C284.87 191.104 282.61 201.88 282.989 212.733C284.997 208.708 287.281 204.838 289.823 201.151C294.702 194.116 298.161 190.236 298.5 190.456C298.988 190.785 296.188 195.3 291.944 202.576C289.441 206.781 287.21 211.152 285.263 215.66C284.388 217.699 283.664 219.8 283.095 221.952C283.2 225.106 283.308 228.241 283.414 231.33C283.456 231.398 283.479 231.485 283.519 231.55H283.522C283.682 231.847 283.89 232.114 284.138 232.34C284.325 232.598 284.554 232.821 284.815 232.998C285.063 233.243 285.35 233.444 285.663 233.589L286.214 233.893L286.491 234.046L286.554 234.089H286.62V234.136V234.133C287.918 234.386 289.254 234.356 290.542 234.046C292.07 233.825 293.598 233.325 295.126 233.014H295.129C296.654 232.563 298.216 232.258 299.797 232.1H299.923C307.795 232.1 314.433 232.187 319.059 232.604C321.58 232.503 324.093 232.949 326.436 233.921C324.051 234.688 321.554 235.015 319.059 234.884C314.338 235.039 307.795 235.543 300.049 235.959L299.923 235.981C297.523 236.111 294.47 237.121 291.245 237.668C293.661 239.353 296.103 241.043 298.48 242.817C309.546 251.084 319.623 260.68 328.501 271.402C334.186 278.238 341.678 285.077 347.279 292.433C347.236 292.172 347.173 291.908 347.152 291.644C346.773 290.12 346.22 288.4 345.73 286.647C344.489 283.052 342.853 279.615 340.848 276.41C338.728 272.858 336.478 269.552 334.61 266.351H334.613C332.882 263.51 331.446 260.492 330.327 257.34C329.916 256.113 329.576 254.861 329.307 253.59C329.131 252.622 329.001 251.642 328.925 250.657C328.925 249.1 329.03 248.199 329.265 248.159C329.497 248.115 329.881 248.97 330.303 250.439C330.535 251.182 330.893 252.039 331.217 253.027C331.662 253.99 332.044 255.161 332.692 256.334L332.695 256.331C334.078 259.169 335.656 261.904 337.416 264.508C339.389 267.51 341.702 270.776 343.907 274.457C346.096 277.957 347.787 281.767 348.922 285.767C349.326 287.596 349.773 289.229 350.026 290.897C350.079 291.501 350.124 292.07 350.184 292.641L350.184 292.643ZM340.574 308.206C346.261 309.238 347.697 306.065 344.881 298.693C342.183 295.754 339.491 292.842 336.883 289.813C336.435 295.512 334.829 301.047 332.163 306.056C334.807 307.319 337.663 308.049 340.574 308.206L340.574 308.206ZM329.902 299.218C331.227 294.347 332.02 289.336 332.263 284.283C327.468 278.473 322.755 272.6 317.663 267.119C302.05 250.263 282.743 239.459 264.515 226.133C248.175 214.178 233.894 199.482 217.387 187.764C212.455 184.161 207.286 180.917 201.92 178.054C193.177 181.799 182.91 180.727 173.659 181.976L173.656 181.978C166.984 182.602 160.503 184.615 154.607 187.9C148.944 191.405 145.248 199.319 154.755 199.008C155.224 198.385 155.782 197.838 156.409 197.389C156.765 197.112 157.142 196.861 157.534 196.644C157.842 196.442 158.161 196.26 158.49 196.097L159.336 195.637L159.76 195.397L159.826 195.376L159.931 195.288C161.82 193.928 163.601 192.439 165.34 191.19C166.254 190.556 167.11 190.028 167.845 189.59V189.584C168.467 189.274 169.123 189.04 169.797 188.885C170.943 188.602 171.662 188.624 171.918 188.994C172.173 189.367 171.873 190.091 171.175 191.054C170.835 191.536 170.305 192.064 169.839 192.676C169.373 193.288 168.928 193.993 168.364 194.692C166.915 196.652 165.303 198.478 163.546 200.149L163.335 200.347L163.29 200.391L163.269 200.415L163.037 200.59L162.932 200.658L162.529 200.941L161.644 201.55L160.838 202.094C160.619 202.236 160.411 202.397 160.221 202.579C160.018 202.734 159.847 202.927 159.713 203.148V203.191C159.723 203.256 159.723 203.325 159.713 203.39L159.881 203.893C159.926 204.024 159.987 204.331 160.031 204.331C160.076 204.331 160.074 204.244 160.053 204.201C160.071 204.269 160.132 204.315 160.2 204.31C160.482 204.448 160.78 204.544 161.085 204.593C161.567 204.62 162.049 204.612 162.529 204.571C164.57 204.326 166.586 203.893 168.554 203.281C172.202 202.206 174.623 201.526 175.11 202.337C175.579 203.082 173.93 205.232 170.442 207.553C169.399 208.237 168.306 208.838 167.176 209.352C167.11 209.418 167.028 209.483 166.962 209.548V209.545C166.812 209.682 166.691 209.845 166.604 210.03C166.588 210.049 166.58 210.071 166.583 210.095L166.752 210.141H166.773C166.839 210.248 166.857 210.381 167.005 210.645V210.642C167.06 210.781 167.131 210.914 167.215 211.037L167.342 211.257V211.279L168.227 212.465C168.546 213.015 168.738 213.015 168.949 213.23C169.162 213.448 169.267 213.647 169.586 213.799C169.86 213.998 170.113 214.196 170.371 214.392C170.627 214.591 170.922 214.654 171.198 214.806C171.71 215.179 172.281 215.135 172.813 215.396C173.364 215.464 173.893 215.505 174.425 215.617C174.913 215.554 175.408 215.533 175.901 215.554C176.391 215.554 176.786 215.424 177.176 215.424H177.173C177.758 215.309 178.361 215.459 178.83 215.837C179.104 216.188 179.022 216.779 178.535 217.59C178.258 218.096 177.892 218.542 177.452 218.907C176.947 219.302 176.414 219.661 175.861 219.979C181.825 227.213 192.009 224.012 200.687 223.577C203.018 222.524 205.518 221.928 208.063 221.819C209.697 221.751 211.333 221.914 212.921 222.306C214.236 222.633 215.49 223.182 216.633 223.925C218.606 225.261 219.265 226.668 218.946 226.992C218.606 227.389 217.418 226.818 215.574 226.29V226.293C213.174 225.642 210.692 225.378 208.214 225.501C207.278 225.547 206.388 225.634 205.516 225.721C217.437 235.216 228.648 246.088 239.752 256.543C251.017 267.129 259.249 281.158 271.662 290.451H271.659C281.032 298.012 291.609 303.827 302.916 307.634C309.238 309.463 318.084 311.689 324.028 307.37H324.025C324.973 306.703 325.838 305.917 326.594 305.024C326.678 304.213 326.846 303.051 326.933 301.584H326.931C327.002 300.052 326.897 298.518 326.612 297.013C326.227 295.189 325.606 293.426 324.765 291.774C323.106 288.71 320.93 285.978 318.34 283.708C316.407 281.931 314.858 280.815 315.137 280.331C315.35 279.917 317.086 280.091 319.784 281.55C323.237 283.509 326.072 286.454 327.95 290.033C328.972 292.054 329.628 294.256 329.881 296.523C329.96 297.418 329.968 298.319 329.902 299.217L329.902 299.218ZM321.435 149.232C322.726 148.432 324.18 147.959 325.679 147.85C323.73 143.531 321.57 139.319 319.207 135.226C315.621 129.394 312.078 128.474 306.372 125.603C301.767 123.336 297.471 120.446 293.601 117.012C296.335 133.756 287.657 152.651 286.301 169.638C286.246 170.704 285.59 171.64 284.625 172.027C283.261 176.634 281.259 181.013 278.682 185.027C276.454 188.662 274.354 191.754 272.7 194.383C269.37 199.622 267.863 203.043 267.389 202.887C267.025 202.778 267.834 198.898 270.719 193.202C272.118 190.353 274.03 187.063 276.03 183.403C277.853 180.126 279.386 176.686 280.611 173.124C278.743 173.015 276.833 172.904 274.902 172.885C273.482 172.838 272.081 172.885 270.724 172.928C270.044 172.972 269.365 173.037 268.709 173.081C268.119 173.168 267.56 173.236 266.989 173.32C266.417 173.453 265.566 173.758 265.187 173.87C264.673 174.09 264.178 174.362 263.711 174.678C262.818 175.269 262.075 176.074 261.549 177.027C261.23 177.595 260.89 178.121 260.571 178.67C260.231 179.236 259.865 179.783 259.47 180.311C258.711 181.291 257.903 182.227 257.049 183.12C255.503 184.894 253.954 186.385 252.573 187.743C246.994 193.004 243.769 196.664 243.345 196.313C243.005 196.008 245.487 191.82 250.75 185.923C252.022 184.456 253.445 182.856 254.823 181.101C255.481 180.227 256.351 179.272 256.888 178.428C257.22 177.938 257.523 177.43 257.799 176.904C258.095 176.423 258.371 175.829 258.735 175.217C259.475 173.826 260.523 172.637 261.793 171.747C262.141 171.47 262.518 171.233 262.918 171.045C258.105 170.357 253.497 168.582 249.425 165.85C242.997 167.679 239.099 173.084 234.211 177.71C230.95 181.06 226.922 183.503 222.499 184.809C224.728 186.494 226.925 188.206 229.098 189.961C240.874 199.494 251.906 210.21 264.127 219.153C268.668 222.462 273.336 225.597 277.994 228.732C277.295 210.58 275.746 187.481 288.349 173.869C297.461 164.026 310.188 156.158 321.434 149.233L321.435 149.232ZM286.554 97.6379C293.619 82.8449 300.716 70.6337 296.1 52.8798C292.41 38.7423 284.475 25.4485 271.743 18.185H271.746C258.785 10.8289 243.579 8.91309 229.288 12.8376C221.396 14.8759 210.324 17.0013 208.306 26.7326C207.484 31.1984 207.031 35.7294 206.947 40.2765C208.58 38.6111 210.15 36.902 211.615 35.095C211.997 34.314 212.71 33.7616 213.543 33.6038C214.375 33.4459 215.234 33.6963 215.861 34.2841C216.093 34.5045 216.349 34.7005 216.601 34.8937C215.88 33.1384 215.561 31.2335 215.669 29.3285C215.827 27.3229 216.509 25.3961 217.642 23.7606C218.527 22.7292 219.117 22.2693 219.294 22.4244C219.47 22.5795 219.294 23.3197 218.872 24.4382C218.377 26.022 218.153 27.6848 218.216 29.3502C218.401 31.7205 219.281 33.9738 220.737 35.8134C221.393 36.6734 222.173 37.419 223.05 38.0286C224.336 38.3225 225.643 38.513 226.954 38.6001C226.954 38.5756 226.933 38.5538 226.933 38.5321C226.52 37.0462 226.312 35.5087 226.32 33.9602C226.264 31.4157 226.77 28.8903 227.795 26.5769C228.438 24.9985 229.452 23.6106 230.745 22.5438C231.659 21.8417 232.252 21.7328 232.4 21.8635C232.571 22.0621 232.168 22.6064 231.638 23.4854H231.641C230.914 24.7127 230.363 26.0408 230.005 27.4287C229.465 29.5051 229.283 31.6658 229.476 33.8075C229.589 35.4866 229.997 37.1275 230.685 38.6515C232.234 38.608 233.825 38.4991 235.405 38.3685C235.116 38.031 234.852 37.6718 234.62 37.2908C234.352 36.8064 234.125 36.2948 233.941 35.7668L233.727 34.8933L233.643 34.2837C233.553 33.2523 233.685 32.21 234.028 31.2358C234.281 30.4493 234.599 29.6846 234.984 28.9553C235.629 27.7198 236.38 26.5442 237.226 25.4447C238.432 23.8092 239.934 22.4322 241.651 21.3899C242.987 20.6443 243.793 20.7531 243.859 20.9736C243.925 21.194 243.269 21.6321 242.479 22.5519H242.476C241.264 23.8963 240.197 25.3713 239.296 26.9578C238.669 28.0245 238.116 29.1376 237.642 30.2887C237.376 30.8928 237.168 31.5269 237.026 32.1746C236.87 32.6998 236.82 33.2495 236.878 33.7965C237.397 35.862 239.015 37.4431 241.04 37.8649C241.804 37.8213 242.568 37.756 243.311 37.7343C242.934 35.3232 243.108 32.8522 243.82 30.5224C244.331 29.0365 245.15 27.684 246.219 26.5601C247.126 25.6184 248.179 24.8401 249.336 24.2578C253.517 22.3501 256.211 22.81 256.251 23.1611C256.38 23.7108 253.749 24.236 250.524 26.4049H250.527C248.738 27.6023 247.429 29.4256 246.839 31.5401C246.396 33.5621 246.404 35.6603 246.86 37.6795C247.305 37.6795 247.745 37.723 248.195 37.7448V37.7421C248.403 36.0739 249.08 34.5037 250.145 33.2273C251.667 31.3115 253.527 29.7032 255.621 28.4922C257.005 27.6431 258.543 27.0988 260.139 26.892C261.349 26.8049 261.91 27.1315 261.91 27.3519C261.91 27.5723 261.296 27.7655 260.466 28.2064C259.22 28.8514 258.045 29.6379 256.968 30.5523C255.34 31.8694 253.909 33.4287 252.721 35.1758C252.113 35.9759 251.725 36.9284 251.596 37.938C251.607 38.0278 251.628 38.1149 251.662 38.1992L252.213 38.3298L253.295 37.2359C255.909 35.0969 258.943 33.5784 262.187 32.7865C264.697 32.0952 267.266 31.6544 269.858 31.4721C274.268 31.1673 276.986 31.7986 276.965 32.2831C276.944 32.8273 274.31 33.1158 270.219 34.0574C267.827 34.5962 265.464 35.263 263.137 36.0549C260.545 36.8767 258.109 38.1449 255.922 39.7995C257.247 40.5397 258.435 41.5194 259.426 42.6922L259.573 42.5398C260.769 41.3017 262.252 40.3954 263.88 39.911C266.412 39.149 269.089 39.0511 271.668 39.6253C273.375 39.9627 275.003 40.654 276.446 41.6555C277.508 42.4446 277.742 43.0352 277.656 43.2338C277.337 43.672 275.174 42.3793 271.354 42.2024V42.2051C269.181 42.0772 267.005 42.3875 264.947 43.1195C263.886 43.5141 262.927 44.1618 262.145 45.0054L261.997 45.1578L261.955 45.2258L261.723 45.6177C261.676 45.732 261.618 45.8436 261.552 45.947C261.657 46.1674 261.765 46.3633 261.871 46.5811C262.624 48.3173 263.082 50.1732 263.227 52.0673C264.191 51.5339 265.219 51.1366 266.286 50.8862C268.646 50.3828 270.04 50.7774 270.063 51.0849C270.063 51.4768 268.767 51.8278 266.9 52.7722C265.567 53.4443 264.357 54.356 263.335 55.4663C263.204 59.0966 262.577 62.6887 261.467 66.1337C260.287 69.8157 258.454 73.016 256.992 76.5677C252.152 88.1498 259.942 91.5816 265.817 97.125C267.64 96.3113 269.415 95.3833 271.128 94.3437C268.825 94.2784 266.57 93.6716 264.529 92.5694L263.678 92.0414H263.68C263.499 91.9462 263.327 91.8292 263.172 91.6904L262.877 91.4046C262.437 91.0454 262.031 90.6399 261.668 90.2018C261.265 89.6521 260.862 89.1051 260.503 88.5581C260.271 88.0301 260.034 87.5022 259.782 87.0014H259.779C259.086 85.2489 258.657 83.3983 258.507 81.5152C258.23 78.3829 258.612 76.4943 259.078 76.4535C259.544 76.4099 260.116 78.2305 260.967 80.9927V80.9899C261.433 82.5547 262.037 84.0733 262.772 85.5237C262.985 85.921 263.196 86.2912 263.409 86.6858C263.657 86.9715 263.886 87.2763 264.086 87.6001C264.439 87.9757 264.813 88.3268 265.211 88.6533L265.488 88.8928C265.561 88.9254 265.63 88.9608 265.698 89.0016L266.288 89.3527C267.924 90.2181 269.7 90.7596 271.528 90.9529C273.225 91.2386 274.818 91.3502 276.217 91.4808C276.62 91.2821 277.047 91.0644 277.469 90.8903C278.42 90.444 279.415 90.1065 280.437 89.8807C279.452 88.7513 278.391 87.6981 277.258 86.7266C274.871 84.8026 272.719 82.5874 270.848 80.1273C269.56 78.3367 268.838 76.1759 268.783 73.9471C268.867 72.4775 269.144 71.7346 269.334 71.7129C269.587 71.7129 269.758 72.5456 270.077 73.8818H270.079C270.609 75.6398 271.515 77.2508 272.735 78.5952C274.76 80.6552 276.955 82.533 279.292 84.2039C280.759 85.336 282.129 86.596 283.385 87.973C283.443 88.0574 283.507 88.139 283.575 88.2152C283.383 81.4146 281.807 74.7312 278.952 68.5999C276.618 63.2715 275.069 59.9403 275.535 59.6574C275.938 59.4125 278.209 62.2427 281.199 67.4134C281.878 68.7306 282.674 70.1756 283.427 71.7758C284.199 73.5174 284.874 75.3027 285.443 77.126C286.478 80.2637 287.05 83.5429 287.139 86.8577C287.205 86.5937 287.268 86.3515 287.332 86.0903C288.812 80.6067 289.455 74.922 289.239 69.2344C289.052 66.2246 288.377 63.2692 287.245 60.4905L286.378 58.6917C285.472 57.1841 284.402 55.788 283.193 54.528C281.994 53.3687 280.696 52.3292 279.313 51.4175C278.275 50.7154 277.743 50.1984 277.837 49.9915C277.932 49.7847 278.665 49.8174 279.874 50.1004H279.871C281.654 50.5685 283.333 51.3876 284.813 52.5115C285.867 53.2925 286.826 54.1987 287.679 55.2083C288.159 55.7608 288.612 56.3377 289.036 56.9391C289.421 57.5977 289.824 58.2753 290.216 58.9775C291.707 62.1097 292.592 65.5114 292.827 68.9948C293.114 75.1424 292.055 81.2764 289.729 86.9424C288.991 88.8256 288.043 90.6135 286.905 92.2708C286.823 93.0137 286.736 93.7947 286.652 94.505L286.631 94.6819C286.712 95.6671 286.686 96.6576 286.554 97.6373L286.554 97.6379ZM281.272 167.174C283.666 147.751 295.847 123.863 283.88 106.699C283.561 107.445 283.29 108.147 282.995 108.784C281.754 112.118 279.525 114.962 276.633 116.916C274.644 118.01 272.513 118.807 270.308 119.28C270.331 119.509 270.326 119.738 270.289 119.961C268.519 131.864 261.272 138.023 252.339 144.837C240.139 154.173 226.18 164.825 220.218 179.776C230.192 177.778 235.432 166.844 244.257 162.098C246.955 159.447 249.815 156.555 252.7 153.42L252.698 153.422C258.038 147.433 262.919 141.024 267.3 134.256C270.566 128.905 272.582 125.533 273.05 125.795C273.451 126.015 272.263 129.757 269.528 135.482C265.666 142.884 260.906 149.748 255.366 155.903C253.988 157.373 252.632 158.774 251.27 160.11C252.123 160.372 252.816 161.017 253.158 161.866C260.714 167.028 272.445 166.612 281.273 167.172L281.272 167.174ZM281.122 96.7336C281.23 96.2193 281.301 95.6995 281.335 95.1743C279.114 95.9063 277.017 96.9867 275.118 98.3855C274.233 98.8889 273.348 99.3951 272.462 99.8768V99.8741C272.797 100.217 273.071 100.617 273.271 101.058C273.677 102.571 273.548 104.185 272.905 105.608L272.823 105.847L272.8 105.915V105.913L272.718 106.109L272.652 106.217L272.439 106.634C272.212 107.031 271.949 107.407 271.654 107.752C271.072 108.367 270.4 108.882 269.66 109.276C268.261 109.957 267.518 110.308 267.299 110.877C267.088 111.358 266.973 111.875 266.959 112.4C268.068 112.243 269.114 111.78 269.994 111.067C271.216 110.158 272.283 109.048 273.155 107.777C274.725 105.586 274.786 103.964 275.276 103.874C275.445 103.831 275.763 104.291 275.848 105.189L275.85 105.191C275.924 106.468 275.682 107.741 275.147 108.895C274.48 110.474 273.521 111.902 272.325 113.103C272.918 112.868 273.474 112.55 273.982 112.161C276.388 110.218 278.126 107.529 278.948 104.489C279.849 101.956 280.574 99.3594 281.122 96.7199L281.122 96.7336ZM279.32 304.452C276.659 303.358 274.059 302.114 271.533 300.724C267.523 298.49 263.321 295.923 258.78 293.273L258.782 293.27C250.787 288.954 243.48 283.394 237.12 276.787C235.231 274.643 233.698 272.193 232.579 269.535C231.92 267.652 231.815 266.555 232.028 266.465C232.241 266.378 232.834 267.322 233.854 268.963C235.35 271.138 237.057 273.149 238.943 274.972C245.598 280.801 252.847 285.863 260.564 290.07C264.66 292.438 268.529 294.892 272.044 297.08C263.187 290.04 255.089 282.029 247.897 273.192C233.811 256.937 218.168 242.196 201.209 229.196C195.258 240.46 190.935 252.562 188.372 265.118C186.185 277.851 185.379 290.72 183.216 303.473C183.427 303.342 183.617 303.233 183.83 303.1C185.442 302.134 187.118 301.285 188.846 300.558C189.837 300.155 190.851 299.818 191.883 299.551C192.953 299.26 194.036 299.026 195.129 298.849C197.439 298.604 199.763 298.482 202.086 298.476C204.214 298.536 206.319 298.022 208.198 296.988C208.862 296.52 209.425 295.913 209.849 295.211C209.33 294.841 208.838 294.432 208.374 293.992C207.265 293.044 206.483 291.752 206.148 290.307C205.951 289.327 206.164 288.307 206.738 287.501C207.199 286.84 207.824 286.315 208.543 285.977C209.099 285.719 209.683 285.528 210.281 285.408L210.642 285.321L210.985 285.253H211.217L212.102 285.231C214.085 285.438 216.006 286.059 217.747 287.06C219.294 287.871 220.632 288.682 221.838 289.406C223.68 290.546 225.619 291.507 227.634 292.277C228.969 292.737 229.944 292.846 229.902 293.11C229.86 293.308 229.117 293.679 227.376 293.57C225.092 293.287 222.868 292.612 220.8 291.575C219.483 291.009 218.087 290.329 216.599 289.692C215.326 289.164 212.502 287.253 211.145 287.762V287.76C210.521 288.249 209.957 288.816 209.47 289.45C209.449 289.558 209.428 289.471 209.491 289.67C209.747 290.318 210.163 290.884 210.7 291.311C211.425 291.951 212.218 292.503 213.061 292.957L214.483 293.744L213.869 295.268C213.129 297.214 211.844 298.885 210.176 300.068C207.75 301.483 204.994 302.18 202.21 302.082C199.747 302.128 197.518 302.017 195.524 302.213C192.827 302.539 190.182 303.225 187.655 304.254C218.216 304.218 248.809 302.752 279.319 304.439L279.32 304.452ZM269.857 104.306C270.223 103.626 270.434 102.867 270.471 102.088C270.408 102.023 270.516 101.936 270.281 101.827C270.021 101.675 269.731 101.585 269.433 101.566H269.22C268.134 102.091 267.023 102.559 265.89 102.967C265.379 103.169 264.818 103.182 264.299 103.011C259.839 107.093 255.047 110.775 249.976 114.013C250.566 118.656 250.83 123.337 250.761 128.018C253.559 124.747 256.573 121.677 259.778 118.836C261.327 117.565 262.834 117.007 263.319 114.914V114.912C263.364 112.955 263.635 111.012 264.125 109.121C264.602 108.212 265.318 107.461 266.19 106.952C266.954 106.514 267.592 106.25 268.079 106.01C268.48 105.833 268.851 105.596 269.183 105.305C269.288 105.131 269.331 105.24 269.523 104.913L269.755 104.521C269.792 104.478 269.857 104.306 269.857 104.306L269.857 104.306ZM264.807 120.351C259.167 123.791 254.944 130.322 250.232 134.75V134.747C250.034 134.924 249.813 135.063 249.573 135.166C247.834 140.043 242.197 143.363 238.309 146.082V146.079C234.178 149.233 229.663 151.805 224.879 153.731C226.509 154.782 228.145 155.835 229.821 156.845C232.113 154.542 234.51 152.373 236.973 150.292C247.344 141.499 261.604 134.595 264.807 120.349L264.807 120.351ZM257.85 56.345V56.3423C257.379 54.3856 257.142 52.3773 257.147 50.3608C253.817 39.8181 239.939 44.2241 230.564 44.3983C224.863 44.8963 219.168 43.3723 214.418 40.0795C208.773 46.2814 198.844 53.0089 196.976 61.0311C195.62 66.7976 198.378 73.0869 198.609 78.9403C198.615 79.1145 198.607 79.2914 198.588 79.4655C198.594 79.9608 198.475 80.4534 198.251 80.8915C195.501 85.7437 193.791 91.1486 193.235 96.7407C193.588 96.9203 193.878 97.2115 194.06 97.5735C194.421 98.2538 194.824 98.8879 195.24 99.5029C195.303 99.394 195.367 99.2825 195.43 99.1981C196.868 97.4047 198.415 95.7066 200.056 94.1119C200.627 93.5023 201.286 92.5117 201.858 91.766C202.429 91.0204 203.006 90.2421 203.452 89.5318C204.326 88.3235 204.998 86.9764 205.446 85.5423C205.58 84.9572 205.678 84.364 205.741 83.768C205.786 83.2182 205.72 82.7121 205.72 82.244C205.728 81.8086 205.678 81.3732 205.572 80.9513C205.506 80.554 205.446 80.2301 205.422 79.9417C205.359 79.4165 205.38 79.109 205.506 79.0627C205.699 79.0192 206.418 79.8764 207.076 81.9119L207.079 81.9147C207.242 82.5161 207.369 83.1257 207.461 83.7434C207.49 84.4891 207.474 85.2374 207.416 85.9804C207.116 87.7356 206.497 89.4147 205.593 90.9333C205.169 91.8122 204.616 92.577 204.118 93.4314C203.544 94.305 203.141 95.0533 202.348 96.082C200.872 97.9108 199.292 99.413 198.125 101.166L198.127 101.168C197.89 101.533 197.693 101.922 197.537 102.33C202.78 107.634 210.354 108.951 218.438 108.818C218.409 108.527 218.343 108.238 218.246 107.964C217.906 107.131 217.44 106.361 216.865 105.683C216.325 105.033 215.706 104.458 215.021 103.977C214.547 103.62 213.989 103.411 213.407 103.367L212.05 103.544L211.858 102.36C211.568 100.499 211.605 98.5994 211.963 96.7488C212.213 95.4236 212.532 94.1118 212.919 92.8246C213.533 90.7673 213.918 89.6488 214.171 89.6488C214.423 89.6488 214.51 90.9415 214.321 93.1104C213.984 95.6223 213.933 98.1694 214.171 100.692C214.961 100.793 215.722 101.046 216.42 101.441C217.408 102.012 218.309 102.731 219.094 103.574C219.945 104.486 220.643 105.536 221.159 106.685C221.425 107.324 221.602 107.994 221.692 108.682C230.496 108.2 239.576 106.445 246.623 106.622C247.05 106.641 247.464 106.794 247.803 107.06C248.76 107.253 249.466 108.092 249.524 109.096V109.186C253.565 106.407 257.432 103.373 261.104 100.096C255.08 94.463 249.598 90.5414 250.048 81.0493C250.464 72.3054 257.532 65.4857 257.858 56.3448L257.85 56.345ZM244.926 124.423C245.545 122.733 245.777 120.918 245.606 119.119C245.585 118.814 245.543 118.509 245.524 118.177H245.522C244.373 119.29 243.035 120.175 241.575 120.781C239.062 121.84 236.375 122.379 233.665 122.374C229.35 122.39 225.048 121.878 220.848 120.85C217.329 120.06 214.571 119.249 212.682 118.716C210.794 118.183 209.711 117.821 209.753 117.576C209.795 117.331 210.88 117.225 212.875 117.402C214.869 117.578 217.732 117.951 221.255 118.411H221.252C225.311 119.037 229.418 119.266 233.518 119.092C238.015 118.893 243.041 117.263 245.101 112.778L245.502 111.864C245.48 111.559 245.459 111.273 245.438 110.985C237.738 110.963 228.529 112.607 219.68 112.892L219.683 112.895C219.409 113.034 219.127 113.154 218.834 113.246C218.141 113.442 217.43 113.554 216.711 113.575C215.399 113.608 214.085 113.521 212.788 113.309C211.037 113.042 209.306 112.647 207.609 112.128C202.104 111.249 197.061 108.421 193.352 104.127C193.394 112.631 192.907 121.707 195.747 129.684C199.927 141.434 206.61 146.956 217.409 150.41H217.411C219.295 150.483 221.173 150.186 222.949 149.531C228.492 147.383 233.702 144.414 238.418 140.719C242.04 138.183 244.585 134.308 245.525 129.894L245.42 130.002L244.569 130.724L244.572 130.726C243.961 131.235 243.307 131.692 242.62 132.084C241.324 132.89 239.935 133.529 238.489 133.992H238.468C236.216 136.011 233.739 137.75 231.092 139.173C226.65 141.391 221.824 142.673 216.898 142.945C213.228 142.967 210.997 142.507 210.957 142.031C210.912 141.481 213.186 140.999 216.705 140.322C221.113 139.331 225.399 137.832 229.479 135.851C229.671 135.742 229.842 135.63 230.03 135.521C227.801 135.674 225.701 135.652 223.812 135.63C219.698 135.478 216.41 135.149 214.139 134.909C211.866 134.667 210.651 134.465 210.651 134.202C210.651 133.938 211.926 133.676 214.192 133.499C216.457 133.323 219.798 133.238 223.825 133.04C228.335 132.947 232.811 132.215 237.129 130.868C238.446 129.836 239.676 128.854 240.714 127.975V127.978C242.003 126.653 243.415 125.463 244.927 124.426L244.926 124.423ZM226.022 160.875C223.688 159.452 221.378 157.99 219.086 156.491C218.828 156.494 218.572 156.464 218.322 156.404C212.914 155.051 207.759 152.787 203.064 149.698C202.456 156.788 201.091 163.784 198.994 170.563C204.447 173.048 209.705 175.973 214.713 179.312C217.321 172.485 221.16 166.228 226.023 160.875H226.022ZM198.077 146.629H198.079C198.116 146.27 198.216 145.921 198.374 145.598C196.206 143.254 194.447 140.541 193.174 137.578C188.891 127.737 188.38 117.962 188.159 107.637C184.452 110.693 181.054 114.127 178.019 117.894C173.986 123.704 169.383 130.391 167.961 137.599C174.581 139.243 180.543 143.164 187.481 143.341V143.338C188.569 143.328 189.539 144.046 189.876 145.113C190.237 145.475 190.482 145.943 190.579 146.452C191.873 152.896 194.204 159.166 194.929 165.697C196.509 159.446 197.563 153.067 198.079 146.629L198.077 146.629ZM193.775 174.798C193.598 174.692 193.435 174.567 193.285 174.425C191.114 173.68 188.896 173.1 186.644 172.694C179.9 171.511 173.13 170.743 166.467 169.255C169.47 171.078 172.039 173.579 173.975 176.57C180.451 175.976 187.365 176.063 193.775 174.798L193.775 174.798ZM195.25 229.375C185.384 230.164 175.777 231.204 169.876 220.74C167.181 220.215 164.76 218.699 163.066 216.473C162.771 216.035 162.476 215.615 162.181 215.199L162.136 215.115L161.925 214.829V214.807L161.881 214.739L161.775 214.5L161.562 214.064L161.565 214.062C161.404 213.74 161.262 213.411 161.138 213.074C161.032 212.701 160.906 212.393 160.822 211.977C160.756 211.626 160.716 211.297 160.671 210.946C159.66 210.921 158.661 210.706 157.721 210.312C157.118 210.086 156.559 209.751 156.067 209.324C155.793 209.125 155.535 208.896 155.303 208.646C155.045 208.336 154.81 208.007 154.602 207.661C154.389 207.332 154.199 206.981 154.012 206.61V206.608C153.922 206.415 153.851 206.21 153.801 205.998L153.632 205.448L153.527 205.165L153.506 205.097V205.076L153.377 204.507L153.356 204.463C144.065 203.805 138.461 194.732 146.738 187.09C146.483 186.676 146.248 186.235 146.017 185.819L146.014 185.822C143.164 185.988 140.305 185.639 137.571 184.79C139.459 193.428 139.523 202.041 141.156 210.918C143.003 221.001 145.698 230.863 147.797 240.905C152.339 262.733 153.016 285.002 166.725 303.436C168.018 303.657 169.312 303.853 170.584 304.027C172.984 303.959 175.381 303.896 177.797 303.896C180.368 289.495 180.642 274.636 183.95 260.39C186.601 249.649 190.384 239.243 195.236 229.355L195.25 229.375ZM189.76 167.56C188.851 161.154 187.46 154.829 185.603 148.644C178.324 147.789 172.237 143.408 164.95 142.507C163.633 142.352 162.126 141.389 162.276 139.788L162.279 139.791C163.614 131.48 166.989 123.665 172.078 117.084C174.117 113.739 176.541 110.664 179.294 107.921C180.99 106.43 182.771 105.097 184.428 103.605C175.898 106.607 166.989 109.04 159.286 113.62C148.749 119.89 144.188 129.028 137.774 138.782C138.198 139.527 138.454 140.251 138.791 140.997C139.044 141.74 139.257 142.464 139.471 143.187L139.576 143.56L139.621 143.8L139.726 144.281L139.916 145.223C140.042 145.86 140.192 146.442 140.279 147.109C140.364 147.776 140.448 148.51 140.511 149.191V149.193C140.664 150.489 140.693 151.795 140.596 153.093C140.553 153.73 140.553 154.312 140.469 154.922C140.385 155.531 140.237 156.084 140.108 156.653C139.982 157.221 139.855 157.771 139.747 158.299L139.702 158.495C139.684 158.552 139.671 158.612 139.663 158.672C139.642 158.707 139.629 158.743 139.621 158.781L139.494 159.11L139.239 159.744C138.849 160.708 138.354 161.619 137.764 162.463C137.658 162.637 137.532 162.792 137.424 162.945C138.867 162.705 140.329 162.506 141.794 162.354H141.792C142.2 162.196 142.64 162.158 143.067 162.245C143.604 162.191 144.141 162.349 144.571 162.683C147.476 163.165 150.493 163.693 153.462 164.349C155.396 159.167 162.97 162.825 166.739 163.628C174.34 165.258 182.148 165.786 189.761 167.56L189.76 167.56ZM167.884 177.381C162.689 171.441 154.033 169.761 146.345 168.502C147.663 173.762 148.045 179.504 150.929 183.913H150.932C156.135 180.652 161.888 178.437 167.887 177.381H167.884ZM146.478 305.206C150.487 304.945 154.497 304.681 158.506 304.463C151.294 295.893 147.589 285.155 141.32 275.858C134.768 266.148 126.62 257.729 120.253 247.949C120.016 247.981 119.774 247.981 119.534 247.949C119.913 248.76 120.319 249.679 120.743 250.776C122.487 255.925 123.731 261.242 124.455 266.644C125.34 272.805 126.152 278.37 126.747 282.401C127.445 286.39 127.851 288.91 127.361 289.106C126.915 289.28 125.664 287.002 124.308 283.035C122.756 277.867 121.618 272.574 120.912 267.21C119.979 261.03 119.11 255.505 118.346 251.606C118.262 251.209 118.198 250.838 118.114 250.466C117.882 250.817 117.69 251.146 117.434 251.497C117.622 253.68 117.516 255.881 117.121 258.037C116.499 261.4 115.166 264.581 113.217 267.352C110.793 270.514 108.093 273.442 105.153 276.098C100.161 281.19 94.6394 285.694 88.6912 289.534C86.8367 290.709 84.8372 291.621 82.7482 292.249C81.2439 292.666 80.4141 292.601 80.3325 292.383C80.2271 292.119 81.0121 291.702 82.2608 290.913V290.916C83.9969 289.827 85.6697 288.644 87.2766 287.365C92.6428 282.989 97.7823 278.327 102.682 273.401C105.477 270.892 108.109 268.193 110.559 265.321C112.403 262.973 113.8 260.284 114.677 257.397C115.061 256.082 115.357 254.877 115.562 253.805C101.94 269.278 65.4486 282.934 57.0665 267.961H57.0639C57.2509 272.119 57.733 276.258 58.5075 280.343C59.6324 285.628 61.1629 290.316 62.1772 293.781C63.2809 297.242 63.8105 299.498 63.3573 299.697C62.9042 299.896 61.5871 298.053 59.8747 294.82H59.8773C57.6908 290.477 56.0575 285.856 55.0196 281.077C54.2793 277.338 54.0001 273.517 54.1924 269.705C49.5296 274.639 44.4454 279.129 39.0004 283.116C30.149 290.151 22.4305 298.611 13.8186 305.997C26.632 308.166 40.8078 306.876 53.5996 307.597C67.9831 308.386 82.3692 308.386 96.7763 308.166C112.095 307.926 127.33 306.612 142.561 305.494C142.688 305.447 142.793 305.385 142.922 305.341H142.92C140.596 298.843 137.846 292.513 134.687 286.4C132.227 281.404 130.891 278.356 131.25 278.138C131.61 277.918 133.541 280.596 136.534 285.306H136.537C140.583 291.519 143.921 298.198 146.481 305.203L146.478 305.206ZM144.059 270.356L144.062 270.354C146.522 274.123 148.775 278.031 150.809 282.061C147.816 271.824 146.243 261.06 144.146 249.952C142.447 240.92 140.05 232.043 138.077 223.079C133.606 226.464 128.045 227.939 122.548 227.199C121.989 231.877 121.955 236.607 122.44 241.292C128.572 251.835 137.229 260.249 144.062 270.354L144.059 270.356ZM143.97 180.361C143.156 176.162 142.091 172.02 140.787 167.957C138.519 168.24 136.246 168.659 134.002 169.119C134.023 169.799 134.068 170.479 134.149 171.179V171.176C134.231 171.446 134.265 171.729 134.255 172.009C134.429 174.189 135.285 176.251 136.694 177.882C138.712 179.664 141.325 180.554 143.97 180.361L143.97 180.361ZM136.889 217.241C136.57 215.619 136.299 213.997 136.038 212.364C134.594 203.376 134.383 194.382 132.326 185.543C129.739 197.753 125.411 209.621 123.309 221.772C127.466 221.949 132.75 221.772 135.337 218.289H135.34C135.724 217.777 136.262 217.41 136.868 217.247L136.889 217.241ZM127.679 182.312C121.251 183.363 119.447 180.734 115.479 174.772C107.632 162.885 93.9885 158.204 80.5796 157.853C80.4057 157.85 80.2345 157.828 80.0685 157.785C73.7698 163.483 83.5512 170.671 86.6886 176.412V176.415C89.1254 180.718 90.8878 185.393 91.9099 190.267C99.7389 183.845 109.18 178.04 116.523 188.536C119.726 193.138 118.027 200.94 116.968 205.939C115.951 210.715 113.912 216.606 115.611 221.434C116.183 223.078 116.862 224.7 117.521 226.311C119.386 211.461 125.008 197.279 127.679 182.312L127.679 182.312ZM118.111 125.281C118.135 124.658 117.963 124.043 117.626 123.526L117.036 122.761L116.889 122.584L116.846 122.516L116.591 122.277C116.23 121.926 115.911 121.555 115.532 121.245L115.529 121.248C113.303 119.474 110.724 118.233 107.977 117.609C108.954 119.049 109.765 120.6 110.392 122.233C111.454 125.06 111.625 126.987 110.817 127.583C110.008 128.176 108.269 127.145 106.214 125.172C105.258 124.228 104.115 123.112 102.863 121.863C102.568 121.577 102.247 121.294 101.949 120.984C101.633 120.723 101.335 120.456 100.996 120.195C100.748 119.947 100.469 119.735 100.166 119.561C100.042 119.474 99.9208 119.376 99.8075 119.275L99.6389 119.123C99.5546 119.054 99.4018 119.014 99.2991 118.946C98.8301 118.706 98.3849 118.486 97.9398 118.265L97.8765 118.222L97.3813 118.107C96.6252 117.95 95.8613 117.841 95.092 117.778C93.6959 117.648 92.2918 117.596 90.8903 117.626C90.424 117.626 90.0051 117.648 89.6389 117.669C89.7654 117.824 89.9129 117.999 90.0393 118.151H90.042C91.2959 119.789 92.2917 121.626 92.9924 123.588C94.1384 126.854 94.0514 129.075 93.1847 129.505C92.2706 129.943 90.7217 128.519 88.6642 126.329C87.6474 125.232 86.4777 123.961 85.2053 122.799C83.9593 121.547 82.5078 120.538 80.9192 119.817C79.3149 119.531 77.6737 119.555 76.0799 119.885C74.1911 119.969 72.4735 120.037 71.0325 120.08C70.6716 120.102 70.3107 120.102 69.9945 120.127L69.9919 120.124C71.6384 121.354 73.0346 122.903 74.1094 124.682C74.9761 126.114 75.4635 127.757 75.5188 129.445C75.4371 130.664 75.1183 131.306 74.6336 131.418C73.6168 131.638 72.513 129.774 70.2079 128.019C67.1705 125.725 63.6642 124.179 59.9578 123.507C56.8256 122.894 53.6064 122.946 50.4954 123.659C52.0207 124.089 53.5091 124.639 54.9501 125.303C59.8948 127.741 62.2052 130.299 61.7601 131.154C61.2728 132.095 58.1353 131.219 53.3801 130.275C52.574 130.122 51.7047 130.013 50.7932 129.883V129.886C51.3939 130.253 51.9207 130.735 52.3422 131.309C53.0693 132.267 53.425 133.47 53.3407 134.686C53.2116 135.407 52.9771 135.78 52.7506 135.802C52.524 135.824 52.2632 135.451 51.9655 134.838C51.5888 134.177 51.0988 133.589 50.5219 133.108C48.259 131.886 45.5983 131.709 43.2034 132.626C41.5358 133.045 39.979 133.837 38.6407 134.947C38.6407 134.991 38.5143 135.407 38.5143 135.407C38.5196 135.459 38.5117 135.511 38.4932 135.56C38.4642 135.609 38.43 135.652 38.3878 135.69C38.3878 135.889 38.43 136.15 38.4511 136.371C38.0506 136.15 39.3204 137.895 40.2978 138.959H40.2951C41.2119 140.02 42.1813 141.03 43.2034 141.982C43.3536 142.113 43.3536 142.243 43.5644 142.42L44.0543 142.681L44.2862 142.812L44.3072 142.66V142.662C44.3994 142.665 44.4916 142.657 44.5838 142.641C45.0712 142.51 45.6007 142.336 46.1091 142.159C46.9653 141.623 47.8952 141.225 48.8672 140.972C48.9779 140.948 49.0912 140.932 49.2071 140.932C49.5654 140.719 49.9737 140.605 50.3873 140.602C53.9516 140.428 57.5817 140.012 61.2066 139.688C62.3999 139.718 63.5907 139.511 64.7076 139.078C65.6191 138.55 66.1064 137.522 66.9547 136.798H66.9573C67.2919 136.564 67.5448 136.226 67.6791 135.832C67.7687 135.364 67.7081 134.879 67.5079 134.449C67.0363 133.344 66.4067 132.316 65.6401 131.401C64.3045 129.692 63.2798 128.729 63.4984 128.288C63.7171 127.85 65.2397 128.111 67.2761 129.581V129.583C68.5458 130.462 69.6075 131.633 70.3741 133.001C70.9721 134.011 71.2197 135.203 71.0722 136.376C71.0117 136.836 70.8773 137.282 70.6718 137.693C70.9879 137.845 71.3067 137.998 71.6465 138.131C74.1307 137.867 76.7387 137.625 79.4337 137.386H79.4311C80.4032 136.292 81.1909 135.042 81.7651 133.682C82.184 132.395 82.1682 130.999 81.723 129.72C81.4701 129.194 81.2567 128.688 81.0644 128.196C80.8115 127.736 80.5981 127.341 80.4058 127.012C80.0659 126.331 79.9395 125.915 80.087 125.793C80.2345 125.67 80.6191 125.836 81.2145 126.299L81.2172 126.301C81.5886 126.565 81.9442 126.857 82.2762 127.175C82.6371 127.613 83.0612 128.163 83.5064 128.797C83.9332 129.556 84.2493 130.378 84.4416 131.235C84.5364 131.739 84.5996 132.248 84.6312 132.759L84.4416 134.403C84.2124 135.304 83.8778 136.172 83.4431 136.988C86.902 136.637 90.4663 136.221 94.0648 135.649V135.652C94.9552 135.192 95.7824 134.618 96.5305 133.94C98.1875 132.588 98.9752 130.389 98.5642 128.244C98.1849 126.636 97.5395 125.11 96.657 123.727C96.0195 122.655 95.6797 122.018 95.8483 121.822C96.0169 121.626 96.6991 121.928 97.6949 122.785C99.2044 124.021 100.35 125.667 101.006 127.54C101.491 128.963 101.581 130.498 101.259 131.97C101.072 132.857 100.735 133.704 100.261 134.468C100.706 134.381 101.172 134.291 101.596 134.182C103.124 133.744 104.61 133.328 106.075 132.912C107.645 132.302 109.17 131.728 110.677 131.137H110.68C111.947 130.666 113.161 130.065 114.31 129.338C115.327 128.732 116.259 127.986 117.089 127.126C117.597 126.631 117.956 125.988 118.111 125.281L118.111 125.281ZM116.931 236.755C116.91 236.028 116.931 235.329 116.954 234.621C116.865 234.512 116.791 234.387 116.744 234.251C113.899 226.327 110.801 220.707 111.883 212.529C111.312 213.035 110.703 213.517 110.142 213.977L109.505 214.505V214.502C109.223 214.712 108.925 214.902 108.619 215.073C108.053 215.397 107.447 215.648 106.817 215.816C105.772 216.083 104.71 216.257 103.638 216.344C103.214 216.41 102.703 216.453 102.405 216.54L102.402 216.538C102.002 216.603 101.609 216.723 101.238 216.889C100.653 217.142 100.15 217.566 99.7943 218.108C99.2385 218.886 98.5667 219.566 97.8002 220.124C97.0546 220.573 96.2222 220.843 95.3608 220.913C94.9472 220.886 94.5362 220.837 94.1305 220.761C93.7591 220.622 93.4035 220.448 93.0689 220.233C92.5605 219.839 92.1442 219.33 91.8597 218.742C91.0141 216.706 91.3091 215.629 91.4804 215.588C91.757 215.479 92.052 216.66 93.0294 217.977H93.0267C93.5115 218.668 94.336 219.009 95.1474 218.851C95.6874 218.72 96.1906 218.467 96.6226 218.108C97.0573 217.626 97.4445 217.095 97.7712 216.529C98.3533 215.544 99.2016 214.761 100.211 214.271C101.159 213.808 102.168 213.492 103.203 213.329C104.128 213.188 105.039 212.986 105.938 212.72C106.317 212.583 106.678 212.407 107.02 212.192C107.186 212.099 107.342 211.987 107.487 211.862L108.124 211.318C108.98 210.632 109.781 209.878 110.521 209.059C110.885 208.667 111.243 208.27 111.625 207.876C111.902 207.459 112.215 207.018 112.51 206.605C112.703 206.145 112.724 205.859 112.895 205.464C112.958 204.936 113.064 204.455 113.127 203.864C113.169 203.206 113.19 202.746 113.274 201.913C113.359 201.276 113.422 200.664 113.551 199.984V199.986C114.112 197.763 114.149 195.433 113.656 193.191C113.172 191.392 111.923 189.917 110.261 189.18C109.844 189.003 109.42 188.848 108.986 188.72L108.33 188.565L107.99 188.499L107.84 188.453L107.798 188.431L107.776 188.366L107.779 188.369C106.978 188.279 106.169 188.391 105.419 188.695C103.941 189.313 102.608 190.255 101.515 191.458C99.7548 193.36 98.1373 195.395 96.6805 197.553C95.5978 199.077 94.9102 199.918 94.6863 199.788C94.4624 199.657 94.7495 198.626 95.4924 196.851H95.4898C96.5435 194.28 97.945 191.874 99.6468 189.705C100.4 188.826 101.283 188.072 102.26 187.471C98.5509 189.574 95.1102 192.143 92.0127 195.118C91.0775 195.907 89.1281 195.845 88.9147 194.263C87.8346 185.134 83.7962 176.648 77.4581 170.185C76.0355 168.846 73.3274 167.137 72.7663 165.004C71.6019 160.663 74.7 156.916 78.1351 154.415V154.418C78.1957 154.151 78.2879 153.893 78.4117 153.65C78.5013 153.185 78.7147 152.752 79.0282 152.401C80.8722 150.143 83.4196 147.01 79.4497 145.848C75.9697 144.953 72.382 144.596 68.8017 144.795C62.7954 144.928 56.8548 145.761 50.8723 146.069C50.6905 146.167 50.4982 146.24 50.298 146.284C44.5261 147.753 41.1519 159.194 38.5649 164.016V164.019C37.0949 166.166 35.7409 168.395 34.508 170.694C34.4659 170.925 34.3868 171.149 34.2762 171.35C33.9021 172.281 33.8284 173.312 34.0628 174.289C34.8057 176.763 35.8331 179.133 36.8209 181.523C37.772 182.804 38.3462 184.342 38.4753 185.95C38.5675 187.482 38.1407 189.004 37.2661 190.245C36.9078 191.124 36.46 191.962 35.9305 192.745C35.0111 194.109 33.9573 195.374 32.7877 196.515C32.5348 196.928 32.2608 197.347 31.9816 197.785C30.0084 200.833 25.9568 209.335 32.0474 209.643C32.7034 209.58 33.362 209.567 34.0179 209.599C34.5738 209.618 35.127 209.675 35.6723 209.773C36.2624 209.928 36.9025 210.124 37.5611 210.342C38.5174 210.671 39.5791 211.393 39.8741 211.461C39.9189 211.393 39.7898 211.482 39.9584 211.374C39.8925 211.504 40.8909 210.693 40.7856 210.764C41.6339 209.967 41.9553 208.737 41.6154 207.607C41.3257 206.497 40.7382 205.493 39.9189 204.714C39.4737 204.246 38.8916 203.947 38.2646 203.86C38.0723 203.751 37.7535 204.012 37.5612 204.056C37.4137 204.132 37.2372 204.124 37.0949 204.034C37.0027 203.901 36.9737 203.732 37.0106 203.574C37.0212 203.21 37.195 202.872 37.4795 202.66C38.5886 201.797 40.0981 201.729 41.2756 202.486C42.8799 203.343 44.1128 204.788 44.7345 206.54C45.1744 207.643 45.293 208.854 45.0743 210.027C44.832 211.319 44.2024 212.5 43.2698 213.401L43.0775 213.6L42.8641 213.796L42.7798 213.842L42.4637 214.081L42.1449 214.321C42.0185 214.408 41.7814 214.52 41.5943 214.626C40.7224 215.091 39.7055 215.178 38.7703 214.868C38.5807 214.783 38.3963 214.688 38.2197 214.579C37.5612 214.9 36.8683 215.135 36.1544 215.281C35.7145 215.396 35.2667 215.486 34.8188 215.545C34.3762 216.305 34.0074 217.105 33.715 217.935C34.0074 219.309 34.4025 220.656 34.8952 221.968C35.43 223.222 36.4205 224.213 37.6507 224.73C37.9062 224.825 38.1565 224.942 38.3936 225.081C38.6465 225.19 38.9047 225.255 39.1154 225.364C39.4948 225.585 39.7292 225.802 39.7503 226.066C39.7714 226.327 39.5369 226.572 39.1602 226.812C38.931 226.945 38.6886 227.057 38.4384 227.141C38.1223 227.206 37.7192 227.272 37.274 227.315H37.2714C36.4178 227.321 35.5749 227.141 34.7924 226.79C34.6528 226.932 34.5026 227.065 34.3446 227.182C32.5585 229.925 35.4036 232.685 38.1407 232.641H38.1433C38.8493 232.611 39.5342 232.891 40.0243 233.417C40.5142 233.942 40.7645 234.658 40.7092 235.384C40.7777 235.656 40.8145 235.937 40.8172 236.217C40.5669 241.401 42.7851 246.384 46.755 249.565C47.2687 249.568 47.7824 249.511 48.2829 249.391C50.5748 248.681 52.7191 247.535 54.6053 246.014C56.1754 244.83 57.216 244 57.6375 244.283C58.059 244.566 57.7218 245.992 56.4072 247.856L56.4099 247.853C55.069 249.717 53.2961 251.2 51.2545 252.172C52.677 252.743 54.1654 253.127 55.6802 253.312C56.3598 253.203 57.079 253.073 57.9089 252.939V252.942C62.5032 251.897 66.9315 250.185 71.0622 247.853C74.8978 245.551 78.2141 243.009 81.0149 240.971C82.1187 239.526 83.0802 238.146 83.9206 236.897C86.4469 233.106 87.7826 230.518 88.291 230.736C88.6756 230.866 88.2488 233.386 86.5734 237.158C87.6771 236.524 88.3753 236.244 88.5676 236.478C88.8626 236.875 87.3584 238.78 84.6634 241.518C84.3868 241.779 84.1128 242.068 83.8125 242.351V242.353C82.6192 244.245 81.2836 246.041 79.8241 247.723L81.1808 247.331C92.9139 243.627 104.076 237.49 116.531 237.049C116.647 236.932 116.781 236.834 116.924 236.755L116.931 236.755ZM94.1066 253.937C99.7124 251.856 110.869 249.423 113.393 242.805C103.696 243.991 94.9759 248.724 85.6402 251.66C81.5649 252.934 76.5595 253.459 71.8914 254.577L71.894 254.575C69.7549 255.87 67.4657 256.88 65.0793 257.576C64.5076 257.707 63.9544 257.816 63.4038 257.927C63.172 258.104 62.9165 258.232 62.6847 258.409C73.4722 263.89 83.2536 258.006 94.1073 253.938L94.1066 253.937ZM106.156 255.255C102.932 256.615 99.6649 257.693 96.9909 258.675C84.6833 263.277 73.3872 269.327 61.5145 263.957C66.5751 274.465 92.0996 266.08 106.164 255.263L106.156 255.255ZM30.7049 188.81H30.7075C31.3793 187.335 31.8508 185.773 32.1037 184.164C30.5784 180.306 27.649 175.421 28.816 171.211C28.8582 171.08 28.9214 170.925 28.9636 170.794C25.9498 166.301 23.1707 161.522 20.0333 157.16C16.6165 152.428 18.7371 165.469 19.0348 166.871H19.0375C19.7487 170.906 21.1054 174.79 23.0548 178.363C25.6918 181 27.9363 184.021 29.7171 187.33C30.0569 187.811 30.3967 188.293 30.7155 188.796L30.7049 188.81ZM27.0748 195.431C27.3066 195.039 27.52 194.642 27.7544 194.269H27.7571C27.4963 194.054 27.2723 193.793 27.0985 193.499C26.5268 192.557 25.9525 191.507 25.3598 190.451C23.9584 188.434 22.4541 186.488 21.0105 184.575C20.0569 186.369 19.5669 188.385 19.588 190.429C19.9778 194.759 23.4605 195.746 27.0852 195.417L27.0748 195.431Z" fill="#FFC478"/>
<path d="M324.688 303.727C324.769 303.926 323.802 304.641 321.803 305.414C318.897 306.407 315.812 306.693 312.786 306.247C308.349 305.556 304.074 304.04 300.159 301.776C295.483 299.087 291.007 296.039 286.771 292.659C278.862 286.988 271.302 280.816 264.132 274.183C258.7 268.833 256.134 264.955 256.431 264.626C256.811 264.212 260.143 267.565 265.807 272.213C271.471 276.927 279.769 282.84 288.891 289.681V289.679C293.006 292.969 297.298 296.011 301.749 298.795C305.3 301.027 309.165 302.671 313.206 303.672C320.116 305.182 324.494 303.035 324.686 303.726L324.688 303.727Z" fill="#FFC478"/>
<path d="M323.264 190.463C323.775 191.426 314.821 196.929 306.12 206.266C304.104 208.457 302.226 210.775 300.498 213.211C299.128 215.195 297.935 217.298 296.934 219.503C295.213 223.253 294.834 225.903 294.26 225.903C293.857 225.925 293.303 223.01 294.555 218.588C295.311 216.036 296.388 213.597 297.761 211.336C299.434 208.601 301.367 206.048 303.53 203.716C312.761 193.815 322.924 189.584 323.264 190.463L323.264 190.463Z" fill="#FFC478"/>
<path d="M236.206 245.541C240.11 248.369 242.802 251.332 242.251 252.181C241.701 253.03 238.05 251.392 234.145 248.567C230.241 245.743 227.528 242.776 228.099 241.946C228.674 241.119 232.304 242.716 236.206 245.541Z" fill="#FFC478"/>
<path d="M234.723 283.551C238.013 286.267 239.773 288.349 239.444 288.733C239.114 289.117 236.878 287.818 233.269 285.707C228.456 282.947 223.877 279.774 219.583 276.217C217.181 274.135 215.047 271.741 213.24 269.09C211.788 266.834 210.764 264.314 210.218 261.664C210.002 260.635 209.905 259.582 209.923 258.529C209.87 257.772 209.928 257.01 210.094 256.273C210.326 255.054 210.561 254.409 210.814 254.409C211.066 254.409 211.28 255.067 211.493 256.273C211.567 256.997 211.709 257.71 211.917 258.406C212.102 259.28 212.349 260.137 212.663 260.973C213.464 263.177 214.57 265.251 215.948 267.128C217.75 269.412 219.755 271.518 221.933 273.42C226.662 277.48 231.456 280.787 234.723 283.552L234.723 283.551Z" fill="#FFC478"/>
<path d="M168.653 260.011L169.802 263.124L166.172 262.251C165.811 262.183 165.555 262.052 165.155 261.946L163.798 261.685L162.618 261.445L162.615 261.44C162.007 264.703 161.751 268.025 161.851 271.346C161.917 273.174 161.999 274.897 162.191 276.527C162.317 278.149 162.552 279.619 162.742 280.998C163.527 286.411 164.248 289.701 163.78 289.838C163.419 289.968 161.936 286.923 160.513 281.464C160.173 280.103 159.791 278.593 159.536 276.927L159.538 276.93C159.198 275.147 158.959 273.349 158.819 271.539C158.4 267.231 158.672 262.885 159.625 258.669L160.028 257.069L162.094 257.554C162.412 257.619 162.684 257.728 163.05 257.837L164.067 258.014C162.349 253.442 160.355 249.202 158.614 245.212H158.616C156.875 241.381 155.337 237.451 154.004 233.448C151.756 226.41 151.756 221.985 152.115 221.866C152.686 221.71 153.664 226.182 156.382 232.533C157.76 235.755 159.522 239.524 161.601 243.731C163.935 248.306 166.024 253.011 167.86 257.825C168.124 258.565 168.398 259.286 168.653 260.01L168.653 260.011Z" fill="#FFC478"/>
<path d="M160.06 204.187V204.208C160.06 204.187 160.06 204.187 160.039 204.187H160.06Z" fill="#FFC478"/>
<path d="M110.81 193.208C111.653 194.31 112.035 195.714 111.874 197.107C111.79 197.94 111.642 198.4 111.49 198.4C111.339 198.4 111.129 197.984 110.939 197.181C110.723 196.185 110.236 195.273 109.54 194.552C108.289 193.333 105.114 194.751 102.625 197.339C103.091 197.423 103.536 197.513 104.045 197.6H104.042C104.864 197.733 105.668 197.962 106.442 198.277C106.866 198.498 107.293 198.759 107.693 199.02V199.023C108.091 199.339 108.46 199.69 108.795 200.076C109.127 200.436 109.4 200.846 109.601 201.295L109.964 201.954C110.154 202.346 110.133 202.37 110.238 202.613C110.344 202.852 110.365 202.942 110.452 203.181C110.517 203.511 110.578 203.837 110.644 204.191C110.723 205.005 110.536 205.824 110.112 206.515C109.703 207.116 109.148 207.593 108.497 207.895C108.041 208.107 107.567 208.276 107.08 208.398C106.123 208.662 105.486 208.771 104.619 208.948L103.876 209.125L103.874 209.122C103.76 209.144 103.652 209.19 103.555 209.253C103.489 209.253 103.302 209.492 103.176 209.582L102.643 210.151L101.495 211.487H101.497C101.089 212.029 100.628 212.521 100.12 212.957C99.7746 213.261 99.39 213.512 98.9737 213.702C98.5048 213.89 98.0043 213.988 97.4985 213.988C97.0586 213.991 96.6212 213.914 96.205 213.767C96.0127 213.699 95.8204 213.68 95.6334 213.593L95.2487 213.416H95.2514C94.3715 212.981 93.6707 212.235 93.2756 211.316C92.8936 210.437 92.8409 209.443 93.1281 208.529L93.2335 208.202L93.381 207.917H93.3836C93.5101 207.644 93.676 207.394 93.8736 207.174C94.1792 206.855 94.5375 206.597 94.9326 206.403C95.3357 206.183 97.4589 205.682 97.5432 205.184C97.6275 204.792 97.2034 204.792 96.8636 204.681C95.1434 204.09 94.7983 203.19 95.7387 201.35L96.0785 200.67V200.672C96.4711 200.063 96.8952 199.478 97.3509 198.92C97.3509 198.874 98.5601 197.32 98.5601 197.32C100.17 195.238 102.246 193.597 104.609 192.538C105.654 192.078 106.779 191.847 107.917 191.861C109.016 191.893 110.059 192.378 110.81 193.208L110.81 193.208ZM104.277 206.774C105.826 206.382 107.865 205.413 106.782 203.421C106.782 203.399 106.569 203.048 106.569 203.048C106.442 202.828 106.376 202.498 106.165 202.368C105.212 200.789 102.33 200.988 99.5269 199.87C99.6955 199.935 96.8531 202.762 98.3177 203.244C98.8051 203.399 99.1871 203.092 99.5901 203.508H99.5875C99.9405 203.87 100.151 204.354 100.178 204.866C100.259 206.513 98.373 208.243 97.2271 208.877C96.3156 209.405 95.5938 210.195 96.529 211.136C97.3034 211.67 98.3176 211.653 99.0737 211.093C99.756 210.404 100.38 209.656 100.939 208.856C101.85 207.862 103.002 207.144 104.277 206.774L104.277 206.774Z" fill="#FFC478"/>
<path d="M87.3888 207.273C87.8129 207.472 87.7734 209.102 86.9673 211.614V211.611C85.7212 214.896 83.9325 217.927 81.6828 220.575C76.4641 226.647 71.0112 229.915 70.4157 229.191C69.7361 228.355 74.1091 223.822 78.9906 218.142C81.351 215.25 83.3399 212.531 84.6544 210.558C85.9901 208.457 86.9226 207.031 87.3889 207.273L87.3888 207.273Z" fill="#FFC478"/>
<path d="M64.2036 190.003C65.3838 192.283 65.8817 193.815 65.4786 194.123C65.0755 194.431 63.8453 193.377 62.1672 191.535C60.4496 189.739 58.35 187.086 55.7394 184.783H55.7368C53.4607 182.96 50.8896 181.564 48.1418 180.663C45.7419 180.16 44.214 179.656 44.2588 179.139C44.2798 178.658 45.8078 178.225 48.3104 178.067C51.8562 178.268 55.2492 179.615 58.0102 181.923C60.5207 184.215 62.6176 186.949 64.2035 190.003L64.2036 190.003Z" fill="#FFC478"/>
</g>
<defs>
<filter id="filter0_d_118_152" x="0" y="0.525146" width="374.061" height="329.909" filterUnits="userSpaceOnUse" color-interpolation-filters="sRGB">
<feFlood flood-opacity="0" result="BackgroundImageFix"/>
<feColorMatrix in="SourceAlpha" type="matrix" values="0 0 0 0 0 0 0 0 0 0 0 0 0 0 0 0 0 0 127 0" result="hardAlpha"/>
<feOffset dx="5" dy="5"/>
<feGaussianBlur stdDeviation="5"/>
<feComposite in2="hardAlpha" operator="out"/>
<feColorMatrix type="matrix" values="0 0 0 0 0.929412 0 0 0 0 0.647059 0 0 0 0 0.784314 0 0 0 1 0"/>
<feBlend mode="normal" in2="BackgroundImageFix" result="effect1_dropShadow_118_152"/>
<feBlend mode="normal" in="SourceGraphic" in2="effect1_dropShadow_118_152" result="shape"/>
</filter>
</defs>
</svg>
