<svg width="344" height="349" viewBox="0 0 344 349" fill="none" xmlns="http://www.w3.org/2000/svg">
<g filter="url(#filter0_d_219_27)">
<path d="M54.7195 50.924L54.7403 50.9436L54.9277 51.0999C55.9166 51.9209 57.6004 52.1236 59.0421 53.5139C59.5861 54.1418 59.8177 54.9578 59.6797 55.7543C59.6017 56.2136 59.4481 56.6558 59.2243 57.0687C58.8548 57.616 58.5451 57.8897 58.3499 57.8237C58.1547 57.7577 58.0402 57.3961 58.0012 56.7584C57.9595 56.2112 57.8138 55.2339 57.322 55.1361C56.929 54.97 56.5126 54.8576 56.0858 54.8087C58.1443 59.253 60.1664 64.4302 62.2796 69.8786C65.387 67.5234 68.843 64.3545 67.5704 60.5749C66.1963 57.8116 65.2282 54.887 64.6869 51.8797C64.6687 51.5572 64.7467 51.2371 64.9133 50.9537C65.0486 50.3062 65.5327 49.7736 66.1911 49.5439C68.5775 48.6839 71.0759 48.1196 73.6182 47.863C73.5557 47.7628 73.4855 47.6676 73.4126 47.5723C73.004 46.8247 72.4445 46.1552 71.7652 45.6031L71.1823 45.1389L70.7112 44.8481C70.3833 44.6429 70.0398 44.4596 69.6833 44.3008C68.9806 43.9686 68.2493 43.6949 67.4998 43.4799C64.6606 42.6101 62.7061 42.0506 62.7894 41.5864C62.8701 41.1809 64.7829 40.873 68.0567 41.22C68.9806 41.325 69.8914 41.5205 70.7737 41.799C71.3046 41.9603 71.8224 42.1679 72.3143 42.4171L73.1184 42.8227L73.7561 43.2478C74.7814 43.9539 75.6428 44.8481 76.2882 45.8767C76.6265 46.5095 77.1132 47.0641 77.7066 47.499C77.7742 47.5259 77.8419 47.543 77.9148 47.5577C79.6844 47.4819 81.4541 47.4209 83.2628 47.306C84.6004 46.6879 85.3655 45.779 85.3213 44.9117C85.2198 42.8423 83.1014 41.4716 83.5516 41.1052C83.6974 40.9097 84.2101 41.027 85.0351 41.3544C86.3936 42.0214 87.3824 43.2039 87.752 44.6014C87.8873 45.2073 87.8795 45.8328 87.7286 46.4363C89.2536 46.0063 90.6381 45.2147 91.7415 44.1372C92.452 43.4482 92.9646 42.6004 93.2249 41.6744C93.4045 40.9366 93.3603 40.1695 93.1 39.4536C92.7513 38.2735 91.5594 37.2644 91.9341 36.9029C92.0772 36.7074 92.4468 36.6903 93.0037 36.8247C93.3629 36.8809 93.7038 37.0226 93.9901 37.2327C94.4533 37.5112 94.8567 37.863 95.1846 38.276C96.0825 39.3485 96.5093 40.7021 96.3792 42.0629C96.3505 42.2828 96.3089 42.5027 96.2543 42.7202C96.7904 42.3122 97.2822 41.8993 97.8001 41.4448H97.7975C98.2061 40.983 98.586 40.4993 98.9296 39.9935C99.6998 39.0798 100.02 37.8972 99.804 36.749C99.7415 36.5364 99.6791 36.3434 99.6166 36.1308C99.5541 35.9183 99.3928 35.6886 99.3251 35.4932C99.1638 35.2317 99.156 34.9117 99.3043 34.6429C99.5697 34.4719 99.9055 34.4279 100.213 34.5256C100.465 34.5672 100.71 34.6527 100.931 34.7773C101.274 35.0045 101.6 35.2561 101.899 35.5298C102.357 36.0746 102.693 36.6976 102.888 37.3671C103.38 37.0201 103.916 36.6732 104.47 36.3434C104.535 36.2847 104.595 36.2066 104.658 36.1479C105.342 35.4394 105.941 34.6624 106.445 33.8318C106.76 33.4091 106.885 32.8911 106.797 32.3829C106.529 31.4741 105.417 30.7191 105.665 30.294C105.745 30.0986 106.076 30.0033 106.591 30.0033V30.0057C107.468 30.1035 108.275 30.5041 108.853 31.1272C109.711 32.1656 109.946 33.5435 109.472 34.7773C114.739 34.5819 119.143 39.1262 123.26 42.5612C121.987 34.6428 120.587 26.7389 114.391 20.538L114.388 20.5405C107.661 13.8536 98.3388 10.0052 88.5433 9.86881C75.1954 9.52432 62.4279 14.8628 55.5211 23.6853C58.1314 21.352 61.1606 19.4707 64.4685 18.1221C67.5004 16.8492 70.6884 15.9403 73.9596 15.4102C74.6597 15.0632 75.417 14.6968 76.2653 14.3156C82.0141 11.8382 88.3773 10.8902 94.6618 11.5792C95.5649 11.6745 96.5121 11.7747 97.3371 11.9261C98.2454 12.0825 99.138 12.3024 100.01 12.5834C101.629 13.0794 103.19 13.7195 104.673 14.4989C107.193 15.7718 109.467 17.4307 111.404 19.4049C112.754 20.7364 113.785 22.3221 114.43 24.0568C114.841 25.293 114.779 26.026 114.573 26.0846C114.037 26.219 113.093 23.6903 109.696 21.0418C107.719 19.5148 105.548 18.2224 103.235 17.1938C101.868 16.5879 100.453 16.0846 99.003 15.6839C98.2665 15.4689 97.5196 15.2929 96.7597 15.161C95.8852 15.0046 95.1123 14.9485 94.2509 14.8507V14.8532C91.1618 14.4842 88.0311 14.5038 84.9471 14.9094C90.6282 15.2758 96.143 16.8688 101.059 19.5612C104.424 21.313 107.274 23.8173 109.356 26.8541C109.928 27.6677 110.358 28.562 110.628 29.5026C110.816 30.1598 110.836 30.5263 110.628 30.6216C109.754 31.1249 106.928 26.39 99.0239 23.2043C98.4409 22.9722 97.8294 22.762 97.21 22.5275H97.2126C98.3238 23.7393 99.2581 25.0831 99.9894 26.5246C100.359 27.1989 100.609 27.9221 100.731 28.6722C100.814 29.195 100.814 29.4638 100.689 29.4931C100.565 29.5224 100.359 29.2976 100.075 28.8945V28.8921C99.6979 28.2862 99.2789 27.7047 98.8183 27.1525C97.2256 25.088 95.279 23.2874 93.0565 21.8215C92.6662 21.5698 92.255 21.2986 91.8438 21.0665C89.4574 20.6048 87.0319 20.3409 84.5986 20.2749H84.1249C86.7924 21.1838 89.2517 22.5618 91.3675 24.3331C93.5535 26.0825 95.1385 28.4011 95.9165 30.9981C96.372 32.7963 96.2471 33.7809 96.0623 33.8396C95.4247 34.035 95.0525 29.6665 89.8477 26.0557V26.0532C86.7845 23.9887 83.2583 22.6132 79.5365 22.0317C77.2099 21.6285 74.8391 21.4991 72.4785 21.6456C71.1434 21.9804 69.8292 22.3859 68.5462 22.8648C72.5956 23.1531 76.515 24.3308 79.9893 26.3048C82.7557 27.8661 85.1812 29.9086 87.1306 32.3249C88.3642 34.1231 88.8794 35.1835 88.6921 35.3032C88.5047 35.4205 87.5808 34.6044 86.1209 33.158V33.1556C83.927 31.2474 81.4703 29.6227 78.8157 28.3253C74.9407 26.4636 70.6105 25.6011 66.264 25.8332C64.3408 25.9163 62.454 26.3488 60.7078 27.1086C60.294 27.436 59.862 27.7463 59.4716 28.0932C58.441 28.985 57.499 29.9623 56.6532 31.0105C56.3617 31.4185 56.0962 31.8045 55.8282 32.1905C57.7982 31.3256 59.8906 30.7393 62.0428 30.4534C66.0844 29.8426 70.222 30.2189 74.0635 31.548C76.6191 32.4129 78.9118 33.8446 80.7491 35.721C81.915 37.0526 82.2949 37.9248 82.1674 38.0396C81.9826 38.2155 81.2435 37.5387 79.8356 36.5126L79.8382 36.5101C77.889 35.1517 75.6821 34.1573 73.3347 33.5758C69.8241 32.6816 66.1362 32.5765 62.5738 33.2656C60.4632 33.6198 58.4255 34.2917 56.544 35.2543C55.3781 35.8627 54.2954 36.5981 53.3143 37.4435C53.2935 37.463 53.2935 37.463 53.2935 37.4826C53.7151 37.226 54.1731 37.0232 54.652 36.884C55.1699 36.6787 55.7059 36.5224 56.2577 36.4198C56.6897 36.3245 57.1321 36.2463 57.572 36.1681C58.0118 36.0899 58.4464 36.0337 58.868 35.958C59.2896 35.8823 59.8361 35.8798 60.2863 35.8603H60.2889C61.2128 35.7699 62.1418 35.7577 63.0658 35.8212C66.1444 35.9849 69.1581 36.7154 71.9345 37.9663C76.5669 40.1115 78.7867 42.2542 78.563 42.5645C78.2715 42.9896 75.5363 41.5603 71.0313 40.1017C68.4367 39.2612 65.7093 38.8239 62.964 38.8068C62.2067 38.8019 61.452 38.8459 60.7024 38.9412C60.3095 38.9803 59.94 38.9607 59.5366 39.0365C59.1332 39.1122 58.6621 39.2124 58.2405 39.3101C57.819 39.4078 57.3661 39.486 56.9237 39.5618H56.9211C56.5802 39.6497 56.2419 39.7597 55.9165 39.8916C55.56 40.0015 55.2217 40.1579 54.9068 40.3534C54.5711 40.5293 54.2536 40.737 53.9595 40.9715C53.3896 41.3868 52.8899 41.8828 52.4787 42.4399C52.4553 43.3488 52.4995 44.2161 52.5594 45.0468L52.562 45.0493C53.0486 44.8269 53.5509 44.6339 54.0636 44.4678L54.2509 44.4092L54.3524 44.3701H54.3733L54.558 44.3017H54.5788L54.6413 44.2821L55.1123 44.221C55.422 44.1819 55.6953 44.1453 56.018 44.1257C57.9542 44.0549 59.893 44.2235 61.7798 44.629C63.3204 44.9198 64.476 45.1763 65.2983 45.3815C66.1206 45.5868 66.5761 45.748 66.5761 45.9288C66.5761 46.1096 66.0999 46.2391 65.2592 46.371V46.3735C64.0335 46.4908 62.8025 46.5299 61.5742 46.4883C59.8228 46.3979 58.0661 46.4566 56.3277 46.6642L55.6485 46.8181L55.357 46.8792L55.2945 46.8988L55.1072 46.9745L55.1098 46.9721C54.6101 47.1675 54.1286 47.4021 53.668 47.6684C53.504 47.7637 53.2984 47.881 53.111 47.9958C53.2568 48.5382 53.452 49.0683 53.694 49.579C53.9022 49.9845 53.9855 50.0823 54.1702 50.3999L54.6621 50.8812L54.7195 50.924ZM54.6388 50.8654V50.8458L54.6154 50.8483L54.6388 50.8654ZM98.633 98.799L98.5315 98.8577L98.2401 99.0702H98.2375C97.4437 99.6639 96.702 100.316 96.0176 101.02C96.2024 100.961 96.3481 100.905 96.5095 100.846C97.6754 100.536 99.0624 100.399 100.007 100.131C100.944 99.8814 101.824 99.4685 102.602 98.9163C103.127 98.5645 103.494 98.0392 103.63 97.4479C103.64 97.3697 103.64 97.2916 103.63 97.2134C103.627 97.1034 103.614 96.9935 103.591 96.886C103.5 96.9495 103.403 97.0008 103.299 97.0424C102.427 97.3942 101.535 97.6898 100.621 97.9317C100.418 98.0074 100.189 98.0661 99.9629 98.1418C99.812 98.2176 99.6532 98.2835 99.4919 98.3373C99.2447 98.4472 99.0052 98.5694 98.771 98.7038L98.633 98.799ZM195.556 180.847C195.308 181.057 195.1 181.307 194.939 181.58C194.559 182.181 193.934 182.606 193.208 182.76C193.034 182.797 192.852 182.809 192.672 182.799L192.282 182.76C191.93 182.689 191.597 182.543 191.314 182.333C191.269 182.301 191.228 182.262 191.191 182.218C190.869 182.047 190.559 181.854 190.265 181.639C189.997 181.426 189.731 181.177 189.463 180.926V180.923C189.344 181.382 189.135 181.815 188.846 182.198L188.555 182.641L188.264 182.931L187.972 183.205L187.85 183.359L187.769 183.42C187.727 183.459 187.543 183.611 187.543 183.611H187.54C187.282 183.799 187.014 183.972 186.739 184.133C186.346 184.388 185.893 184.551 185.422 184.615C184.977 184.686 184.521 184.595 184.144 184.366C183.826 184.168 183.571 183.894 183.405 183.574C183.23 183.264 183.087 182.941 182.973 182.606C182.84 182.233 182.621 181.891 182.335 181.602C182.192 181.426 181.575 181.118 181.489 181.197C181.409 181.216 181.305 181.236 180.956 181.602C180.565 182.054 180.222 182.538 179.928 183.051C179.506 183.74 179.033 184.4 178.507 185.023C177.388 186.191 176.113 187.217 174.71 188.074C173.143 189.061 171.353 189.689 169.479 189.912C168.428 189.995 167.368 189.897 166.354 189.621C165.841 189.455 165.346 189.247 164.873 189.003C164.287 189.643 163.655 190.244 162.978 190.801C161.862 191.771 160.581 192.562 159.189 193.137C157.555 193.818 155.657 193.647 154.19 192.69C153.552 192.323 153.024 191.996 152.626 191.742L152.357 191.607L152.355 191.61C152.188 191.671 152.04 191.771 151.925 191.9C151.657 192.211 151.246 192.653 150.937 193.08V193.078C150.27 194.207 149.297 195.152 148.118 195.814C147.72 196 147.285 196.113 146.84 196.144C146.411 196.166 145.981 196.13 145.565 196.029C144.868 195.844 144.233 195.499 143.715 195.025C143.262 194.617 142.913 194.204 142.603 193.884C141.232 195.189 140.082 196.679 139.186 198.309C139.478 199.526 139.741 200.684 140.061 201.769C141.935 208.627 143.972 214.965 143.335 221.197C163.194 230.085 161.362 201.548 171.941 193.126C180.194 186.518 193.711 192.679 198.775 200.332L198.772 200.329C199.92 200.276 201.057 200.114 202.168 199.848C202.58 195.018 203.485 190.361 208.052 187.309C211.696 184.874 217.455 183.813 219.639 179.921L219.641 179.924C216.914 177.879 214.517 175.477 212.519 172.792C212.537 173.506 212.475 174.217 212.337 174.918L212.253 175.441L212.212 175.714L212.191 175.773L212.149 175.947L212.108 176.103C211.962 176.508 211.86 176.924 211.676 177.32L211.678 177.317C210.963 178.974 209.781 180.418 208.261 181.49C207.075 182.304 205.752 182.929 204.35 183.345L203.548 182.959C203.415 183.139 203.265 183.308 203.095 183.462C202.57 183.933 201.87 184.197 201.141 184.195C200.829 184.18 200.516 184.134 200.214 184.06C199.988 183.982 199.762 183.885 199.535 183.787C198.44 183.127 197.443 182.333 196.571 181.429C196.319 181.126 195.957 180.921 195.556 180.848L195.556 180.847ZM186.15 215.053L187.22 214.918C187.283 214.84 187.387 214.84 187.488 214.821C187.467 214.781 187.569 214.781 187.59 214.781C187.652 214.877 187.631 214.762 187.715 214.471V214.474C187.61 213.482 187.329 212.512 186.884 211.608C186.432 210.513 185.895 209.504 185.427 208.19C185.273 207.784 185.169 207.361 185.117 206.934V206.895C184.732 206.98 184.365 207.124 184.027 207.32C183.902 207.415 183.86 207.396 183.78 207.801C183.686 208.339 183.686 208.886 183.78 209.424C183.834 210.103 183.951 210.775 184.131 211.434C184.383 212.556 184.865 213.616 185.549 214.564C185.687 214.738 185.854 214.887 186.044 215.009C186.049 215.043 186.15 215.023 186.15 215.043L186.15 215.053ZM328.343 327.28V327.282C328.379 327.614 328.338 327.949 328.221 328.267C328.158 328.577 328.078 328.904 327.994 329.271C327.599 330.549 326.196 331.301 324.825 330.971C313.014 328.13 301.077 330.023 289.101 330.605C277.393 331.201 265.682 331.57 253.952 331.628C240.835 331.687 227.941 331.956 214.915 332.176C211.251 332.237 206.91 332.408 201.95 332.156L198.02 331.751C196.763 331.577 195.55 331.269 194.296 331.018C190.921 331.057 187.566 331.093 184.191 331.191C152.605 332.041 120.941 334.34 89.3869 333.336C89.2229 333.336 89.0564 333.356 88.895 333.356C87.7916 333.417 86.6829 333.41 85.5795 333.336L83.8931 333.241L82.925 333.085C73.0149 332.603 63.0895 331.809 53.1947 330.478C50.8889 330.15 50.9097 327.773 52.2266 326.537C52.2864 326.417 52.3567 326.3 52.4322 326.19C52.5987 325.938 52.7809 325.687 52.9683 325.435C53.1895 318.482 51.9819 311.555 49.4081 305.034C48.4608 303.045 46.0744 300.128 47.1831 297.944C47.766 296.803 48.0887 296.05 49.3639 295.589C49.6319 295.491 47.5942 290.37 47.5344 289.842C46.587 281.32 47.7816 272.86 47.5552 264.32V264.318C41.1844 263.963 35.2666 261.1 31.2586 256.438C26.5456 250.99 24.4065 244.381 19.4251 239.243C18.5065 239.644 17.416 239.441 16.729 238.742C13.364 235.81 10.9646 232.035 9.81421 227.865C8.8669 223.616 10.5533 220.699 8.59887 216.409C4.35688 207.046 6.16822 196.807 5.34583 186.894C4.76028 185.995 4.93204 184.83 5.75701 184.114C9.56436 180.498 8.04197 175.189 8.82272 170.801C9.48374 166.977 10.4753 163.212 11.7869 159.54C14.431 151.338 18.2748 143.525 23.2093 136.317C32.9216 123.393 46.1548 114.043 58.9124 103.937H58.9098C59.4953 103.465 60.2735 103.263 61.0334 103.39C61.1973 99.5954 61.9963 95.8473 63.3964 92.2828C54.8994 91.6451 49.5902 75.4565 58.2957 72.7495C55.5787 66.0646 52.984 59.7099 50.2283 54.3203C49.5334 54.181 48.9662 53.7168 48.7241 53.0888C47.6727 50.7995 46.8659 48.4149 46.3168 45.9742L46.2336 46.089L46.296 45.8594C41.7704 25.0014 58.7071 5.41191 83.0297 5.01099C94.8399 4.82041 107.993 7.06082 116.468 15.5413C126.472 25.5681 126.821 36.8852 129.741 49.6021L129.743 49.5997C129.764 49.7096 129.777 49.8196 129.782 49.9295C133.158 48.7714 136.655 52.8077 138.097 55.9765C139.989 60.1495 141.798 67.9335 136.101 70.3697C135.942 70.4381 135.778 70.4894 135.606 70.5236C135.789 72.5124 135.755 74.5134 135.505 76.4948C135.32 77.863 135.094 79.2557 134.906 80.6483C135.442 80.5896 135.981 80.6898 136.452 80.939C137.954 81.672 140.176 82.6957 142.667 83.9491C155.859 82.383 167.877 86.4118 180.964 86.5951C189.094 86.6928 198.161 85.244 205.864 88.4885C221.83 95.2636 241.318 106.449 250.043 121.172C250.215 121.465 250.327 121.787 250.374 122.119C253.484 122.794 256.422 124.042 259.017 125.787C268.099 131.394 274.839 139.774 278.093 149.513C282.465 164.273 257.184 174.28 243.767 173.779C244.571 175.46 245.414 177.139 246.218 178.878C247.205 180.774 247.564 182.907 247.249 184.996C246.931 187.087 245.955 189.042 244.446 190.606C244.462 190.647 244.469 190.693 244.467 190.74C244.961 197.755 250.588 203.549 251.137 210.542C251.608 216.223 247.66 219.042 242.515 220.183H242.513C242.89 224.075 241.438 227.928 238.541 230.733C238.541 230.772 238.562 230.791 238.562 230.808C238.789 234.407 237.56 237.952 235.124 240.738C234.828 241.124 234.424 241.424 233.959 241.61C233.875 241.686 233.792 241.764 233.691 241.84C230.13 244.39 233.524 249.047 231.983 252.37V252.367C230.862 254.579 228.847 256.277 226.385 257.083C229.821 261.043 236.715 263.555 240.501 267.261L240.504 267.263C245.298 272.482 250.823 277.071 256.925 280.904C267.996 286.961 279.436 292.407 291.187 297.21C304.376 302.754 324.339 310.462 327.912 325.261C328.23 325.886 328.378 326.578 328.344 327.269L328.343 327.28ZM321.717 325.406C321.296 324.609 321.384 323.659 321.946 322.943C315.243 308.105 285.933 300.763 272.825 294.579C261.458 289.229 250.13 283.819 241.3 275.05H241.297C238.671 272.436 235.837 270.015 232.818 267.804L232.716 267.745L232.368 267.63L231.493 267.34C230.327 266.932 229.162 266.519 227.931 266.084V266.086C223.176 264.378 218.645 262.167 214.424 259.497C214.403 259.849 214.445 260.203 214.546 260.543C214.973 261.63 215.655 262.615 216.543 263.421C218.781 265.331 221.138 267.113 223.608 268.752C230.669 273.582 235.977 279.339 241.575 283.512C246.59 287.267 251.878 290.688 257.398 293.751C266.845 299.082 272.937 302.077 272.69 302.539C272.503 302.886 266.062 300.646 256.188 295.759H256.185C250.358 292.911 244.802 289.602 239.571 285.867C233.585 281.579 228.172 275.879 221.499 271.364C218.879 269.615 216.391 267.694 214.054 265.617C212.768 264.442 211.818 262.981 211.295 261.369C211.092 260.692 211.022 259.986 211.089 259.285C207.009 259.36 202.928 259.206 198.946 259.072V259.07C198.787 259.062 198.629 259.043 198.472 259.013C188.781 262.739 176.248 260.191 167.048 256.172H167.051C155.623 250.931 145.359 243.701 136.8 234.869C127.6 239.756 117.19 242.751 110.252 250.74C107.376 254.166 104.808 257.811 102.577 261.637C103.483 260.516 104.427 259.397 105.396 258.217C106.733 256.826 108.019 255.417 109.531 253.985H109.534C115.868 247.525 123.535 242.341 132.065 238.744L134.66 237.699L134.473 240.23C134.34 242.287 133.713 244.288 132.643 246.086C131.688 247.792 130.571 249.414 129.309 250.936C122.228 259.072 115.761 266.956 109.658 274C108.896 274.889 108.154 275.759 107.415 276.629C106.757 277.381 106.056 278.366 105.398 279.219C104.06 280.956 102.744 282.656 101.489 284.279C98.996 287.562 96.8568 290.711 94.7856 293.514H94.783C91.595 298.068 88.1101 302.437 84.3526 306.593C81.6564 309.51 80.0924 311.056 79.9284 310.9C80.7925 309.07 81.9193 307.36 83.283 305.818C85.7527 302.767 88.7976 298.034 92.7275 292.256V292.258C97.136 285.324 101.937 278.617 107.111 272.167C113.073 265.023 119.494 257.034 126.546 248.969C128.071 247.171 129.331 245.189 130.297 243.078C123.39 246.389 117.11 250.75 111.715 255.984C110.257 257.298 108.852 258.747 107.535 260.061C106.304 261.452 105.11 262.805 103.957 264.12C101.625 266.746 99.5536 269.297 97.5758 271.557C96.959 272.175 96.4099 272.715 95.8477 273.274C95.6031 273.68 95.3767 274.095 95.1476 274.474C84.2615 292.517 70.885 309.134 58.5599 326.287C66.2994 327.235 74.0363 327.871 81.7945 328.257C83.7515 325.725 85.6643 323.253 87.5355 320.839C88.1184 320.087 88.7274 319.332 89.3051 318.599C89.8829 317.866 90.5621 317.17 91.158 316.476C92.3916 315.083 93.5861 313.739 94.7572 312.398C99.4208 307.045 103.814 302.469 107.475 298.584C114.763 290.761 119.33 285.997 119.717 286.27C120.105 286.543 116.178 291.814 109.368 300.003C105.951 304.108 101.711 308.872 97.2455 314.262C96.1135 315.613 94.9424 316.984 93.7478 318.396C93.1649 319.09 92.5559 319.806 91.9574 320.519C91.3588 321.232 90.8253 322.007 90.2502 322.759C88.8318 324.597 87.3901 326.49 85.9067 328.42C88.8917 328.535 91.8975 328.611 94.8774 328.672C94.9217 328.555 94.9815 328.44 95.044 328.284C95.3927 327.463 95.8455 326.468 96.2359 325.677C97.0401 324.054 97.964 322.354 98.8904 320.827V320.832C102.141 315.313 106.224 310.263 111.015 305.84C114.216 302.823 117.93 300.326 122.002 298.452C123.106 297.936 124.267 297.528 125.459 297.235C126.26 297.023 126.713 296.962 126.755 297.079C126.799 297.196 126.424 297.445 125.727 297.834C125.026 298.222 123.954 298.782 122.661 299.551V299.554C119.012 301.78 115.681 304.435 112.751 307.455C108.412 311.936 104.699 316.916 101.698 322.273C100.824 323.798 100.053 325.305 99.2491 327.003C98.9395 327.602 98.6948 328.164 98.4476 328.762C105.362 328.838 112.274 328.762 119.189 328.606V328.609C119.101 328.433 119.03 328.249 118.986 328.061C117.81 328.174 116.628 328.205 115.447 328.157C114.952 328.081 114.437 328 113.922 327.944L111.515 327.577L112.915 325.51C116.787 319.771 121.292 314.428 126.351 309.571C130.263 305.96 132.938 304.028 133.248 304.318C133.617 304.629 131.541 307.14 128.124 311.098C125.209 314.595 121.332 319.327 117.461 324.893C118.336 324.854 119.335 324.776 120.376 324.756L122.024 324.717L122.104 326.3V326.303C122.081 327.148 122.476 327.954 123.174 328.492C143.73 327.944 164.29 326.755 184.868 326.303C181.123 323.437 177.836 320.08 175.116 316.332C172.662 312.958 170.476 309.42 168.571 305.746C165.318 299.506 163.879 295.447 164.29 295.277C164.745 295.064 166.986 298.792 170.702 304.646C172.597 307.563 174.879 311.003 177.721 314.575C180.659 318.448 184.219 321.871 188.274 324.717C189.109 325.252 189.976 325.741 190.869 326.188L195.603 326.129C218.938 325.973 242.238 327.153 265.61 326.611C267.278 326.571 268.964 326.496 270.671 326.4C268.943 324.68 266.494 322.091 263.53 318.827C262.073 317.204 260.485 315.445 258.796 313.554C257.047 311.7 255.176 309.709 253.201 307.622C251.226 305.533 249.209 303.315 247.08 301.016C246.567 300.437 246.031 299.855 245.498 299.276L244.694 298.407L244.491 298.177L244.446 298.138L244.426 298.118L244.324 298.021L243.871 297.635C242.705 296.591 241.506 295.529 240.309 294.446C237.716 292.438 235.163 290.469 232.574 288.573C229.982 286.679 227.653 284.861 225.392 282.912C221.02 279.125 217.139 275.687 213.886 272.75C207.403 266.894 203.557 263.09 203.885 262.762C204.215 262.435 208.618 265.599 215.512 271.011C218.947 273.718 223.002 276.982 227.489 280.652C229.67 282.411 232.202 284.263 234.711 286.1C237.264 287.879 239.895 289.887 242.58 291.991C243.858 293.132 245.11 294.273 246.346 295.372L246.799 295.797L246.924 295.895L247.025 296.01L247.088 296.069L247.275 296.281L248.077 297.171C248.613 297.767 249.125 298.348 249.662 298.927C251.72 301.263 253.716 303.525 255.608 305.67C257.5 307.815 259.293 309.882 260.959 311.795C262.541 313.784 264.024 315.641 265.383 317.339C268.469 321.263 270.793 324.334 272.152 326.323C288.464 325.377 305.853 322.731 321.718 325.397L321.717 325.406ZM265.047 162.572C273.791 156.582 274.923 149.416 268.276 140.972C259.264 129.519 248.748 124.591 234.713 127.51L234.775 127.684V127.679C234.877 128.062 234.952 128.448 235.001 128.839L235.332 128.859L236.053 128.935C236.321 128.974 236.711 129.091 237.021 129.167L237.018 129.169C237.448 129.335 237.856 129.55 238.231 129.807L238.356 129.883L238.499 130.017C239.137 130.633 239.673 131.336 240.084 132.106L240.454 132.839H240.456C240.472 132.873 240.493 132.905 240.516 132.934C242.346 134.319 244.256 135.609 246.239 136.797C246.9 137.271 247.527 137.786 248.11 138.343L248.984 139.291L249.026 139.331L249.211 139.563L249.232 139.602L249.315 139.719L249.437 139.91L249.729 140.315H249.726C249.968 140.665 250.179 141.031 250.366 141.41C250.598 141.823 250.793 142.257 250.949 142.702C251.254 143.53 251.467 144.386 251.587 145.253C251.928 148.321 251.157 151.407 249.403 154.014C247.649 156.621 245.013 158.598 241.916 159.626L241.547 159.741L241.466 159.78L241.424 159.8L241.055 159.876L240.909 159.915L240.326 160.012H240.324C240.035 160.059 239.743 160.086 239.449 160.091C239.34 160.108 239.231 160.113 239.121 160.11C239.842 162.236 240.378 164.398 240.972 166.658C241.18 167.394 241.427 168.09 241.672 168.784C241.885 168.779 242.098 168.791 242.309 168.823C250.187 170.289 258.707 166.898 265.047 162.573L265.047 162.572ZM238.911 215.932C241.729 215.565 246.362 215.062 246.073 211.432V211.429C245.716 208.893 244.93 206.428 243.741 204.126C241.524 199.968 240.04 195.497 239.348 190.894C238.916 190.019 239.114 188.983 239.842 188.304C245.276 182.831 239.184 177.502 237.373 172.289C235.725 167.574 235.231 162.648 232.865 158.148L232.493 157.916C227.124 156.35 221.417 156.255 215.907 155.155C210.271 163.305 216.155 171.537 223.666 176.812L223.671 176.809C224.116 177.122 224.452 177.552 224.634 178.046C225.24 178.637 225.425 179.504 225.11 180.269C223.522 184.173 220.212 187.24 216.03 188.671C213.646 189.475 211.473 190.746 209.651 192.402C207.827 195.063 206.96 198.205 207.182 201.364C207.137 202.38 206.409 203.26 205.37 203.553C205.037 203.978 204.558 204.286 204.012 204.423C203.702 204.498 203.395 204.538 203.088 204.596C198.044 210.839 195.348 200.675 190.328 203.052C187.388 204.442 190.164 208.19 191.028 209.851C191.846 211.205 192.384 212.69 192.613 214.23C192.645 214.794 192.595 215.361 192.47 215.913C192.314 216.573 192.004 217.191 191.565 217.726C191.13 218.244 190.599 218.684 189.998 219.021C189.527 219.263 189.032 219.458 188.517 219.602C188.619 219.698 188.725 219.778 188.848 219.876C189.756 220.672 190.565 221.567 191.255 222.539C191.892 223.394 192.262 224.396 192.324 225.437C192.33 226.26 192.004 227.052 191.419 227.66C190.87 228.195 190.203 228.61 189.464 228.877C188.816 229.106 188.147 229.277 187.466 229.395L187.343 229.434H186.95L186.747 229.453L186.292 229.473V229.47C185.837 229.436 185.384 229.38 184.936 229.297C183.375 228.94 181.909 228.281 180.634 227.364C178.175 225.5 175.913 223.419 173.883 221.144C173.261 220.518 172.684 219.854 172.155 219.155C171.864 218.728 171.572 218.285 171.281 217.86C170.989 217.435 170.825 216.99 170.602 216.565C169.751 214.779 169.217 212.874 169.014 210.924C168.913 209.773 168.913 208.615 169.014 207.464C168.023 211.835 166.352 216.048 164.059 219.964C161.855 223.313 158.412 225.779 154.391 226.89C150.367 227.999 146.05 227.677 142.266 225.984C141.904 227.007 141.457 228.002 140.929 228.96C154.841 238.774 171.734 243.189 187.908 248.896C186.654 247.672 185.545 246.326 184.598 244.879C182.045 240.997 181.818 238.447 182.477 238.061C183.26 237.577 185.131 239.761 188.036 242.292H188.033C189.761 243.824 191.596 245.244 193.529 246.541C195.864 248.088 198.349 249.419 200.955 250.519C203.565 251.577 206.282 252.385 209.064 252.935C210.36 253.108 211.593 253.36 212.749 253.397V253.399C213.834 253.521 214.927 253.58 216.02 253.573C218.935 253.592 221.103 253.377 222.258 253.553H222.256C223.955 253.282 225.514 252.503 226.701 251.332C228.491 249.207 226.287 245.586 226.885 243.101C227.492 240.848 228.993 238.899 231.083 237.653C231.104 237.633 231.148 237.614 231.166 237.594V237.597C232.46 236.018 233.251 234.13 233.449 232.148C233.407 232.168 233.386 232.168 233.368 232.187C230.859 233.172 228.533 233.328 228.142 232.498C227.752 231.667 229.48 230.199 231.989 229.194C232.379 229.06 232.79 228.921 233.181 228.828V228.826C233.313 228.654 233.472 228.505 233.657 228.383C236.566 226.355 238 222.957 237.36 219.61C237.324 219.429 237.319 219.246 237.339 219.063C237.319 219.043 237.319 219.024 237.298 219.004H237.3C237.225 219.014 237.147 219.014 237.071 219.004C236.816 218.997 236.564 218.97 236.311 218.928C236.023 218.889 235.742 218.826 235.466 218.733L235.156 218.657C234.846 218.523 234.846 218.503 234.664 218.425C234.391 218.308 234.128 218.166 233.883 218C232.855 217.316 232.085 216.341 231.679 215.219C230.979 213.377 231.166 211.337 232.197 209.634C232.876 208.518 233.969 207.672 235.268 207.257C235.164 206.563 235.06 205.925 234.937 205.42C234.812 204.599 234.833 204.105 235.081 204.01C235.328 203.915 235.739 204.201 236.296 204.831V204.833C237.051 205.769 237.641 206.815 238.045 207.924L238.498 208.987L236.952 209.471C236.101 209.715 235.406 210.304 235.06 211.076C234.636 212.041 234.599 213.118 234.958 214.108C235.312 215.144 236.278 215.891 237.428 216.023C237.719 216.062 238.011 216.062 238.302 216.082V216.079C238.498 216.009 238.703 215.96 238.911 215.933L238.911 215.932ZM242.656 152.26V152.257C244.412 150.62 245.294 148.331 245.063 146.015C244.998 145.582 244.889 145.155 244.735 144.742C244.691 144.573 244.62 144.41 244.529 144.258C244.457 144.043 244.347 143.84 244.201 143.66L243.933 143.254L243.788 143.042L243.356 142.599C243.007 142.247 242.63 141.925 242.224 141.632C239.879 140.2 237.688 138.556 235.681 136.723L235.515 136.569C234.57 135.409 233.295 134.715 232.428 133.496C231.634 132.089 230.981 130.615 230.476 129.093C230.317 128.692 229.987 128.37 229.565 128.204C229.144 128.038 228.667 128.045 228.251 128.223C227.512 128.648 227.572 129.865 227.223 130.542C226.533 131.72 225.763 132.856 224.917 133.943L223.231 130.156C222.9 129.442 221.977 126.987 220.99 126.911C219.824 126.794 219.824 128.514 219.858 129.21V129.208C219.926 130.065 219.913 130.925 219.814 131.778C219.538 134.727 218.177 137.493 215.965 139.601C214.448 141.06 212.689 142.279 210.76 143.215C207.694 144.703 205.862 145.108 205.636 144.762C205.409 144.415 206.851 143.237 209.3 141.226V141.224C212.702 138.981 214.851 135.421 215.156 131.527C215.161 130.95 215.111 130.376 215.01 129.809C214.906 129.152 214.763 128.499 214.578 127.857C214.409 127.261 214.188 126.679 213.92 126.117L213.016 126.098C212.522 126.098 212.007 126.098 211.559 126.059L210.88 126.02H210.716C210.674 126.02 210.549 126 210.508 126L209.953 125.924H209.956C209.261 125.827 208.582 125.643 207.939 125.377C206.987 124.954 206.06 124.485 205.162 123.97C204.993 123.877 204.821 123.794 204.644 123.718C204.543 123.679 204.418 123.62 204.376 123.601C204.397 123.581 204.48 123.542 204.296 123.542L204.08 123.498C203.877 123.65 203.682 123.811 203.497 123.982C202.216 125.24 200.47 125.988 198.617 126.068L197.857 126.029L197.467 126.01L197.035 125.971L196.972 125.951L196.827 125.912L196.579 125.851C195.924 125.697 195.2 125.524 194.565 125.304L192.772 124.51L191.211 123.642C190.336 123.095 189.441 122.548 188.535 122.001V122.003C188.142 121.766 187.736 121.546 187.32 121.348L186.737 121.038C186.57 120.962 186.446 120.943 186.302 120.884C185.964 120.713 185.595 120.596 185.212 120.537L184.39 120.381L183.978 120.305H183.874C182.846 120.266 181.834 120.229 180.809 120.171C179.781 120.229 178.729 120.266 177.701 120.305C176.673 120.344 175.643 120.537 174.615 120.632C173.587 120.728 172.476 120.943 171.409 121.097C170.342 121.253 169.29 121.407 168.241 121.578L168.239 121.58C164.353 121.991 160.512 122.716 156.757 123.745C153.749 124.622 151.128 126.389 149.283 128.785C148.83 129.333 148.523 129.904 148.117 130.466C147.786 131.143 147.315 131.952 147.089 132.475C146.641 133.386 146.519 134.407 146.737 135.392C147.089 136.784 147.349 138.197 147.518 139.621C147.539 140.058 147.523 140.498 147.479 140.935L147.292 141.805L147.25 142.037L147.17 142.365L147.107 142.499L146.86 143.002C146.696 143.33 146.529 143.679 146.347 143.987V143.989C145.66 144.94 144.866 145.822 143.982 146.616C144.515 146.384 145.093 146.154 145.73 145.902C145.998 145.807 146.313 145.69 146.605 145.575C146.813 145.419 147.019 145.265 147.242 145.091V145.089C148.525 143.941 149.694 142.687 150.74 141.343C152.627 138.744 154.318 136.027 155.799 133.207C157.015 131.018 157.858 129.613 158.331 129.75C158.808 129.887 158.763 131.507 158.084 134.019C157.264 136.977 155.937 139.789 154.157 142.347C155.032 141.92 155.885 141.497 156.78 141.016V141.013C158.623 139.958 160.354 138.734 161.944 137.361C163.211 136.22 164.335 134.949 165.298 133.574C166.883 131.294 167.604 129.325 168.117 129.518C168.486 129.633 168.775 131.487 167.479 134.639C166.693 136.398 165.6 138.023 164.249 139.447C162.589 141.145 160.674 142.609 158.568 143.794C155.599 145.431 152.408 146.684 149.085 147.524C147.742 148.443 146.228 149.117 144.619 149.513C143.75 149.714 142.858 149.811 141.965 149.804C141.921 149.933 141.858 150.056 141.778 150.17C134.66 161.473 135.709 181.255 138.629 195.609V195.607C139.464 194.06 140.523 192.631 141.778 191.358L142.517 190.605L143.422 191.263C144.37 191.956 144.927 192.692 145.52 193.117C146.113 193.545 146.446 193.559 146.777 193.408H146.779C147.399 192.895 147.904 192.272 148.26 191.57C148.57 191.06 148.906 190.561 149.267 190.082C151.573 187.185 153.671 189.716 156.328 190.373C158.569 190.921 162.027 187.783 162.993 185.949L164.042 184.368L165.689 185.545L165.856 185.663V185.66C168.005 187.107 170.928 187.004 172.955 185.409C174.144 184.715 175.23 183.877 176.187 182.917C176.578 182.452 176.942 181.969 177.275 181.465C177.71 180.83 178.191 180.222 178.717 179.652C179.472 178.819 180.598 178.362 181.762 178.414C182.048 178.445 182.329 178.497 182.608 178.568L183.287 178.858C183.349 178.897 183.49 178.976 183.49 178.976L183.531 179.015L183.635 179.073L183.838 179.208C183.94 179.286 184.208 179.535 184.395 179.692L184.398 179.689C184.965 180.28 185.382 180.989 185.611 181.756L185.676 181.969C185.84 181.893 185.983 181.795 186.147 181.717C186.209 181.622 187.021 181.06 187.021 180.869C187.453 180.322 187.682 179.657 187.677 178.976L187.885 176.887C189.431 178.255 190.93 179.65 192.577 180.886L192.575 180.889C192.942 180.214 193.382 179.579 193.894 178.995C194.594 178.426 195.536 178.199 196.445 178.377L196.713 178.436L196.835 178.455L196.916 178.475C196.937 178.475 197.142 178.551 197.142 178.551V178.548C197.285 178.595 197.423 178.653 197.553 178.724C197.741 178.839 197.965 178.976 198.136 179.071L198.506 179.345H198.508C199.258 179.987 200.07 180.564 200.937 181.062C200.999 180.889 201.124 180.6 201.205 180.31L201.905 177.759L204.044 179.596L204.354 179.87H204.351C204.994 179.609 205.608 179.284 206.183 178.905C207.216 178.177 208.039 177.212 208.569 176.105C208.694 175.831 208.757 175.558 208.879 175.284L208.921 175.189C208.921 175.15 208.986 174.898 208.986 174.898L209.087 174.375H209.085C209.262 173.767 209.353 173.136 209.353 172.504C209.405 170.29 209.217 168.074 208.796 165.895C208.582 164.732 208.452 163.559 208.405 162.379C207.937 161.605 207.531 160.796 207.19 159.965C206.841 159.108 206.55 158.228 206.316 157.336C206.128 156.449 205.905 155.465 205.8 154.536C205.696 153.608 205.577 152.738 205.452 151.868H205.449C203.823 152.445 202.079 152.677 200.346 152.545C198.68 152.179 197.774 151.697 197.816 151.368C197.858 151.04 198.886 150.82 200.533 150.674C202.485 150.153 204.343 149.367 206.048 148.333L207.942 147.214L208.413 149.379C208.744 150.864 209.051 152.506 209.236 154.109C209.361 154.998 209.504 155.773 209.629 156.572C210.425 154.426 211.599 152.421 213.108 150.642C213.147 150.586 213.197 150.534 213.251 150.488C213.155 150.134 213.142 149.765 213.21 149.406C213.4 148.626 213.813 147.91 214.404 147.336C214.813 146.909 215.258 146.515 215.739 146.161C216.614 145.482 217.467 144.944 218.251 144.421C218.287 144.382 218.329 144.351 218.373 144.324L212.757 143.571L217.902 141.639C219.609 141.001 221.09 140.652 222.274 140.187V140.19C223.252 139.877 224.142 139.354 224.869 138.663C225.29 138.196 225.61 137.659 225.816 137.08C225.938 136.559 226.084 136.288 226.248 136.288C226.412 136.288 226.578 136.54 226.742 137.041C226.909 137.896 226.771 138.778 226.349 139.552C225.654 140.693 224.627 141.624 223.388 142.237C223.039 142.433 222.649 142.606 222.274 142.785C222.352 142.887 222.422 142.997 222.482 143.112C222.667 143.522 222.703 143.977 222.584 144.407C222.498 144.661 222.373 144.903 222.214 145.12C222.016 145.406 221.787 145.672 221.535 145.914C221.103 146.3 220.692 146.608 220.28 146.918C219.476 147.517 218.675 148.079 217.949 148.636C217.6 148.927 217.269 149.215 217.001 149.486V149.489C216.942 149.54 216.887 149.599 216.837 149.66C217.152 149.674 217.467 149.667 217.782 149.64C218.545 149.564 219.388 149.43 220.067 149.293C220.809 149.061 221.436 148.59 221.837 147.962C222.43 147.058 223.112 146.21 223.877 145.431C225.371 143.974 227.502 143.261 229.639 143.498C230.464 143.613 231.237 143.948 231.864 144.463C232.301 144.834 232.626 145.306 232.809 145.831C233.1 146.652 232.954 147.107 232.809 147.146C232.585 147.222 232.338 146.835 231.841 146.352C231.242 145.704 230.349 145.365 229.438 145.436C228.067 145.553 226.805 146.188 225.941 147.195C225.381 147.933 224.879 148.707 224.439 149.513C224.093 150.114 223.64 150.657 223.101 151.116C222.979 151.192 222.854 151.272 222.753 151.348C225.118 151.639 227.487 151.895 229.831 152.313V152.316C229.873 151.964 229.962 151.619 230.097 151.292C230.365 150.652 230.76 150.068 231.263 149.57C231.684 149.188 232.153 148.856 232.663 148.585L233.342 148.258L233.691 148.084C233.712 148.084 234.102 147.947 234.102 147.947C234.136 147.945 234.172 147.94 234.204 147.928L234.308 147.908L234.31 147.911C234.703 147.825 235.101 147.759 235.502 147.715L236.283 147.656H237.969C238.024 147.642 238.081 147.634 238.136 147.639C238.3 147.639 238.258 147.6 238.3 147.62C238.341 147.639 238.344 147.581 238.404 147.581C238.466 147.581 238.526 147.466 238.589 147.349L238.693 147.175L238.755 147.077C238.818 146.902 238.851 146.716 238.857 146.53C238.815 146.511 238.878 146.511 238.878 146.454C238.836 146.357 238.857 146.259 238.815 146.164C238.576 145.616 238.17 145.145 237.649 144.81C236.494 144.028 235.244 143.381 233.928 142.878C231.622 141.93 230.243 141.333 230.347 140.889C230.448 140.503 231.893 140.29 234.589 140.561L234.586 140.559C236.322 140.718 238.014 141.162 239.585 141.873C240.809 142.404 241.839 143.259 242.55 144.336C242.755 144.686 242.927 145.052 243.062 145.431C243.195 145.89 243.27 146.364 243.289 146.843C243.309 147.268 243.268 147.422 243.268 147.713L243.226 147.808L243.205 147.867C243.205 147.886 243.143 148.233 243.143 148.233H243.146C243.13 148.338 243.101 148.441 243.062 148.541L242.859 149.088H242.857C242.516 150.017 241.876 150.818 241.025 151.387C240.577 151.707 240.067 151.942 239.523 152.084L238.784 152.279V152.277C238.581 152.328 238.375 152.36 238.164 152.372L237.581 152.448L237.11 152.487C236.986 152.506 236.741 152.506 236.678 152.528C236.619 152.55 236.556 152.562 236.491 152.567C236.278 152.58 236.067 152.631 235.874 152.719L235.794 152.758L235.585 152.895C236.046 153.454 236.678 153.865 237.399 154.072C237.805 154.197 238.227 154.268 238.651 154.285C238.698 154.27 238.747 154.265 238.797 154.265C238.818 154.265 238.839 154.304 239.088 154.246L239.559 154.131H239.562C239.64 154.107 239.716 154.075 239.788 154.033C240.868 153.64 241.847 153.034 242.656 152.257L242.656 152.26ZM229.899 123.684C234.515 122.276 239.327 121.529 244.181 121.463C238.786 114.246 231.731 108.26 223.539 103.95C216.934 100.087 208.785 93.5515 201.095 92.1073C191.917 90.3506 182.49 91.9924 173.231 90.7561V90.7537C165.762 89.5052 158.215 88.7185 150.637 88.3984C157.161 92.503 162.839 97.6534 161.317 103.021C159.776 108.494 153.738 111.985 148.664 114.284H148.661C147.055 115.039 145.335 115.555 143.558 115.812C145.447 117.634 147.068 119.686 148.375 121.917C148.539 121.783 148.705 121.626 148.867 121.492C150.6 120.19 152.536 119.146 154.608 118.399C157.996 117.255 161.499 116.43 165.062 115.936C166.829 112.608 167.516 108.865 167.037 105.174C166.79 102.081 166.337 100.036 166.79 99.9379C167.162 99.8402 168.335 101.485 169.262 104.844L169.259 104.846C169.517 105.753 169.694 106.676 169.793 107.61C169.949 108.704 169.998 109.811 169.938 110.913C169.832 112.389 169.538 113.847 169.064 115.259C169.475 115.184 169.91 115.125 170.342 115.049C171.432 114.873 172.46 114.683 173.613 114.526C174.519 114.431 175.445 114.336 176.351 114.236C176.393 114.177 176.434 114.14 176.476 114.082H176.473C177.353 112.154 177.847 110.092 177.931 107.996C178.279 104.113 178.67 101.619 179.167 101.619C179.62 101.639 180.112 104.035 180.38 108.052V108.054C180.554 110.058 180.374 112.076 179.846 114.026C180.153 114.006 180.46 113.984 180.791 113.984C181.957 114.026 183.097 114.082 184.247 114.14H184.249C185.051 113.056 185.702 111.88 186.183 110.642C186.693 109.193 187.07 107.707 187.315 106.198C187.75 103.608 187.973 101.871 188.408 101.871C188.843 101.871 189.374 103.437 189.54 106.315L189.538 106.317C189.626 108.035 189.459 109.76 189.043 111.436C188.718 112.601 188.257 113.728 187.664 114.795C187.955 114.89 188.221 114.991 188.489 115.069C188.569 115.108 188.632 115.145 188.715 115.184C189.324 114.859 189.894 114.478 190.422 114.048C191.331 113.324 192.195 112.552 193.004 111.731C194.651 110.151 196.111 108.643 197.428 107.424C198.454 106.41 199.601 105.509 200.845 104.739C201.792 104.192 202.43 104.101 202.552 104.292C202.761 104.658 201.337 106.09 199.278 108.912C198.23 110.28 196.975 111.964 195.39 113.762C195.143 114.035 194.854 114.324 194.589 114.61L194.919 114.551V114.553C195.835 114.419 196.741 114.236 197.636 114.006L197.759 113.965C199.804 113.478 201.74 112.655 203.479 111.531C205.061 110.507 206.36 109.342 207.51 108.438C209.816 106.564 211.32 105.753 211.544 105.975C211.812 106.224 210.701 107.519 208.848 109.684C207.71 111.04 206.451 112.301 205.082 113.451C203.208 114.942 201.043 116.071 198.706 116.774L198.602 116.813C197.511 117.16 196.522 117.336 195.58 117.568C194.997 117.683 194.365 117.842 193.832 117.993C194.123 118.189 194.414 118.379 194.706 118.555L194.703 118.553C195.825 119.393 197.168 119.936 198.591 120.119C198.628 120.121 198.664 120.114 198.695 120.097C198.761 120.063 198.823 120.024 198.88 119.982L199.068 119.848L199.359 119.616C199.898 119.147 200.499 118.743 201.147 118.416C201.6 118.157 202.084 117.949 202.589 117.798C203.096 117.683 203.612 117.607 204.132 117.568H204.275L204.522 117.703L204.624 117.761L204.811 117.82L205.103 117.881C207.965 116.449 210.516 114.922 212.78 113.728V113.723C214.666 112.643 216.701 111.812 218.83 111.26C219.437 111.103 220.066 111.038 220.694 111.067C221.105 111.108 221.331 111.165 221.352 111.279C221.373 111.394 221.165 111.553 220.816 111.722V111.724C220.303 111.937 219.801 112.176 219.314 112.44C217.5 113.4 215.762 114.478 214.109 115.667C212.504 116.747 210.692 118.042 208.551 119.357C209.295 119.804 209.867 120.151 210.365 120.4V120.397C210.565 120.5 210.781 120.578 211.002 120.63L211.104 120.669C211.166 120.669 211.062 120.688 211.247 120.688L211.413 120.708L212.093 120.786C212.564 120.845 212.936 120.862 213.326 120.901L214.07 120.959C214.172 120.959 214.255 120.979 214.336 120.979L214.333 120.977C214.713 120.444 215.179 119.967 215.713 119.569C217.49 118.414 219.46 117.546 221.542 116.999C223.21 116.515 224.548 116.224 225.454 116.034C226.276 115.897 226.872 115.687 226.994 115.858C227.116 116.031 226.953 116.535 226.049 117.172H226.052C224.917 117.903 223.725 118.555 222.489 119.122C220.819 119.875 219.239 120.793 217.776 121.859C217.654 121.973 217.552 122.091 217.446 122.205C217.467 122.205 217.49 122.225 217.511 122.245C217.633 122.362 217.735 122.477 217.821 122.572L218.403 122.457C223.304 121.297 227.911 120.06 231.306 119.52C234.702 118.902 237.008 118.973 237.029 119.481C237.029 119.887 235.134 120.576 231.967 121.741C229.95 122.435 227.421 123.307 224.558 124.175L224.556 124.177C224.805 124.358 225.047 124.551 225.276 124.756C225.297 124.795 225.341 124.832 225.36 124.871L225.482 124.756C226.122 124.329 226.84 124.013 227.6 123.83C228.064 123.75 228.532 123.698 229.001 123.676C229.248 123.676 229.495 123.715 229.74 123.735C229.797 123.723 229.836 123.703 229.898 123.684L229.899 123.684ZM189.358 225.265C189.415 224.684 189.316 224.097 189.066 223.562C188.59 222.309 188.056 221.263 187.788 220.53C187.702 220.303 187.635 220.071 187.583 219.836L187.049 219.951L186.903 219.971L186.823 219.951H185.873C185.516 219.963 185.157 219.936 184.803 219.873C183.486 219.575 182.294 218.908 181.389 217.957C180.064 216.465 179.104 214.718 178.57 212.839C178.294 211.952 178.086 211.05 177.951 210.134C177.774 209.062 177.753 207.97 177.891 206.89C178.104 205.404 178.877 204.041 180.072 203.044C181.11 202.226 182.336 201.637 183.653 201.324C184.475 201.133 185.235 200.977 186 200.862C185.914 200.708 185.787 200.581 185.628 200.496C185.503 200.418 185.441 200.264 185.298 200.222H185.3C185.154 200.168 185.017 200.105 184.886 200.027C184.405 199.858 183.897 199.78 183.385 199.797C183.283 199.68 182.583 199.873 182.107 199.951L181.524 200.066L181.48 200.085L181.357 200.127L181.089 200.222H181.092C179.656 200.657 178.375 201.451 177.386 202.519C175.44 204.757 174.497 207.62 174.763 210.498C174.833 211.889 175.145 213.259 175.689 214.554L176.08 215.483L176.491 216.238C176.884 216.826 177.308 217.393 177.769 217.936C179.466 220.125 181.337 222.192 183.364 224.119C184.111 224.784 184.983 225.317 185.935 225.683C186.084 225.744 186.234 225.795 186.391 225.839L187.07 225.898L187.091 225.859C187.504 225.854 187.916 225.815 188.322 225.742C188.592 225.69 188.855 225.612 189.108 225.512C189.214 225.436 189.316 225.456 189.357 225.265L189.358 225.265ZM161.959 248.214C169.985 252.543 182.393 257.488 192.436 255.732C178.011 249.986 162.763 246.111 148.954 239.289H148.952C152.946 242.683 157.308 245.676 161.966 248.215L161.959 248.214ZM151.323 107.26C155.809 104.149 157.537 101.112 153.072 97.0764V97.0789C148.887 93.4385 144.218 90.3208 139.182 87.8045C139.999 94.9873 139.401 102.251 137.412 109.229C141.904 112.728 147.151 110.177 151.323 107.26L151.323 107.26ZM136.369 149.295C139.518 144.526 144.846 143.908 142.521 137.433C142.397 137.067 142.274 136.7 142.173 136.339C142.019 135.828 141.918 135.303 141.866 134.775C139.703 136.026 137.465 137.155 135.162 138.156C133.054 139.434 131.248 141.103 129.853 143.062C126.579 147.389 127.258 152.955 128.125 158.037C129.666 157.939 131.313 157.9 133.145 157.9C133.158 157.721 135.896 150.038 136.37 149.295L136.369 149.295ZM135.341 131.85C139.828 129.661 146.269 127.216 141.78 121.725C139.888 119.48 137.868 117.33 135.732 115.285C133.691 122.126 131.287 128.967 129.611 135.84C131.297 134.249 133.228 132.903 135.341 131.85L135.341 131.85ZM134.758 229.354C141.301 220.409 137.228 212.388 135.107 203.06C134.386 199.95 133.892 196.767 133.501 193.612C131.854 194.433 130.313 195.43 128.585 196.104C128.497 196.742 128.346 197.37 128.132 197.981C127.615 199.293 126.821 200.495 125.801 201.516C125.613 201.707 125.41 201.863 125.218 202.039V202.037C125.322 202.278 125.384 202.532 125.405 202.789C126.04 212.313 116.432 216.544 109.957 222.166C112.098 230.879 105.72 239.535 96.89 239.843C96.8509 239.982 96.8041 240.116 96.7468 240.248C93.1242 247.708 82.98 253.696 75.7347 257.829C68.8826 262.068 60.9086 264.429 52.7087 264.648C52.7893 269.73 52.3599 274.753 52.2558 279.835C52.4666 284.504 53.138 289.144 54.2623 293.695C54.2831 293.849 54.3039 294.023 54.343 294.196V294.216C54.5225 294.48 54.7281 294.726 54.9623 294.951C55.2096 295.086 55.3944 295.318 55.6416 295.357C56.1829 295.54 56.771 295.567 57.3279 295.432C58.6916 295.051 59.9694 294.436 61.0936 293.617C62.2153 292.826 63.2849 291.975 64.2998 291.069C67.3915 288.201 70.2933 285.154 72.9841 281.948C77.0986 277.118 78.6861 275.264 79.0764 275.496C79.4069 275.709 78.4596 277.959 74.7355 283.158C72.2424 286.659 69.4187 289.946 66.2958 292.97C65.2184 294.001 64.0655 294.957 62.8397 295.831C61.4136 296.926 59.761 297.73 57.9836 298.189C57.2939 298.333 56.586 298.377 55.8834 298.323L55.9068 298.419C54.7435 298.597 53.6896 299.166 52.9427 300.021C53.9133 301.619 54.5588 303.371 54.8451 305.189C55.7819 305.34 56.7449 305.267 57.6453 304.979C59.5971 304.309 61.4084 303.32 62.9959 302.061C64.3257 301.074 65.5931 300.017 66.7954 298.895C70.9541 294.954 72.5364 293.332 72.9164 293.62C73.2079 293.833 72.2996 295.841 68.409 300.285C67.2509 301.575 65.9991 302.789 64.664 303.918C62.8736 305.47 60.7864 306.689 58.5118 307.512C57.5333 307.857 56.4924 308.02 55.4461 307.993C56.1462 311.646 56.7421 315.954 57.1533 319.684C65.7963 307.859 74.811 296.229 82.9589 284.111C82.8132 284.187 82.7325 284.226 82.6909 284.187C82.566 284.091 83.2244 283.221 84.5412 281.753C87.7292 276.942 90.7428 272.029 93.5766 267.013C98.2063 258.726 102.979 249.373 110.88 243.29C117.98 237.817 126.44 234.885 134.3 230.634L134.302 230.632C134.302 230.175 134.456 229.728 134.742 229.354L134.758 229.354ZM134.696 64.8945H134.698C134.998 63.0278 134.758 61.1197 133.998 59.3704C133.522 57.9533 132.822 56.6095 131.919 55.3904C131.763 55.1827 131.591 54.9897 131.404 54.8089C132.715 58.1023 133.811 61.4688 134.683 64.887L134.696 64.8945ZM131.576 110.082C133.832 102.803 134.623 95.1925 133.907 87.6432C133.395 91.0051 132.832 94.3619 132.221 97.7094C130.248 108.296 126.584 122.806 112.984 124.448C105.319 125.557 97.4806 124.245 90.6964 120.717C91.3497 121.814 92.1226 122.843 93.0022 123.791C93.7621 123.952 94.4934 124.204 95.183 124.543C97.0724 125.254 99.0503 125.748 101.067 126.014C104.078 126.393 107.133 126.388 110.144 125.995C113.796 125.582 117.332 124.534 120.575 122.901C122.194 122.088 123.638 121.001 124.838 119.696C126.063 118.467 127.185 117.15 128.192 115.755C129.483 113.952 130.613 112.056 131.575 110.082L131.576 110.082ZM133.077 189.572C132.869 187.351 132.687 185.147 132.541 182.926C132.317 179.257 132.028 175.538 131.958 171.817C127.409 172.32 118.232 176.513 118.168 181.438C118.251 181.69 118.355 181.922 118.415 182.174C118.912 183.674 119.003 185.267 118.678 186.809C118.615 187.021 118.556 187.214 118.491 187.407C120.648 187.556 122.746 188.135 124.645 189.108C126.017 189.831 127.139 190.911 127.878 192.218C129.66 191.446 131.287 190.363 133.077 189.572L133.077 189.572ZM132.008 166.996C132.049 165.538 132.151 164.106 132.317 162.706H132.315C129.879 162.647 127.443 162.777 125.027 163.092C123.666 163.407 122.277 162.669 121.86 161.411C121.798 161.16 121.777 160.898 121.8 160.639C120.853 156.534 121.1 148.081 115.75 146.806L115.747 146.808C113.574 146.354 111.367 146.063 109.142 145.936C106.056 145.662 102.969 145.452 99.8829 145.164C100.294 145.53 100.726 145.897 101.119 146.258C102.6 147.766 103.938 149.117 105.129 150.363C106.321 151.609 107.17 152.875 107.992 153.937C108.744 154.844 109.413 155.807 109.988 156.818C111.922 160.375 112.375 161.819 112.002 161.995C111.63 162.171 110.462 161.067 108.156 157.957C107.482 157.055 106.748 156.197 105.954 155.386C105.049 154.438 104.164 153.283 102.99 152.122C101.817 150.962 100.481 149.708 99.0215 148.316C97.6396 147.157 96.1588 145.882 94.5532 144.531C93.71 144.414 92.8694 144.299 92.0236 144.143C85.5617 142.928 80.2347 139.72 81.7337 135.159C76.9634 135.692 72.2553 136.64 67.6703 137.991C66.8974 138.184 66.0725 138.032 65.4322 137.58C64.792 137.128 64.4121 136.425 64.3964 135.672C64.0659 126.283 61.5155 117.397 61.0237 108.53C46.843 119.598 30.773 130.399 22.8409 146.529V146.532C17.8026 155.719 14.6717 165.726 13.623 176.012C13.8078 179.721 12.6809 183.38 10.4168 186.425C10.4532 186.539 10.4819 186.654 10.4975 186.772C11.3407 196.72 9.33159 207.058 14.3257 216.325C15.2443 217.573 15.6737 219.083 15.541 220.593C14.5052 223.93 14.8722 227.512 16.569 230.6C19.0492 224.16 24.2986 218.997 31.0361 216.371C38.4012 214.035 46.2214 214.69 53.7711 214.595C51.1191 213.686 48.587 212.836 46.1927 212.132C42.4765 210.928 38.6224 210.136 34.711 209.777C31.6479 209.506 28.5562 209.767 25.5944 210.549C24.9568 210.762 24.3374 210.955 23.7441 211.148C23.1273 211.399 22.8176 211.573 21.6231 212.113L20.884 212.46L20.5352 212.613C20.4129 212.675 20.2672 212.789 20.2255 212.594C19.9809 212.169 19.7337 211.727 19.4864 211.319C19.1559 210.722 18.8488 210.141 18.5391 209.601C17.5736 207.747 16.6263 206.242 16.0902 204.886C15.5541 203.532 15.1221 202.423 14.8124 201.582C14.2294 199.882 14.0525 199.12 14.2581 199.032C14.4663 198.944 14.9789 199.579 15.9262 201.138C16.3973 201.91 16.975 202.914 17.6543 204.17C18.3335 205.426 19.3615 206.835 20.4311 208.575C20.5742 208.785 20.6992 209 20.8423 209.232L21.1103 209.618L21.2327 209.794C21.2951 209.794 21.3784 209.716 21.42 209.696L21.4174 209.699C21.852 209.445 22.3074 209.22 22.7759 209.022C23.4343 208.77 24.1136 208.521 24.8162 208.27C28.0719 207.273 31.5018 206.879 34.9189 207.109C42.5545 207.419 51.0516 210.703 61.0343 213.908L60.951 214.16L61.7551 214.045H61.7525C59.6524 211.939 57.2269 210.143 54.554 208.717C51.5508 207.163 48.433 205.814 45.2268 204.68C40.4722 203.087 35.889 201.072 31.5432 198.66C29.214 197.312 27.1346 195.614 25.3884 193.635C24.3604 192.359 24.0299 191.741 24.1965 191.607C24.363 191.472 25.0188 191.858 26.2368 192.823V192.826C28.2381 194.377 30.3955 195.741 32.6778 196.901C37.0655 198.968 41.6039 200.737 46.2575 202.196C49.6329 203.305 52.9068 204.661 56.0557 206.254C57.6276 207.089 59.1344 208.035 60.5579 209.083C59.6237 207.062 58.4213 205.162 56.9796 203.422C54.8924 200.94 52.4721 198.721 49.7763 196.823C45.8752 194.089 41.719 191.694 37.3572 189.667C30.7522 186.537 28.1573 185.435 28.3219 185.015C28.465 184.688 31.3069 185.11 38.2813 187.815C42.9526 189.63 47.3872 191.944 51.4939 194.712C54.4424 196.684 57.0917 199.022 59.3633 201.665C60.3809 202.884 61.2969 204.177 62.1011 205.53C62.1219 204.797 62.1636 204.064 62.1818 203.341C62.1818 202.794 62.1818 202.276 62.161 201.758V201.756C61.5338 199.068 60.243 196.554 58.3953 194.414C56.4486 192.445 54.2495 190.708 51.8527 189.237C47.5093 186.32 43.806 184.37 41.0679 182.723C35.4908 179.537 33.724 177.722 33.9685 177.431C34.26 177.104 36.3342 178.164 42.1298 180.871L42.1272 180.874C46.0439 182.669 49.8408 184.69 53.4944 186.921C56.1411 188.492 58.5535 190.385 60.6743 192.545C61.1948 193.092 61.6814 193.666 62.1316 194.265C62.3737 193.217 62.7458 192.198 63.2429 191.233C64.2319 189.264 64.6612 188.431 64.4582 187.93C63.8415 186.801 63.0191 185.78 62.0276 184.92C60.6665 183.564 59.5917 181.978 58.8578 180.246C58.1864 178.643 57.7622 176.957 57.606 175.242C57.4811 174.148 57.4187 173.097 57.3796 172.093L57.377 172.09C56.4167 170.136 55.1025 168.352 53.489 166.818C51.7688 165.198 49.8638 163.761 47.8079 162.53C44.0838 160.229 40.8931 158.699 38.5487 157.392C33.794 154.861 32.2092 153.449 32.4277 153.141C32.675 152.774 34.5669 153.507 39.5484 155.577V155.574C42.9211 156.933 46.195 158.501 49.3412 160.27C51.6314 161.545 53.7446 163.077 55.6417 164.829C56.2195 165.35 56.7634 165.907 57.2682 166.49C57.2682 166.278 57.2448 166.048 57.224 165.814H57.2032C55.7198 161.584 53.0289 157.815 49.427 154.917C47.1004 153.033 44.4954 151.479 41.6874 150.304C40.6178 149.896 39.7304 149.454 38.9496 149.183H38.9523C38.3095 148.994 37.677 148.775 37.0576 148.525C36.0713 148.139 35.6575 147.868 35.7017 147.656C35.746 147.443 36.2144 147.365 37.3048 147.426C37.8409 147.446 38.541 147.521 39.4232 147.617C40.459 147.827 41.4817 148.086 42.4889 148.391C45.6769 149.378 48.6463 150.895 51.2564 152.874C53.0157 154.167 54.585 155.672 55.92 157.353C55.3085 154.309 54.5303 151.294 53.5882 148.322C52.0814 143.717 50.1035 139.261 47.6833 135.012C46.0567 132.442 45.4999 131.149 45.7887 130.934C46.0775 130.722 47.207 131.533 49.4737 133.871C52.8204 137.87 55.4671 142.347 57.3152 147.128C58.8402 151.003 60.0504 154.98 60.9352 159.028C61.5103 161.518 61.9241 164.042 62.1714 166.58C62.3561 169.287 62.3145 172.053 62.684 174.674C62.835 175.947 63.1733 177.198 63.6912 178.383C64.2221 179.6 65.008 180.702 65.9969 181.63L66.0177 181.65C66.3951 180.904 66.9103 180.233 67.5428 179.658C67.5038 171.447 66.5695 163.262 64.7556 155.228C63.522 149.719 61.9085 144.29 59.9202 138.979C59.1187 137.01 58.5201 135.29 57.9476 133.897C57.31 132.529 56.8337 131.407 56.4902 130.538C55.7694 128.781 55.5872 127.948 55.7694 127.852C55.9542 127.757 56.5085 128.4 57.5599 130.042C58.096 130.863 58.7258 131.896 59.5169 133.25C60.308 134.601 61.0185 136.284 61.9658 138.253L61.9632 138.256C64.334 143.56 66.2078 149.047 67.5636 154.657C69.4842 162.512 70.5174 170.538 70.6423 178.598C72.2533 177.054 74.0463 175.693 75.9929 174.54C78.827 172.839 81.8302 171.403 84.9637 170.252C84.0606 168.916 83.1732 167.623 82.4133 166.421C81.3645 164.623 80.4172 163.001 79.5532 161.513C77.9058 158.576 76.7113 156.221 75.8083 154.442C74.0152 150.867 73.5649 149.382 73.9345 149.169C74.304 148.957 75.4179 150.117 77.7418 153.457C78.9077 155.121 80.274 157.361 82.0645 160.237C82.9389 161.649 83.9357 163.233 85.0287 164.972C85.9317 166.287 86.8998 167.735 87.9434 169.24V169.238C92.7059 167.772 97.6144 166.763 102.595 166.228C100.919 162.883 99.0011 159.648 96.8515 156.55C96.2685 155.7 95.6179 154.967 95.061 154.232H95.0636C94.5561 153.535 93.9914 152.878 93.3746 152.262C92.8176 151.664 92.3049 151.102 91.8105 150.579C91.316 150.056 90.7825 149.653 90.3296 149.228C88.5392 147.491 87.1234 146.491 86.2958 145.712C85.4683 144.933 85.1455 144.517 85.2679 144.344C85.3902 144.17 85.9055 144.285 86.9542 144.769V144.767C88.6823 145.548 90.2983 146.528 91.7688 147.684C92.3049 148.072 92.9034 148.478 93.476 148.979C94.0511 149.479 94.6419 150.044 95.269 150.642C95.9743 151.253 96.6145 151.925 97.1818 152.651C97.8194 153.384 98.5403 154.158 99.1987 155.026C101.746 158.471 103.969 162.116 105.845 165.922C114.579 165.292 123.365 165.651 132.008 166.995L132.008 166.996ZM129.124 85.3109C130.662 79.4642 130.935 73.3883 129.928 67.4414C129.681 70.6273 128.882 73.7523 127.563 76.6963C127.313 77.3731 126.961 78.0084 126.514 78.5874C126.165 79.0907 125.855 79.5353 125.566 79.8823C124.983 80.581 124.577 80.928 124.354 80.8302C124.13 80.7325 124.146 80.2121 124.33 79.3643C124.434 78.9171 124.578 78.3992 124.765 77.8177V77.8152C125.007 77.1702 125.184 76.5032 125.298 75.8264C126.142 72.0834 126.592 68.2721 126.636 64.4461C126.594 61.1234 126.345 58.0132 126.053 55.4157C125.129 52.8845 124.161 50.3753 123.235 47.8445C123.214 47.7858 123.214 47.7272 123.193 47.6685C120.005 46.5642 117.293 44.5095 115.471 41.8146C109.642 32.716 101.928 45.1178 97.2155 47.7247C88.4506 52.5916 78.2434 49.9651 68.8776 52.7113C69.5152 56.5936 72.8697 59.826 71.657 64.031L71.6596 64.0334C70.2257 67.9646 67.4463 71.3413 63.7562 73.6355C65.3827 77.789 67.1108 82.0405 68.9845 86.1936C69.276 86.5747 69.5909 86.9412 69.9292 87.2882C72.2324 89.5848 74.9624 91.4661 77.9892 92.8391C80.4381 93.8433 82.023 94.6349 81.8981 95.0991C81.8174 95.5242 80.027 95.5242 77.1668 95.0014C75.4909 94.5836 73.8747 93.9801 72.3523 93.2056C74.7439 97.9333 77.6301 102.426 80.9739 106.614C81.877 107.162 82.9492 107.868 84.1411 108.623C84.2426 108.075 84.3285 107.579 84.4326 107L84.7423 105.319L86.3038 106.534V106.536C87.1469 107.184 88.1098 107.682 89.1456 108.004C90.5821 108.373 91.9641 108.906 93.2627 109.59L93.7962 110.015L94.0642 110.228L94.2074 110.323H94.2048C94.2594 110.377 94.3063 110.436 94.3505 110.497L94.3921 110.536L94.7409 110.961H94.7435C94.8892 111.164 95.0193 111.376 95.1338 111.598C95.5867 112.419 95.8131 113.067 96.1019 113.568H96.0993C96.3205 113.946 96.6484 114.262 97.0466 114.477C97.385 114.628 97.7363 114.75 98.098 114.843C98.4077 114.926 98.7252 114.992 99.0453 115.036C100.56 115.283 102.106 115.315 103.633 115.134C103.987 115.087 104.339 115.016 104.682 114.919L104.909 114.86L104.971 114.841L105.135 114.782C105.302 114.706 105.611 114.606 105.692 114.55L105.689 114.552C106.054 114.367 106.314 114.044 106.41 113.665C106.348 113.548 105.999 113.238 105.609 112.776C104.755 111.606 104.555 110.118 105.067 108.784C105.58 107.447 106.746 106.426 108.201 106.035C108.882 105.791 109.614 105.686 110.342 105.725C110.761 105.747 111.178 105.825 111.576 105.957L111.907 106.091L112.094 106.15L112.404 106.326L112.401 106.324C113.559 107.005 114.376 108.1 114.663 109.356C114.889 110.206 115.032 110.997 115.178 111.325V111.327C115.277 111.317 115.373 111.298 115.469 111.269C115.693 111.249 116.169 111.036 116.312 111.017C116.664 110.87 117.01 110.704 117.34 110.516C119.365 108.777 120.534 106.331 120.57 103.755C120.716 103.062 120.862 102.324 121.026 101.591C121.127 101.244 121.229 100.858 121.335 100.496L121.538 99.9489L121.58 99.8121L121.593 99.7339C121.616 99.6753 121.676 99.5434 121.676 99.5434C121.322 99.409 120.986 99.2404 120.669 99.04C120.502 98.9448 120.401 98.8446 120.258 98.7493L119.331 98.7688H118.748C116.568 99.1109 114.41 99.5677 112.287 100.137C110.176 100.777 107.901 100.758 105.804 100.081C105.754 100.042 105.7 100.01 105.64 99.9831C105.45 100.347 105.208 100.687 104.922 100.987C103.875 102.07 102.527 102.851 101.028 103.247C99.7323 103.538 98.4103 103.721 97.0804 103.795C96.625 103.89 96.1748 103.949 95.7428 104.005C95.3316 104.122 94.9412 104.237 94.5769 104.354C93.1377 104.874 92.0473 105.358 91.7168 104.992C91.5736 104.855 91.6153 104.528 91.8183 104.122C91.4487 103.848 91.6153 102.886 92.2112 101.496V101.498C93.0518 99.5239 94.4207 97.7867 96.1825 96.4552L96.6145 96.1449L96.9451 95.9494L97.109 95.8492C97.4005 95.7149 97.6009 95.5976 97.9105 95.4828C98.2801 95.3679 98.6496 95.2507 99.0244 95.1554C99.3497 95.0796 99.6073 95.0405 99.9275 94.9795H100.008C98.9802 93.8849 98.0147 95.2531 96.677 95.407C96.4818 95.4095 96.2892 95.4021 96.0941 95.3875C95.9613 95.3801 95.8312 95.3508 95.7063 95.3019L95.3602 95.214L95.2795 95.1749C95.165 95.1236 95.0479 95.0772 94.9282 95.043L94.8241 94.9648L94.556 94.7913C94.3817 94.6643 94.2177 94.5299 94.0642 94.3858C93.5255 93.8165 93.182 93.1079 93.0752 92.3554C92.9217 91.2853 93.0128 90.2005 93.3433 89.167C93.5749 88.307 93.8664 87.4592 94.2177 86.6358C94.3842 86.2498 94.5482 85.8833 94.6939 85.5168C94.8553 85.1699 94.9984 84.8156 95.1233 84.454C95.355 83.8359 95.5423 83.2031 95.6803 82.5605C95.813 81.9497 95.8885 81.3291 95.9041 80.7062C95.9353 80.1125 95.9197 79.5188 95.865 78.9275C95.3732 74.3684 93.8482 71.5395 94.3842 71.2975C94.5924 71.2193 95.165 71.7788 95.9483 72.9588C97.0622 74.7009 97.8507 76.609 98.2801 78.6002C98.4467 79.2794 98.543 79.9708 98.5716 80.6672C98.6288 81.427 98.6158 82.1893 98.5325 82.9467C98.4154 83.7798 98.2385 84.6031 97.999 85.4094C97.934 85.6391 97.7518 86.2303 97.6269 86.548C97.2574 87.5521 94.0069 92.2675 96.0446 92.5949C97.2105 92.7904 97.6711 91.5321 98.595 91.2438C100.013 90.8162 100.612 91.5907 101.661 92.2675C103.992 93.7554 105.325 92.4996 107.154 90.6452C107.446 90.3544 107.737 90.0466 108.081 89.7363C108.458 89.3698 108.88 89.0473 109.335 88.7712C110.074 88.2899 111.269 88.3656 111.495 87.5912C111.514 87.5472 111.527 87.5032 111.537 87.4568V87.2247C111.563 87.0121 111.547 86.7947 111.495 86.587C111.441 86.3647 111.357 86.1521 111.248 85.9494C110.236 84.4736 108.893 83.2252 107.311 82.2894C106.145 81.5149 105.478 81.0531 105.583 80.8381C105.687 80.6256 106.506 80.6842 107.948 81.1655V81.168C108.825 81.4587 109.666 81.835 110.459 82.2894C111.628 82.9002 112.625 83.7603 113.374 84.8035C113.608 85.1358 113.804 85.4901 113.957 85.8638C114.116 86.2816 114.212 86.7165 114.249 87.1587V87.4104C114.259 87.5447 114.259 87.6816 114.249 87.8159L114.186 88.4536C114.126 88.7321 114.046 89.0058 113.939 89.2745C113.772 89.6312 113.517 89.9488 113.197 90.1981C112.729 90.5133 112.195 90.738 111.633 90.8578C111.49 90.8969 111.511 90.9164 111.43 90.9164L110.936 91.2267C110.936 91.2267 110.545 91.5736 110.353 91.774C110.106 92.0647 109.837 92.3212 109.569 92.6242C109.549 92.6438 109.549 92.6633 109.528 92.6829L109.525 92.6804C109.955 92.6047 110.387 92.5607 110.824 92.546C114.509 92.27 118.134 93.5355 120.734 96.0056L121.702 96.8925H121.699C122.639 97.1368 123.643 96.8583 124.291 96.1767L124.354 96.0618C124.869 94.9209 125.364 93.819 125.837 92.7561C126.308 91.6616 126.761 90.5939 127.196 89.5897C127.974 88.0285 128.588 86.6163 129.124 85.3214L129.124 85.3109ZM128.468 120.588C128.096 121.013 127.745 121.409 127.375 121.805C125.959 123.41 124.226 124.742 122.272 125.726C118.634 127.583 114.613 128.685 110.483 128.959C107.16 129.254 103.81 129.02 100.573 128.265C98.9411 127.862 97.3744 127.265 95.9092 126.486C101.439 130.53 107.524 133.865 113.996 136.396C117.569 137.803 120.661 140.112 122.927 143.061C123.916 136.579 125.428 130.175 127.456 123.906C127.765 122.841 128.119 121.739 128.468 120.598L128.468 120.588ZM126.964 98.3136C126.922 98.3527 126.326 98.7754 126.326 98.7754C126.069 98.9635 125.793 99.1247 125.504 99.2616C125.14 99.6891 124.814 100.146 124.536 100.63L124.473 100.725H124.476C124.466 100.764 124.45 100.803 124.434 100.842L124.309 101.267L124.086 102.196C123.961 102.853 123.838 103.51 123.737 104.243L123.734 104.241C123.539 105.804 123.18 107.344 122.665 108.841C122.014 110.662 120.731 112.225 119.021 113.283C118.527 113.574 118.241 113.672 117.827 113.882C117.319 114.087 116.799 114.256 116.265 114.385C115.966 114.458 115.664 114.51 115.357 114.539C114.967 114.568 114.574 114.541 114.191 114.461C113.288 114.226 112.533 113.645 112.114 112.858C111.768 111.998 111.498 111.114 111.31 110.212C111.045 109.247 110.056 108.414 108.924 109.149C107.279 110.193 109.541 111.886 109.749 113.166H109.746C109.796 113.44 109.803 113.716 109.767 113.987C109.746 114.121 109.746 114.261 109.725 114.373L109.663 114.527H109.665C109.296 115.787 108.354 116.833 107.092 117.388C106.137 117.803 105.114 118.072 104.065 118.179C102.183 118.37 100.284 118.284 98.4281 117.928C97.9362 117.828 97.4495 117.698 96.9707 117.542C96.5621 117.417 96.164 117.261 95.7788 117.078C94.7769 116.572 93.9675 115.78 93.473 114.818C93.0619 113.997 92.8354 113.271 92.5986 112.829C92.57 112.726 92.5284 112.628 92.4737 112.538L92.164 112.132L92.1016 112.074L91.9584 111.957L91.667 111.705H91.6696C90.5791 111.084 89.4184 110.574 88.2135 110.183C87.4875 109.899 86.7978 109.543 86.155 109.118C86.0535 109.506 85.9286 109.938 85.8245 110.298L85.5148 111.419H85.5174C91.3781 117.153 99.5708 120.266 108.031 119.975C121.244 119.518 125.051 108.815 126.964 98.3112V98.3136ZM121.985 198.3C125.028 195.327 122.277 192.099 118.423 191.906C115.027 191.73 111.118 195.151 108.221 196.558C106.514 197.379 104.87 198.063 103.446 198.837L99.4148 200.865C98.1786 201.503 97.1298 202.16 96.1201 202.72C95.1103 203.282 94.2255 203.782 93.4031 204.225C92.6432 204.728 91.964 205.173 91.3628 205.561C88.9348 207.086 87.7194 207.628 87.4748 207.376C87.2302 207.125 87.9667 206.121 90.0668 204.073C90.5821 203.57 91.1807 202.993 91.8989 202.356C92.6588 201.808 93.502 201.156 94.4493 200.44C95.3966 199.724 96.4245 198.952 97.6373 198.2C98.8501 197.447 100.17 196.673 101.59 195.803C103.009 194.933 104.617 194.102 106.324 193.176C107.168 192.734 108.032 192.268 108.948 191.767C109.341 191.554 109.731 191.32 110.142 191.088C110.491 190.814 110.881 190.54 111.253 190.267L111.256 190.262C112.706 189.179 113.723 187.67 114.139 185.974C114.29 185.119 114.205 184.242 113.892 183.426C113.705 182.497 113.018 181.723 112.924 181.803V181.801C112.115 181.762 111.308 181.928 110.592 182.285C109.4 182.749 107.678 183.406 106.293 183.868C103.378 184.911 100.284 185.957 97.1952 187.191H97.1978C90.7931 189.446 84.9925 192.988 80.1983 197.567C79.8288 201.603 79.5633 205.642 78.9257 209.658H78.9231C79.1235 210.132 79.1599 210.653 79.0272 211.146C77.1769 218.161 82.0122 226.678 87.5869 231.181C90.8816 233.829 95.2198 236.047 99.6443 234.33C101.895 233.441 103.699 231.777 104.683 229.678C105.666 227.579 105.757 225.207 104.935 223.047C104.094 222.126 104.157 220.75 105.078 219.898C109.604 215.453 118.392 211.842 120.019 205.466C119.051 205.969 118.104 206.394 117.177 206.78C113.973 208.102 110.697 209.27 107.364 210.276L103.431 211.532C102.299 211.979 101.23 212.517 100.243 212.944C97.3546 214.42 94.3487 215.686 91.2519 216.729C89.2558 217.276 88.3372 217.327 88.207 217.02C88.0769 216.709 88.7197 216.054 90.3462 214.992C91.9728 213.929 94.5023 212.255 98.4349 209.89C99.4629 209.311 100.532 208.654 101.787 208.053C103.145 207.476 104.41 206.99 105.841 206.431C108.642 205.368 111.811 204.21 115.101 202.685C116.805 201.913 118.437 201.009 119.98 199.981C120.711 199.489 121.385 198.925 121.987 198.3L121.985 198.3ZM115.047 177.746L115.05 177.743C117.246 174.225 120.632 171.491 124.669 169.979C119.191 169.473 113.684 169.331 108.185 169.551C108.799 170.313 109.19 171.215 109.32 172.163C109.814 174.374 109.192 176.678 107.631 178.4L108.844 177.975V177.978C109.671 177.655 110.535 177.428 111.417 177.301C112.589 177.098 113.796 177.223 114.889 177.665C114.946 177.687 114.988 177.726 115.05 177.743L115.047 177.746ZM114.967 96.1977V96.1952C114.438 95.968 113.895 95.7677 113.34 95.5966C112.513 95.389 111.667 95.2595 110.811 95.2106C110.046 95.1373 109.273 95.1324 108.505 95.1911C107.805 95.2497 107.188 95.3474 106.613 95.4232V95.4256C106.275 95.6601 105.91 95.8629 105.523 96.0242C105.783 96.3956 105.97 96.806 106.077 97.2385C106.103 97.3875 106.116 97.5365 106.118 97.6856C106.308 97.798 106.517 97.8835 106.735 97.9372C108.346 98.0496 109.962 97.8004 111.448 97.2116C112.539 96.9379 113.671 96.5421 114.967 96.1927V96.1977ZM110.275 141.212C111.44 141.329 112.518 141.424 113.587 141.578C108.505 138.49 101.837 136.577 97.2469 133.274C91.074 128.81 84.9011 123.535 83.8105 116.035L83.8131 116.032C77.1142 109.873 71.7244 102.577 67.9276 94.5296C63.048 106.973 68.1514 119.741 69.3459 132.529V132.531C74.8943 131.173 80.5625 130.286 86.2801 129.885C86.5741 129.856 86.8682 129.876 87.1545 129.942C88.1668 129.966 89.0673 130.555 89.4394 131.442C89.8116 132.326 89.5852 133.333 88.8643 134C87.0114 135.566 84.9112 137.108 88.2059 138.212H88.2033C90.28 138.874 92.4166 139.365 94.5844 139.678C99.7815 140.447 105.049 140.721 110.275 141.207L110.275 141.212ZM97.7854 178.94C99.1023 178.321 106.878 172.873 104 172.426C99.7216 171.788 94.1213 175.536 90.8314 177.72C85.728 181.08 82.1652 183.921 81.0959 189.968V189.971C81.0985 190.022 81.0907 190.073 81.0751 190.122C82.3372 189.147 83.6723 188.258 85.0672 187.459C86.9592 186.365 88.8564 185.431 90.7249 184.581V184.578C90.79 184.068 91.0268 183.587 91.4042 183.21C93.2128 181.407 95.3807 179.956 97.7853 178.94L97.7854 178.94ZM91.6125 239.023C91.2221 238.886 90.8317 238.791 90.4466 238.615C80.8043 234.163 74.3712 225.275 73.5098 215.221C67.1624 218.539 59.9041 219.998 52.6642 219.414C42.2125 219.086 21.4269 220.262 20.9119 233.846C32.0272 242.769 32.8287 259.597 50.567 259.771C59.569 259.883 68.3545 257.188 75.5478 252.109C80.7449 248.583 88.258 244.41 91.6125 239.023V239.023ZM90.1316 172.255C89.3873 172.487 88.6743 172.716 87.9899 172.968C81.1377 175.48 62.1036 185.829 75.165 191.282C75.5658 187.016 77.3719 182.973 80.3283 179.711C83.2534 176.853 86.5455 174.346 90.1318 172.254L90.1316 172.255ZM73.7105 209.345C74.2934 205.096 74.244 200.112 74.676 195.243H74.6734C72.529 194.539 70.5589 193.428 68.8908 191.979C68.8465 192.037 68.8101 192.103 68.7893 192.172L68.2349 193.33C67.501 194.591 67.2617 196.054 67.5557 197.464C67.6364 199.242 67.7405 201.463 67.7197 203.435C67.6182 206.528 67.4933 209.56 67.678 212.534C69.8459 211.757 71.8784 210.682 73.7105 209.345H73.7105ZM63.5899 86.8607C63.9152 86.8583 64.2327 86.7777 64.5163 86.6286C62.7362 83.3596 61.2711 79.9462 60.1442 76.4305C57.2243 77.2587 60.0245 86.8607 63.5899 86.8607V86.8607Z" fill="#75CFB8"/>
<path d="M230.998 297.903C240.403 305.419 245.918 310.266 245.611 310.596C245.301 310.923 239.352 306.674 229.538 299.584C223.699 295.387 218.145 290.85 212.909 286.002C211.49 284.551 210.028 283.085 208.537 281.578C207.137 279.995 205.637 278.353 204.258 276.711C201.958 273.894 199.475 271.209 196.828 268.672C196.769 268.902 196.732 269.134 196.727 269.369L196.748 271.321L194.752 270.993V270.991C193.56 270.769 192.407 270.405 191.314 269.911C191.829 270.703 192.383 271.514 193 272.286C194.502 274.201 196.087 276.246 197.633 278.101C199.178 279.955 200.547 281.812 202.179 283.454C203.811 285.096 205.409 286.718 207.014 288.245C213.64 294.233 220.162 299.218 225.351 303.72C227.901 306.039 230.288 308.008 232.138 310.058L232.141 310.056C233.833 311.678 235.399 313.408 236.833 315.233C238.168 316.694 239.272 318.326 240.107 320.083C239.92 320.217 238.4 318.768 235.784 316.005C234.548 314.559 232.719 313.127 230.762 311.312C228.849 309.457 226.338 307.6 223.746 305.436C218.395 301.187 211.728 296.405 204.816 290.405C203.129 288.841 201.461 287.18 199.712 285.519C197.963 283.857 196.521 281.849 194.877 279.975C193.292 278.081 191.811 276.227 190.213 274.18C189.378 273.144 188.615 272.061 187.928 270.935C187.103 269.665 186.539 268.262 186.26 266.799L185.727 263.96L188.566 265.101C189.019 265.291 189.471 265.467 189.924 265.648C191.304 266.266 192.548 266.884 193.69 267.312C193.955 266.557 194.286 265.826 194.679 265.123L195.689 263.153L197.336 264.619H197.333C200.813 267.744 204.001 271.145 206.861 274.781C208.24 276.498 209.638 278.045 210.976 279.63C212.394 281.138 213.794 282.623 215.173 284.055C220.194 288.922 225.474 293.545 230.999 297.903L230.998 297.903Z" fill="#75CFB8"/>
<path d="M212.743 310.619C215.075 313.209 216.467 314.582 216.282 314.773C216.139 314.929 214.453 313.864 211.757 311.489C208.061 308.061 204.741 304.294 201.846 300.245C198.057 295.222 194.088 288.943 189.212 282.414C186.721 278.991 183.926 275.771 180.858 272.793C178.102 270.12 175.005 267.777 171.637 265.817C171.939 266.834 172.34 267.823 172.829 268.774C173.849 270.684 175.005 272.529 176.285 274.298C177.563 276.116 178.838 277.894 180.074 279.631C181.31 281.369 182.406 283.128 183.551 284.809C185.795 288.19 187.923 291.376 189.932 294.386C191.941 297.395 193.722 300.201 195.572 302.656C202.794 312.605 207.075 318.884 206.682 319.136C206.291 319.388 201.331 313.592 193.594 303.99C191.598 301.633 189.682 298.852 187.564 295.896C185.446 292.94 183.22 289.769 180.878 286.429C179.712 284.77 178.518 283.069 177.297 281.327C176.04 279.61 174.747 277.848 173.451 276.074V276.072C172.08 274.191 170.843 272.231 169.745 270.198C169.141 269.101 168.66 267.948 168.306 266.758C168.225 266.411 168.119 266.045 168.059 265.664C167.585 266.404 167.21 267.196 166.947 268.024C166.43 269.737 166.271 271.527 166.476 273.296C166.901 276.472 167.616 279.607 168.616 282.666C169.274 284.794 169.768 286.963 170.096 289.16C170.284 290.724 170.177 291.593 169.995 291.623C169.748 291.662 169.459 290.851 168.905 289.419C168.35 287.987 167.504 285.94 166.453 283.333C165.069 280.21 164.069 276.951 163.471 273.616C163.124 271.481 163.231 269.302 163.78 267.203C164.217 265.737 164.912 264.349 165.836 263.098C163.988 262.536 162.057 262.26 160.116 262.277C159.858 262.243 159.606 262.199 159.354 262.14C159.062 262.082 159.044 262.045 158.877 262.006L158.692 261.93H158.695C158.596 261.906 158.497 261.874 158.404 261.833C158.354 261.793 158.297 261.762 158.237 261.735L157.766 261.444C157.459 261.271 157.178 261.063 156.923 260.826C156.46 260.418 156.03 259.971 155.648 259.494C155.439 259.221 155.278 258.947 155.065 258.703C154.942 263.765 155.169 268.129 155.374 271.432C155.827 275.857 156.155 278.503 155.744 278.564C154.461 276.48 153.646 274.171 153.355 271.781C152.21 265.759 151.767 259.639 152.038 253.525L152.246 249.147L155.005 252.682C156.342 254.383 157.207 256.142 158.359 257.513C160.439 259.975 163.707 258.788 166.365 259.812C166.948 260.024 167.291 260.122 167.744 260.276H167.741C168.067 260.361 168.395 260.432 168.728 260.486C173.751 261.551 179.804 267.19 183.301 270.572V270.574C186.456 273.711 189.313 277.098 191.843 280.699C196.699 287.479 200.423 293.856 203.9 298.975C206.554 303.045 209.508 306.937 212.743 310.619L212.743 310.619Z" fill="#75CFB8"/>
<path d="M209.242 130.341C209.674 130.361 210.27 132.025 210.146 134.993H210.148C210.036 136.794 209.503 138.548 208.584 140.131C208.326 140.596 208.035 141.04 207.71 141.465L207.462 141.793L207.34 141.969L207.114 142.198L206.58 142.746L205.466 143.84C204.98 144.238 204.472 144.615 203.944 144.962C202.044 146.225 199.897 147.124 197.628 147.608C195.876 147.972 194.091 148.184 192.298 148.245C189.292 148.363 187.463 148.17 187.4 147.725C187.338 147.283 189.086 146.66 191.926 145.966C195.439 145.348 198.801 144.124 201.836 142.355C208.995 137.942 207.946 130.197 209.242 130.341L209.242 130.341Z" fill="#75CFB8"/>
<path d="M202.822 134.094C203.046 134.17 202.986 134.847 202.676 136.122C202.114 137.916 201.032 139.526 199.548 140.774C197.245 142.648 194.359 143.774 191.317 143.98L188.97 144.094C187.981 144.094 187.262 144.094 186.294 144.019H186.297C185.745 143.972 185.199 143.87 184.673 143.708C184.48 143.657 184.293 143.584 184.116 143.496C183.84 143.33 183.585 143.137 183.356 142.919C182.906 142.348 182.76 141.612 182.963 140.926C183.14 140.378 183.406 139.858 183.747 139.384C183.088 139.46 182.388 139.557 181.688 139.633C179.791 139.934 177.842 139.719 176.072 139.015L174.547 138.321L175.348 137.065V137.063C176.496 135.389 178.151 134.077 180.103 133.298C181.352 132.765 182.57 132.164 183.747 131.5C184.428 131.072 185.043 130.559 185.576 129.973C185.946 129.492 186.193 129.201 186.339 129.259C186.484 129.318 186.562 129.665 186.461 130.283C186.193 131.233 185.659 132.101 184.918 132.795C183.84 133.755 182.661 134.608 181.399 135.345C180.723 135.744 180.085 136.196 179.486 136.696C180.08 136.672 180.67 136.616 181.256 136.523C183.104 136.157 184.985 135.973 186.872 135.976L189.258 136.091L188.353 138.179C188.082 138.802 187.767 139.408 187.408 139.992C187.221 140.303 187.039 140.571 186.851 140.843C187.51 140.918 188.309 140.957 188.868 140.979C189.67 140.979 190.453 140.979 191.215 140.957V140.96C193.633 140.908 195.988 140.22 198.008 138.971C199.374 138.052 200.545 136.904 201.461 135.582C202.101 134.598 202.575 134.036 202.822 134.094H202.822Z" fill="#75CFB8"/>
<path d="M198.911 159.344C199.656 160.803 199.95 162.43 199.757 164.038C199.57 165.159 199.174 165.604 198.953 165.621C198.687 165.601 198.646 164.927 198.399 164.018C198.078 162.735 197.514 161.519 196.73 160.424C193.881 156.749 190.261 153.659 186.091 151.345L185.144 150.797L184.27 150.392C183.653 150.14 183.104 149.845 182.497 149.598C181.243 149.156 180.048 148.691 178.836 148.364C176.488 147.609 174.245 147.128 172.395 146.681C168.629 145.86 166.242 145.312 166.274 144.829C166.315 144.401 168.782 144.149 172.756 144.401V144.403C175.104 144.574 177.428 144.931 179.713 145.464C181.087 145.781 182.44 146.175 183.764 146.644C184.444 146.876 185.165 147.223 185.883 147.533L186.973 148.015L188.868 149.109L189.425 149.437L189.896 149.747C190.479 150.172 191.062 150.595 191.624 151.042H191.627C192.725 151.872 193.761 152.769 194.734 153.727C196.459 155.359 197.872 157.26 198.911 159.344L198.911 159.344Z" fill="#75CFB8"/>
<path d="M192.942 165.874C193.91 169.891 194.238 172.346 193.817 172.503C193.395 172.659 192.151 170.313 190.61 166.59C189.793 164.474 188.716 162.454 187.404 160.57C187.071 160.042 186.67 159.556 186.21 159.121C185.785 158.642 185.325 158.19 184.83 157.77C184.247 157.323 183.618 156.861 182.98 156.402C182.41 156.052 181.819 155.73 181.21 155.437C178.595 154.347 175.776 153.743 172.916 153.66C170.14 153.465 167.506 153.35 165.304 152.984H165.302C163.519 152.72 161.791 152.197 160.177 151.437C159.129 150.838 158.637 150.374 158.72 150.181C158.803 149.986 159.522 150.027 160.695 150.257L160.698 150.259C162.304 150.501 163.927 150.645 165.554 150.685C167.633 150.743 170.142 150.623 173.064 150.665C176.403 150.589 179.716 151.224 182.756 152.519C183.175 152.688 183.576 152.896 183.951 153.137C184.362 153.389 184.63 153.524 185.163 153.892C185.78 154.374 186.399 154.84 186.993 155.302C188.205 156.37 189.249 157.594 190.092 158.938C191.422 161.097 192.382 163.438 192.942 165.874L192.942 165.874Z" fill="#75CFB8"/>
<path d="M187.165 225.743L187.144 225.821L187.103 225.86H187.105C187.072 225.867 187.038 225.874 187.004 225.879L186.921 225.84C186.892 225.782 186.837 225.743 187.165 225.743Z" fill="#75CFB8"/>
<path d="M177.451 164.448C177.984 167.751 177.781 169.606 177.347 169.721C176.855 169.855 176.134 167.866 175.106 165.105C174.643 163.727 173.477 162.662 171.999 162.264C170.986 161.939 169.948 161.7 168.891 161.551C167.725 161.375 166.559 161.201 165.328 161.028C162.887 160.693 160.483 160.151 158.148 159.405C157.105 159.027 156.087 158.589 155.101 158.091C154.273 157.595 153.475 157.052 152.715 156.469C152.035 155.831 151.481 155.252 151.007 154.729C150.687 154.282 150.406 153.813 150.164 153.324C149.774 152.503 149.628 151.993 149.816 151.856C150.003 151.719 150.516 151.973 151.234 152.532C151.603 152.806 152.015 153.248 152.53 153.598C153.043 153.888 153.599 154.235 154.198 154.641C154.836 154.988 155.637 155.298 156.4 155.684C157.274 155.975 158.149 156.302 159.137 156.554L159.135 156.549C161.368 157.077 163.629 157.497 165.906 157.807C167.184 158.02 168.314 158.174 169.651 158.445C170.859 158.667 172.038 159.012 173.17 159.466C173.787 159.686 174.362 159.992 174.877 160.375C175.145 160.546 175.392 160.742 175.619 160.957C175.827 161.186 176.03 161.438 176.235 161.67C176.592 162.098 176.863 162.581 177.037 163.099C177.24 163.529 177.378 163.981 177.451 164.448L177.451 164.448Z" fill="#75CFB8"/>
<path d="M169.156 173.911C169.2 176.1 168.602 177.408 168.211 177.332C167.821 177.256 167.628 176.096 167.017 174.183C166.702 173.056 166.325 171.945 165.885 170.857C165.638 170.234 165.344 169.628 165.01 169.042C164.846 168.79 164.662 168.519 164.477 168.248C164.331 168.075 164.185 167.957 164.066 167.823V167.825C163.855 167.796 163.642 167.789 163.428 167.806C162.718 167.852 162.005 167.808 161.307 167.671L160.917 167.574C159.704 167.322 158.509 167.073 157.419 166.753C156.472 166.345 155.548 165.959 154.66 165.592L154.33 165.438L154.249 165.419L154.083 165.341L154.062 165.321L154.02 165.301L153.877 165.226L153.26 164.859C152.87 164.627 152.48 164.375 152.094 164.146H152.097C151.389 163.699 150.723 163.2 150.098 162.655C149.135 161.839 148.37 160.838 147.855 159.721C147.61 158.927 147.67 158.465 147.876 158.353C148.079 158.241 148.459 158.583 149.042 159.105C149.843 159.738 150.694 160.312 151.592 160.823C152.175 161.15 152.828 161.48 153.567 161.827C153.937 162.003 154.307 162.174 154.699 162.35L155.316 162.624L155.418 162.663L155.501 162.702L155.832 162.817C156.735 163.125 157.682 163.454 158.671 163.804C159.597 163.994 160.542 164.17 161.531 164.38L162.007 164.478L162.21 164.593C162.291 164.478 162.827 164.612 163.405 164.573C164.274 164.517 165.143 164.708 165.895 165.121L165.976 165.16L165.997 165.199C166.434 165.595 166.835 166.03 167.191 166.494C167.415 166.919 167.644 167.315 167.87 167.75C168.204 168.492 168.464 169.262 168.651 170.046C168.982 171.312 169.151 172.609 169.156 173.911L169.156 173.911Z" fill="#75CFB8"/>
<path d="M150.882 314.747C154.671 319.905 157.003 323.169 156.605 323.46C156.207 323.75 153.271 320.997 148.949 316.159L145.451 312.121C144.285 310.613 143.065 308.971 141.787 307.254L141.784 307.251C140.444 305.429 139.221 303.533 138.123 301.571C137.831 301.07 137.54 300.547 137.217 300.044L136.538 298.886L136.415 298.69L136.353 298.595L136.249 298.382C135.796 297.288 135.346 296.179 134.87 295.079V295.082C134.607 294.525 134.385 293.951 134.211 293.362C134.047 292.744 133.901 292.145 133.758 291.524L133.761 291.527C133.412 290.342 133.157 289.135 132.998 287.913C132.894 286.753 132.79 285.595 132.689 284.473C132.587 283.352 132.73 282.233 132.73 281.17V281.173C132.926 277.425 133.462 273.701 134.339 270.044C135.796 263.862 136.91 260.131 137.384 260.193C137.86 260.254 137.587 264.192 136.767 270.413H136.764C136.249 273.999 135.976 277.613 135.942 281.231C135.963 282.236 135.879 283.279 136.007 284.305C136.132 285.331 136.251 286.409 136.376 287.491H136.374C136.527 288.554 136.762 289.607 137.074 290.64C137.196 291.163 137.318 291.705 137.464 292.223C137.633 292.793 137.847 293.347 138.104 293.885C138.557 295.006 139.028 296.106 139.484 297.191C140.038 298.156 140.595 299.123 141.131 300.069H141.128C142.146 301.974 143.265 303.831 144.48 305.632C145.646 307.369 146.765 309.011 147.793 310.557C148.905 312.062 149.935 313.472 150.882 314.747L150.882 314.747Z" fill="#75CFB8"/>
<path d="M151.849 181.004C152.237 181.703 152.198 182.541 151.747 183.206C150.902 184.095 150.345 183.958 150.202 183.843C150.014 183.687 150.449 183.186 150.532 182.627C150.553 182.353 150.451 182.221 150.183 181.95C149.767 181.576 149.296 181.256 148.783 181.004C147.547 180.328 145.868 179.653 143.948 178.859C142.881 178.434 141.84 177.948 140.835 177.405C140.466 177.19 140.125 176.929 139.826 176.631L139.784 176.592L139.638 176.418L139.597 176.379L139.534 176.282L139.412 176.108L139.165 175.781L139.167 175.783C138.774 175.153 138.47 174.476 138.261 173.772C137.705 171.459 137.705 169.055 138.261 166.741C138.641 164.965 139.214 163.23 139.969 161.564C141.265 158.722 142.592 157.215 142.995 157.41C143.399 157.606 142.933 159.399 142.316 162.26C142.006 163.67 141.658 165.348 141.442 167.205C141.132 169.094 141.194 171.019 141.629 172.886C141.723 173.264 141.868 173.633 142.058 173.98C142.535 174.618 142.246 174.405 142.717 174.735C143.477 175.216 144.487 175.7 145.392 176.182H145.395C147.12 177.012 148.747 178.009 150.251 179.157C150.912 179.663 151.459 180.291 151.849 181.004V181.004Z" fill="#75CFB8"/>
<path d="M147.058 249.467C148.177 250.76 148.622 252.453 148.271 254.085C148.128 254.994 148.006 255.903 147.86 256.792C147.714 257.681 147.675 258.529 147.568 259.399C147.365 261.099 147.178 262.758 146.986 264.344C146.626 267.088 146.447 269.849 146.449 272.612C146.429 277.308 147.324 280.13 146.819 280.32C146.47 280.496 144.638 277.75 144 272.768C143.644 269.895 143.576 266.997 143.795 264.114C143.878 262.492 144.021 260.831 144.164 259.091C144.248 258.221 144.331 257.335 144.412 256.426C144.492 255.517 144.68 254.647 144.802 253.738C144.864 253.284 144.864 252.822 144.802 252.37C144.74 252.236 144.74 252.003 144.659 251.964C144.633 251.923 144.62 251.874 144.62 251.828C144.537 251.718 144.448 251.615 144.352 251.517L144.271 251.422L143.881 251.402C143.589 251.383 143.222 251.363 142.746 251.307H142.744C142.114 251.205 141.523 250.943 141.036 250.552C140.141 249.89 139.441 249.028 138.996 248.043C138.934 247.926 138.894 247.811 138.832 247.696C136.935 249.55 135.209 251.554 133.669 253.682C132.25 255.597 131.733 257.083 131.384 256.985C131.116 256.909 130.931 255.441 132.042 252.881C133.593 249.619 135.722 246.626 138.338 244.032L139.922 242.409C140.745 244.264 141.281 247.335 142.928 248.495C144.094 249.297 145.742 248.407 147.058 249.468L147.058 249.467Z" fill="#75CFB8"/>
<path d="M126.933 211.739C127.324 211.874 127.056 215.082 125.039 220.144V220.142C123.86 223.057 122.397 225.864 120.667 228.527C118.559 231.784 116.185 234.884 113.567 237.801C108.797 242.988 103.551 247.772 97.8876 252.096C93.5779 255.39 90.7077 257.234 90.4159 256.887C90.1244 256.54 92.3729 254.126 96.2454 250.396C100.118 246.665 105.549 241.639 110.939 235.692C113.445 232.887 115.798 229.963 117.984 226.931C119.751 224.451 121.356 221.873 122.798 219.215C125.247 214.712 126.421 211.563 126.933 211.739L126.933 211.739Z" fill="#75CFB8"/>
</g>
<defs>
<filter id="filter0_d_219_27" x="0" y="0" width="343.355" height="348.585" filterUnits="userSpaceOnUse" color-interpolation-filters="sRGB">
<feFlood flood-opacity="0" result="BackgroundImageFix"/>
<feColorMatrix in="SourceAlpha" type="matrix" values="0 0 0 0 0 0 0 0 0 0 0 0 0 0 0 0 0 0 127 0" result="hardAlpha"/>
<feOffset dx="5" dy="5"/>
<feGaussianBlur stdDeviation="5"/>
<feComposite in2="hardAlpha" operator="out"/>
<feColorMatrix type="matrix" values="0 0 0 0 0.0666667 0 0 0 0 0.0823529 0 0 0 0 0.0862745 0 0 0 1 0"/>
<feBlend mode="normal" in2="BackgroundImageFix" result="effect1_dropShadow_219_27"/>
<feBlend mode="normal" in="SourceGraphic" in2="effect1_dropShadow_219_27" result="shape"/>
</filter>
</defs>
</svg>
