<svg width="640" height="512" viewBox="0 0 640 512" fill="none" xmlns="http://www.w3.org/2000/svg">
<g clip-path="url(#clip0_134_477)">
<path d="M290.547 189.038C270.252 178.889 246.4 177.839 225.808 185.148C268.414 185.148 297.016 205.623 311.386 235.724C319.962 253.623 306.238 273.795 287.769 273.795C306.198 273.795 319.98 293.931 311.386 311.866C296.661 342.712 265.263 362.72 231.088 362.72C230.531 362.72 136.617 354.105 136.617 354.105L70.2112 387.452C60.8272 392.145 50.3962 387.831 46.3162 379.671L1.86021 290.746C-2.30679 282.131 0.749209 271.849 8.80621 267.125L66.8782 234.056L108 159.86C114.39 102.615 142.731 50.0933 187.743 13.1343C199.134 3.6863 216.084 5.3533 225.253 16.7473C234.699 28.1413 233.033 44.8143 221.641 54.2633C209.138 64.8223 198.023 76.7723 189.132 89.8333C210.804 75.1043 235.811 65.1013 263.318 61.7663C278.043 59.8213 291.381 70.1023 293.048 84.8313C294.993 99.5593 284.712 112.898 269.986 114.565C253.87 116.51 238.866 122.068 225.808 129.849C251.922 124.136 284.52 126.711 313.887 140.964C327.223 147.633 332.78 163.473 326.111 176.812C319.722 189.872 303.607 195.429 290.547 189.038ZM263.318 258.51C257.206 246.005 244.98 238.224 231.087 238.224C226.412 238.21 221.781 239.121 217.46 240.904C213.138 242.686 209.212 245.306 205.906 248.612C202.601 251.918 199.982 255.844 198.2 260.166C196.418 264.488 195.508 269.12 195.522 273.794C195.522 295.222 213.33 309.364 231.087 309.364C244.98 309.364 257.206 301.583 263.318 289.078C267.764 279.629 276.932 274.072 286.657 273.794C276.932 273.517 267.764 267.959 263.318 258.51ZM638.139 221.273C642.307 229.888 639.25 240.17 631.193 244.894L573.122 277.963L532 352.159C525.61 409.404 497.269 461.926 452.257 498.885C441.325 507.997 424.458 507.029 414.747 495.272C405.301 483.878 406.967 467.205 418.36 457.756C430.863 447.197 441.977 435.247 450.868 422.186C429.196 436.915 404.189 446.918 376.682 450.253C366.661 452.759 349.13 444.61 346.952 427.188C345.007 412.46 355.288 399.121 370.014 397.454C386.13 395.508 401.134 389.951 414.192 382.17C388.078 387.883 355.48 385.308 326.113 371.055C312.777 364.386 307.22 348.546 313.889 335.207C320.278 322.146 336.394 316.588 349.454 322.98C369.749 333.129 393.601 334.179 414.193 326.87C371.587 326.87 342.985 306.395 328.615 276.294C320.039 258.395 333.763 238.223 352.232 238.223C333.803 238.223 320.021 218.087 328.615 200.152C342.648 170.756 372.654 149.265 410.581 149.298L503.384 157.913L569.79 124.566C579.198 119.862 589.618 124.212 593.684 132.347L638.139 221.273ZM408.912 202.655C395.019 202.655 382.793 210.436 376.681 222.941C372.235 232.39 363.067 237.947 353.342 238.225C363.067 238.503 372.235 244.061 376.681 253.509C382.793 266.014 395.019 273.795 408.912 273.795C413.587 273.809 418.218 272.899 422.54 271.116C426.861 269.333 430.788 266.714 434.093 263.408C437.398 260.102 440.018 256.175 441.8 251.853C443.582 247.532 444.492 242.9 444.477 238.225C444.477 216.796 426.669 202.655 408.912 202.655Z" fill="#75CFB8"/>
</g>
<defs>
<clipPath id="clip0_134_477">
<rect width="640" height="512" fill="white"/>
</clipPath>
</defs>
</svg>
