<svg width="576" height="512" viewBox="0 0 576 512" fill="none" xmlns="http://www.w3.org/2000/svg">
<g clip-path="url(#clip0_134_473)">
<path d="M569.344 231.63C512.96 135.948 407.81 71.9993 288 71.9993C259.532 71.9993 231.898 75.6183 205.549 82.4083L152.778 10.2393C145.177 -0.618729 130.214 -3.26073 119.355 4.33927L106.241 13.5173C95.3806 21.1183 92.7386 36.0833 100.341 46.9433L143.472 105.338C89.4486 131.729 40.2276 174.682 6.68161 231.58C6.67161 231.597 6.65861 231.613 6.64761 231.63C-2.11739 246.505 -2.31639 265.158 6.64761 280.369C45.1476 345.701 106.39 396.231 179.507 421.718L55.3156 244.301C63.7232 231.558 73.1879 219.545 83.6096 208.389L203.01 378.969H203.02L243.65 437.009C269.821 440.556 296.324 440.949 322.59 438.179L132.61 166.779C144.939 158.569 157.906 151.358 171.387 145.216L423.223 501.76C430.824 512.618 445.787 515.259 456.646 507.66L469.76 498.482C480.62 490.881 483.262 475.915 475.66 465.056L432.54 406.679L432.533 406.67C489.694 378.692 537.368 334.63 569.343 280.369C573.701 272.987 575.999 264.572 575.999 256C576 247.428 573.701 239.012 569.344 231.63ZM390.026 345.939L370.96 318.709C395.642 286.142 398.671 242.356 379.76 207.029V207.059C379.76 230.709 360.59 249.879 336.94 249.879C313.112 249.879 294.12 230.53 294.12 207.059C294.12 183.409 313.29 164.239 336.94 164.239H336.97C312.22 150.99 283.448 148.596 257.46 156.559L238.392 129.322C253.758 123.305 270.488 119.999 288 119.999C363.162 119.999 424 180.825 424 255.999C424 290.503 411.167 321.974 390.026 345.939Z" fill="#75CFB8"/>
</g>
<defs>
<clipPath id="clip0_134_473">
<rect width="576" height="512" fill="white"/>
</clipPath>
</defs>
</svg>
